<?xml version="1.0" standalone="no"?>
<!DOCTYPE svg PUBLIC "-//W3C//DTD SVG 1.1//EN" "http://www.w3.org/Graphics/SVG/1.1/DTD/svg11.dtd" >
<svg xmlns="http://www.w3.org/2000/svg">
<metadata></metadata>
<defs>
<font id="excellence_in_motion_v4black" horiz-adv-x="1069" >
<font-face units-per-em="2048" ascent="1556" descent="-492" />
<missing-glyph horiz-adv-x="542" />
<glyph unicode="&#xfb01;" horiz-adv-x="1198" d="M43 606v264h156v60q0 178 109.5 286.5t293.5 108.5q72 0 119 -20v-254q-31 14 -76 14q-47 0 -78.5 -29.5t-31.5 -85.5v-80h573v-870h-336v606h-237v-606h-336v606h-156zM760 1174q0 74 54 123t134 49q76 0 129 -49t53 -123q0 -86 -52 -136.5t-130 -50.5q-80 0 -134 50 t-54 137z" />
<glyph unicode="&#xfb02;" horiz-adv-x="1282" d="M43 606v264h156v60q0 178 109.5 286.5t293.5 108.5q72 0 119 -20v-254q-31 14 -76 14q-47 0 -78.5 -29.5t-31.5 -85.5v-80h241v-264h-241v-606h-336v606h-156zM846 0h336v1325h-336v-1325z" />
<glyph unicode="&#xfb03;" horiz-adv-x="1765" d="M43 606v264h156v60q0 178 109.5 286.5t293.5 108.5q72 0 119 -20v-254q-31 14 -76 14q-47 0 -78.5 -29.5t-31.5 -85.5v-80h237v60q0 178 109.5 286.5t294.5 108.5q72 0 118 -20v-254q-31 14 -75 14q-47 0 -79 -29.5t-32 -85.5v-80h578v-870h-336v606h-242v-606h-336v606 h-237v-606h-336v606h-156zM1335 1174q0 74 54.5 123t134.5 49q76 0 129 -49t53 -123q0 -86 -52 -136.5t-130 -50.5q-80 0 -134.5 50t-54.5 137z" />
<glyph unicode="&#xfb04;" horiz-adv-x="1855" d="M43 606v264h156v60q0 178 109.5 286.5t293.5 108.5q72 0 119 -20v-254q-31 14 -76 14q-47 0 -78.5 -29.5t-31.5 -85.5v-80h237v60q0 178 109.5 286.5t294.5 108.5q72 0 118 -20v-254q-31 14 -75 14q-47 0 -79 -29.5t-32 -85.5v-80h242v-264h-242v-606h-336v606h-237v-606 h-336v606h-156zM1407 0h336v1325h-336v-1325z" />
<glyph horiz-adv-x="0" />
<glyph unicode="&#xd;" horiz-adv-x="681" />
<glyph unicode=" "  horiz-adv-x="542" />
<glyph unicode="&#x09;" horiz-adv-x="542" />
<glyph unicode="&#xa0;" horiz-adv-x="542" />
<glyph unicode="!" horiz-adv-x="552" d="M92 160q0 74 54.5 123t132.5 49q76 0 128 -49t52 -123q0 -86 -51.5 -136.5t-128.5 -50.5q-80 0 -133.5 50.5t-53.5 136.5zM106 1229h343l-23 -793h-297z" />
<glyph unicode="&#x22;" horiz-adv-x="933" d="M49 776l213 549h313l-221 -549h-305zM434 776l213 549h314l-222 -549h-305z" />
<glyph unicode="#" horiz-adv-x="1562" d="M102 309v264h236l49 177h-285v264h361l84 289h299l-82 -289h156l84 289h299l-82 -289h153v-264h-229l-49 -177h278v-264h-354l-86 -309h-303l88 309h-156l-86 -309h-303l88 309h-160zM639 573h156l49 177h-156z" />
<glyph unicode="$" horiz-adv-x="1093" d="M49 145l154 248q164 -135 332 -135q70 0 106.5 23.5t36.5 58.5q0 47 -78 82l-254 113q-279 121 -278 352q0 125 89 219t240 131v176h314v-172q164 -31 299 -137l-160 -221q-141 94 -270 94q-145 0 -146 -76q0 -51 78 -84l262 -112q141 -59 210 -143.5t69 -209.5 q0 -129 -92.5 -227t-249.5 -133v-225h-314v221q-201 37 -348 157z" />
<glyph unicode="%" horiz-adv-x="1683" d="M125 0l1067 1303h350l-1063 -1303h-354zM162 1046.5q0 116.5 86 197.5t209 81q121 0 206 -81t85 -197.5t-85 -199.5t-206 -83t-208 83t-87 199.5zM373 1047q0 -35 23.5 -60.5t58.5 -25.5q33 0 57.5 25.5t24.5 60.5q0 33 -25 57t-57 24q-35 0 -58.5 -24.5t-23.5 -56.5z M952 262q0 117 86 198t209 81q121 0 206 -81t85 -198t-85 -199.5t-206 -82.5t-208 82.5t-87 199.5zM1163 262q0 -35 23.5 -60.5t58.5 -25.5q33 0 57.5 25.5t24.5 60.5q0 33 -24.5 57.5t-57.5 24.5q-35 0 -58.5 -24.5t-23.5 -57.5z" />
<glyph unicode="&#x26;" horiz-adv-x="1337" d="M88 317q0 70 39 135.5t85 107.5t136 114q-63 66 -87.5 94.5t-50.5 81.5t-26 111q0 125 108.5 209.5t268.5 84.5q166 0 268.5 -82.5t102.5 -211.5q0 -84 -48 -154t-149 -154l178 -188q61 53 88 82l201 -172q-43 -45 -106 -103l223 -239v-33h-340l-86 92 q-141 -119 -352 -119q-205 0 -329 91.5t-124 252.5zM420 334q0 -47 36 -74t87 -27q96 0 166 58l-177 184q-113 -74 -112 -141zM471 967q0 -51 84 -123q90 63 90 123q0 31 -25.5 56.5t-60.5 25.5q-39 0 -63.5 -25t-24.5 -57z" />
<glyph unicode="'" horiz-adv-x="575" d="M49 776l213 549h313l-221 -549h-305z" />
<glyph unicode="(" horiz-adv-x="815" d="M138 631q-3 422 220 760h347q-474 -746 18 -1553h-346q-236 371 -239 793z" />
<glyph unicode=")" horiz-adv-x="808" d="M100 -162q492 807 19 1553h346q223 -338 220 -760t-239 -793h-346z" />
<glyph unicode="*" horiz-adv-x="763" d="M61 1040l74 185l152 -68l-11 168h201l-8 -170l156 72l71 -185l-172 -57l111 -137l-164 -119l-92 150l-94 -142l-162 115l106 129z" />
<glyph unicode="+" horiz-adv-x="1153" d="M109 336v293h299v307h335v-307h299v-293h-299v-336h-335v336h-299z" />
<glyph unicode="," horiz-adv-x="520" d="M-2 -330l213 549h313l-221 -549h-305z" />
<glyph unicode="-" d="M193 362v293h706v-293h-706z" />
<glyph unicode="." horiz-adv-x="614" d="M121 160q0 74 54 123t134 49q76 0 129.5 -49t53.5 -123q0 -86 -52.5 -136.5t-130.5 -50.5q-80 0 -134 50.5t-54 136.5z" />
<glyph unicode="/" horiz-adv-x="1462" d="M98 -180l938 1605h363l-934 -1605h-367z" />
<glyph unicode="0" horiz-adv-x="1234" d="M74 621q0 281 148.5 457.5t391.5 176.5q248 0 396.5 -176.5t148.5 -457.5q0 -301 -146.5 -474.5t-398.5 -173.5q-250 0 -395 172t-145 476zM414 616q0 -162 54 -244.5t146 -82.5q203 -1 203 327q0 158 -53 242t-150 84q-92 0 -146 -86t-54 -240z" />
<glyph unicode="1" horiz-adv-x="987" d="M45 831l457 398h327v-1229h-348v834l-252 -216z" />
<glyph unicode="2" horiz-adv-x="1067" d="M72 1061q90 84 212 139t244 55q211 0 331 -99t120 -267q0 -57 -17.5 -110.5t-63.5 -116t-68.5 -89t-86.5 -94.5q-12 -14 -18 -20l-170 -180h426v-279h-872v250l401 391q51 51 71.5 74.5t47 68.5t26.5 82q0 49 -38.5 81t-112.5 32q-125 0 -271 -137z" />
<glyph unicode="3" horiz-adv-x="1032" d="M51 119l137 239q113 -100 269 -100q80 0 128 36t48 91q0 53 -50.5 88t-129.5 35h-138v246h134q72 0 112.5 35.5t40.5 84.5q0 47 -40 84t-109 37q-123 0 -246 -88l-129 213q86 61 195.5 98t207.5 37q207 0 327 -96t120 -248q0 -162 -174 -268q215 -90 215 -287 q0 -168 -140.5 -275.5t-355.5 -107.5q-238 0 -422 146z" />
<glyph unicode="4" horiz-adv-x="1214" d="M47 453l539 776h415v-754h162v-254h-162v-221h-303v221h-491zM375 475h323v481z" />
<glyph unicode="5" horiz-adv-x="1087" d="M72 129l141 236q131 -111 291 -111q84 0 140 45t56 119q0 72 -61 113.5t-172 41.5q-109 0 -211 -45l-141 125l96 576h704v-254h-432l-26 -172q43 10 133 10q180 0 308 -106.5t128 -290.5q0 -199 -140.5 -321t-373.5 -122q-242 0 -440 156z" />
<glyph unicode="6" horiz-adv-x="1114" d="M74 580q0 340 149.5 507.5t392.5 167.5q223 0 371 -102l-131 -225q-96 59 -215 59q-109 0 -178.5 -66.5t-73.5 -185.5q84 78 246 78q193 0 307.5 -114t114.5 -298q0 -188 -132 -308t-350 -120q-96 0 -182 33t-159.5 100.5t-116.5 189.5t-43 284zM422 408q0 -70 46 -114 t113.5 -44t112.5 44t45 112q0 70 -42.5 111.5t-114.5 41.5q-70 0 -115 -42t-45 -109z" />
<glyph unicode="7" horiz-adv-x="1017" d="M78 938v291h868v-268l-469 -961h-379l477 938h-497z" />
<glyph unicode="8" horiz-adv-x="1153" d="M76 350q0 109 67.5 186.5t153.5 112.5q-35 18 -58.5 37t-56 52.5t-51 83.5t-18.5 112q0 131 130 226t335 95q209 0 335.5 -94t126.5 -229q0 -195 -182 -283q88 -37 153.5 -113.5t65.5 -185.5q0 -174 -137 -275.5t-362 -101.5q-219 0 -360.5 102.5t-141.5 274.5zM422 365 q0 -57 42 -100.5t111 -43.5q72 0 114 43t42 101q0 59 -42 101t-113.5 42t-112.5 -42t-41 -101zM428 911q0 -53 38 -96t109.5 -43t110.5 43t39 96q0 47 -39 87t-111 40q-70 0 -108.5 -40t-38.5 -87z" />
<glyph unicode="9" horiz-adv-x="1112" d="M61 827q0 188 132.5 308t349.5 120q96 0 182 -32.5t159.5 -100t116.5 -189.5t43 -284q0 -340 -149.5 -508t-392.5 -168q-223 0 -371 103l131 225q96 -59 215 -59q109 0 178.5 66.5t73.5 185.5q-84 -78 -246 -78q-193 0 -307.5 113.5t-114.5 297.5zM379 823 q0 -70 43 -111.5t115 -41.5q70 0 114.5 42t44.5 109q0 70 -46 114t-113.5 44t-112.5 -44t-45 -112z" />
<glyph unicode=":" horiz-adv-x="575" d="M102 160q0 74 54.5 123t134.5 49q76 0 129 -49t53 -123q0 -86 -52 -136.5t-130 -50.5q-80 0 -134.5 50.5t-54.5 136.5zM102 717q0 74 54.5 123t134.5 49q76 0 129 -49t53 -123q0 -86 -52 -136.5t-130 -50.5q-80 0 -134.5 50.5t-54.5 136.5z" />
<glyph unicode=";" horiz-adv-x="538" d="M-2 -330l213 549h313l-221 -549h-305zM145 717q0 74 54.5 123t134.5 49q76 0 129 -49t53 -123q0 -86 -52 -136.5t-130 -50.5q-80 0 -134.5 50.5t-54.5 136.5z" />
<glyph unicode="&#x3c;" horiz-adv-x="1138" d="M143 487v242l527 477h417l-686 -600l686 -606h-417z" />
<glyph unicode="=" horiz-adv-x="1241" d="M188 72v284h861v-284h-861zM188 553v285h861v-285h-861z" />
<glyph unicode="&#x3e;" horiz-adv-x="1177" d="M127 0l686 606l-686 600h418l526 -477v-242l-526 -487h-418z" />
<glyph unicode="?" horiz-adv-x="985" d="M76 1051q86 92 201.5 148t238.5 56q199 0 320.5 -95t121.5 -242q0 -63 -34.5 -126t-71.5 -99t-107 -95q-100 -86 -100 -152v-53h-297v53q0 143 109 244q18 16 57 48t59.5 49.5t38 44t17.5 51.5q0 96 -129 96q-123 0 -244 -137zM315 160q0 74 54.5 123t132.5 49 q76 0 128 -49t52 -123q0 -86 -51 -136.5t-129 -50.5q-80 0 -133.5 50.5t-53.5 136.5z" />
<glyph unicode="@" horiz-adv-x="2004" d="M137 436q0 369 249 613.5t615 244.5q369 0 614 -223t245 -545q0 -244 -100.5 -364.5t-239.5 -120.5q-162 0 -236 106q-109 -137 -321 -137q-166 0 -274.5 80t-108.5 211q0 127 106.5 206t294.5 79q84 0 156 -13v15q0 49 -47.5 81.5t-139.5 32.5q-150 0 -276 -71v225 q145 70 299 70q231 0 351 -98.5t120 -268.5v-197q0 -88 69 -88q25 0 41.5 13.5t30.5 73t14 163.5q0 225 -168.5 380t-431.5 155q-254 0 -425 -174t-171 -436q0 -266 191.5 -426t468.5 -160q236 0 432 125l119 -236q-242 -143 -539 -143q-250 0 -461 97t-344 288.5 t-133 441.5zM870 319q0 -45 35 -70.5t78 -25.5q107 0 154 80v100q-59 10 -119 11q-147 0 -148 -95z" />
<glyph unicode="A" horiz-adv-x="1611" d="M14 0l604 1229h361l618 -1229h-391l-108 244l-613 4l-114 -248h-357zM608 512h369l-180 406z" />
<glyph unicode="B" horiz-adv-x="1216" d="M121 0v1229h573q201 0 321 -84t120 -230q0 -94 -54.5 -161.5t-136.5 -106.5q96 -37 160.5 -111.5t64.5 -185.5q0 -160 -123 -255t-307 -95h-618zM457 260h217q63 0 102 38t39 97q0 53 -38 87t-95 34h-225v-256zM457 756h205q51 0 83.5 30.5t32.5 77.5t-33 76t-88 29h-200 v-213z" />
<glyph unicode="C" horiz-adv-x="1310" d="M41 623q0 268 196.5 450t479.5 182q311 0 534 -251l-239 -224q-104 156 -291 156q-133 0 -235.5 -91t-102.5 -222q0 -143 102.5 -235.5t237.5 -92.5q186 0 309 162l246 -209q-86 -119 -224.5 -197t-318.5 -78q-297 0 -495.5 183.5t-198.5 466.5z" />
<glyph unicode="D" horiz-adv-x="1310" d="M121 0v1229h438q332 0 516.5 -151.5t184.5 -444.5q0 -287 -186.5 -460t-512.5 -173h-440zM457 291h104q170 0 260 89t90 245q0 150 -90 231.5t-262 81.5h-102v-647z" />
<glyph unicode="E" d="M121 0v1229h868v-291h-532v-184h501v-275h-501v-188h530v-291h-866z" />
<glyph unicode="F" horiz-adv-x="1009" d="M121 0v1229h831v-291h-495v-254h458v-283h-458v-401h-336z" />
<glyph unicode="G" horiz-adv-x="1378" d="M47 621q0 264 199.5 449t486.5 185q295 0 516 -208l-231 -226q-115 115 -279 115q-141 0 -236 -90t-95 -225q0 -147 97 -240.5t243 -93.5q133 0 208 43v116h-227v259h551v-578q-203 -154 -524 -154q-305 0 -507 180.5t-202 467.5z" />
<glyph unicode="H" horiz-adv-x="1392" d="M121 0v1229h338v-463h477v463h336v-1229h-336v465h-477v-465h-338z" />
<glyph unicode="I" horiz-adv-x="593" d="M123 0v1229h348v-1229h-348z" />
<glyph unicode="J" horiz-adv-x="888" d="M23 70l112 270q80 -57 166 -57q63 0 98 34t35 91v821h348v-846q0 -184 -114.5 -297t-317.5 -113q-182 0 -327 97z" />
<glyph unicode="K" horiz-adv-x="1337" d="M121 0v1229h344v-494l385 494h424l-473 -580l516 -649h-455l-397 522v-522h-344z" />
<glyph unicode="L" horiz-adv-x="1015" d="M121 0v1229h336v-938h487v-291h-823z" />
<glyph unicode="M" horiz-adv-x="1607" d="M121 0v1229h352l342 -457l352 457h328v-1229h-336v715l-350 -449h-12l-344 449v-715h-332z" />
<glyph unicode="N" horiz-adv-x="1458" d="M121 0v1229h307l578 -688v688h340v-1229h-320l-573 692v-692h-332z" />
<glyph unicode="O" horiz-adv-x="1404" d="M39 618q0 266 194.5 451.5t466.5 185.5q274 0 470 -185t196 -452q0 -268 -195.5 -456.5t-470.5 -188.5q-272 0 -466.5 188.5t-194.5 456.5zM379 618q0 -145 93 -237t228 -92q141 0 229.5 91t88.5 238q0 141 -89 232.5t-229 91.5q-135 0 -228 -93.5t-93 -230.5z" />
<glyph unicode="P" horiz-adv-x="1171" d="M121 0v1229h493q221 0 368.5 -119t147.5 -328q0 -199 -150.5 -324.5t-365.5 -125.5h-157v-332h-336zM457 616h147q82 0 137.5 47.5t55.5 122.5q0 78 -54.5 118t-138.5 40h-147v-328z" />
<glyph unicode="Q" horiz-adv-x="1411" d="M37 618q0 266 194.5 451.5t466.5 185.5q274 0 470 -185t196 -452q0 -231 -150 -407l175 -180l-238 -205l-193 199q-125 -51 -260 -52q-272 0 -466.5 188.5t-194.5 456.5zM377 618q0 -145 93 -237t228 -92q141 0 229.5 91t88.5 238q0 141 -89 232.5t-229 91.5 q-135 0 -228 -93.5t-93 -230.5z" />
<glyph unicode="R" horiz-adv-x="1308" d="M121 0v1229h549q229 0 372.5 -102.5t143.5 -288.5q0 -129 -75 -225.5t-204 -149.5l396 -463h-416l-332 414h-98v-414h-336zM457 682h209q63 0 109 38t46 101q0 66 -44.5 100.5t-110.5 34.5h-209v-274z" />
<glyph unicode="S" horiz-adv-x="1114" d="M55 145l154 248q164 -135 332 -135q70 0 106.5 23.5t36.5 58.5q0 47 -78 82l-254 113q-278 121 -278 350q0 160 139 265t358 105q252 0 445 -151l-160 -221q-141 94 -270 94q-145 0 -146 -76q0 -51 78 -84l262 -112q141 -59 210 -143.5t69 -209.5q0 -162 -141.5 -270.5 t-368.5 -108.5q-279 0 -494 172z" />
<glyph unicode="T" horiz-adv-x="1052" d="M37 938v291h979v-291h-322v-938h-336v938h-321z" />
<glyph unicode="U" horiz-adv-x="1329" d="M121 516v713h336v-715q0 -115 65.5 -169t153.5 -54q211 0 211 223v715h330v-713q0 -264 -147.5 -403.5t-393.5 -139.5q-238 0 -396.5 138.5t-158.5 404.5z" />
<glyph unicode="V" horiz-adv-x="1417" d="M14 1229h377l318 -826l333 826h361l-514 -1229h-363z" />
<glyph unicode="W" horiz-adv-x="1937" d="M14 1229h336l203 -778l264 778h328l260 -778l207 778h315l-368 -1229h-351l-243 735l-260 -735h-351z" />
<glyph unicode="X" horiz-adv-x="1327" d="M14 0l412 608l-401 621h413l236 -387l254 387h372l-409 -613l426 -616h-410l-233 381l-250 -381h-410z" />
<glyph unicode="Y" horiz-adv-x="1331" d="M14 1229h385l275 -486l280 486h367l-479 -783v-446h-348v446z" />
<glyph unicode="Z" horiz-adv-x="1130" d="M90 0v240l528 694h-512v295h945v-258l-512 -676h512v-295h-961z" />
<glyph unicode="[" horiz-adv-x="897" d="M219 -162v1553h533v-285h-244v-983h244v-285h-533z" />
<glyph unicode="\" horiz-adv-x="1533" d="M158 1425h362l938 -1605h-366z" />
<glyph unicode="]" horiz-adv-x="894" d="M180 123h244v983h-244v285h533v-1553h-533v285z" />
<glyph unicode="^" horiz-adv-x="1077" d="M160 684l241 627h285l242 -627h-246l-139 346l-137 -346h-246z" />
<glyph unicode="_" horiz-adv-x="1052" d="M63 -70h920v-256h-920v256z" />
<glyph unicode="`" horiz-adv-x="1513" d="M481 1315v10h310l253 -332h-284z" />
<glyph unicode="a" horiz-adv-x="1026" d="M63 264q0 127 112 206t308 79q41 0 164 -12v12q0 110 -199 110h-4q-168 0 -297 -61v231q141 59 328 60q236 0 357.5 -98.5t121.5 -268.5v-522h-292v61q-91 -79 -240 -79h-4q-164 0 -259.5 75.5t-95.5 206.5zM393 276q0 -43 33 -68.5t80 -25.5q92 0 141 72v113 q-59 10 -106 10q-72 0 -110 -27.5t-38 -73.5z" />
<glyph unicode="b" horiz-adv-x="1144" d="M127 0v1325h336v-459q80 23 162 23q197 0 336 -128t139 -323q0 -207 -136.5 -331.5t-316.5 -124.5q-150 0 -250 96v-78h-270zM463 303q41 -47 127 -47q68 0 118 47t50 139q0 82 -54.5 130.5t-128.5 48.5q-57 -1 -112 -21v-297z" />
<glyph unicode="c" horiz-adv-x="983" d="M57 442q0 186 137.5 316.5t342.5 130.5q229 0 385 -174l-228 -199q-57 82 -151 82q-61 0 -110.5 -45t-49.5 -113q0 -72 48 -114.5t112 -42.5q103 0 162 88l239 -187q-149 -202 -403 -202h-2q-205 0 -343.5 133t-138.5 327z" />
<glyph unicode="d" horiz-adv-x="1118" d="M57 438q0 195 139.5 323t335.5 128q82 0 162 -23v459h336v-1325h-270v78q-100 -96 -250 -96q-180 0 -316.5 124.5t-136.5 331.5zM399 442q0 -92 50.5 -139t117.5 -47q86 0 127 47v297q-55 20 -112 21q-74 0 -128.5 -48.5t-54.5 -130.5z" />
<glyph unicode="e" horiz-adv-x="1015" d="M57 440q0 184 131 316.5t320 132.5q219 -1 348 -143q116 -129 116 -351q0 -24 -1 -49h-596q14 -57 67.5 -90t122.5 -33q129 0 201 84l164 -180q-145 -145 -373 -145q-215 0 -357.5 127t-142.5 331zM377 530h274q-4 57 -40 98.5t-97 41.5q-55 0 -94 -41t-43 -99z" />
<glyph unicode="f" horiz-adv-x="800" d="M43 606v264h156v60q0 174 126 284.5t310 110.5q109 0 196 -35v-254q-59 27 -133 27q-72 0 -117.5 -39t-45.5 -106v-48h241v-264h-241v-606h-336v606h-156z" />
<glyph unicode="g" horiz-adv-x="1130" d="M57 451q0 199 151.5 318.5t393.5 119.5q215 0 424 -84v-803q0 -197 -140.5 -313.5t-369.5 -116.5q-104 0 -218 33t-192 86l97 241q133 -92 295 -92q90 0 147 44t57 122v39q-70 -43 -180 -43h-6q-186 0 -322 115q-137 117 -137 334zM393 451v-6q0 -86 55 -131 q56 -48 136 -48q74 0 108 35v307q-47 20 -98 21q-86 0 -142.5 -48.5t-58.5 -129.5z" />
<glyph unicode="h" horiz-adv-x="1167" d="M131 0v1325h336v-537q129 100 260 101q158 0 250 -85t92 -259v-545h-336v457q0 68 -33.5 99.5t-87.5 31.5q-80 0 -145 -76v-512h-336z" />
<glyph unicode="i" horiz-adv-x="585" d="M115 1174q0 74 54 123t134 49q76 0 129 -49t53 -123q0 -86 -52 -136.5t-130 -50.5q-80 0 -134 50t-54 137zM131 0v870h336v-870h-336z" />
<glyph unicode="j" horiz-adv-x="587" d="M-188 -379l88 262q63 -37 129 -37q53 0 84.5 30t31.5 89v905h336v-938q0 -166 -108.5 -271t-270.5 -105q-170 0 -290 65zM129 1174q0 74 54.5 123t133.5 49q76 0 129.5 -49t53.5 -123q0 -86 -52.5 -136.5t-130.5 -50.5q-80 0 -134 50t-54 137z" />
<glyph unicode="k" horiz-adv-x="1140" d="M131 0v1325h336v-733l242 278h399l-348 -395l373 -475h-400l-266 358v-358h-336z" />
<glyph unicode="l" horiz-adv-x="571" d="M127 0v1325h336v-1325h-336z" />
<glyph unicode="m" horiz-adv-x="1626" d="M131 0v870h307v-92q106 111 247.5 111t229.5 -98q129 98 263 98q152 0 251 -91t99 -263v-535h-336v510q0 47 -22.5 75.5t-63.5 28.5q-57 0 -111 -51q0 -4 1 -13t1 -15v-535h-335v510q0 47 -23 75.5t-61 28.5q-74 0 -111 -59v-555h-336z" />
<glyph unicode="n" horiz-adv-x="1167" d="M131 0v870h313v-100q125 119 283 119t250 -85t92 -259v-545h-336v457q0 68 -33.5 99.5t-87.5 31.5q-86 0 -145 -72v-516h-336z" />
<glyph unicode="o" horiz-adv-x="1038" d="M57 436q0 190 135.5 321.5t334 131.5t334.5 -132t136 -320.5t-137 -321.5t-333.5 -133t-333 133t-136.5 321zM393 440q0 -74 37 -113.5t96.5 -39.5t96 40t36.5 113q0 70 -36.5 112t-96.5 42q-57 0 -95 -42t-38 -112z" />
<glyph unicode="p" horiz-adv-x="1153" d="M129 -455v1325h270v-77q100 96 250 96q180 0 316.5 -125t136.5 -332q0 -195 -139.5 -322.5t-335.5 -127.5q-82 0 -162 22v-459h-336zM465 270q55 -20 113 -20q74 0 128 48t54 130q0 92 -50.5 139t-117.5 47q-86 0 -127 -47v-297z" />
<glyph unicode="q" horiz-adv-x="1128" d="M57 451q0 201 161 319.5t390 118.5q209 0 418 -84v-1260h-324v492q-70 -37 -167 -37q-193 0 -335.5 117t-142.5 334zM393 451q0 -90 57.5 -136.5t137.5 -46.5q70 0 104 35v303q-47 20 -98 21q-86 0 -143.5 -50.5t-57.5 -125.5z" />
<glyph unicode="r" horiz-adv-x="770" d="M84 0v870h295v-110q35 59 99.5 94t127.5 35q66 0 123 -23v-299q-49 16 -119 17q-61 0 -113.5 -35t-76.5 -92v-457h-336z" />
<glyph unicode="s" horiz-adv-x="833" d="M33 92l108 213q127 -88 248 -88q76 0 76 33q0 6 -2 10t-4 7t-8.5 7.5t-9.5 5.5t-12 5t-13 6l-142 61q-221 92 -221 260q0 117 99.5 197t271.5 80q201 0 346 -98l-119 -195q-100 66 -196 66q-78 0 -78 -35q0 -23 53 -45l152 -66q219 -94 219 -254q0 -127 -103.5 -203.5 t-279.5 -76.5q-209 0 -385 110z" />
<glyph unicode="t" horiz-adv-x="815" d="M37 612v258h141v273h336v-273h260v-258h-260v-206q0 -66 39 -100t98 -34q57 0 119 21v-275q-78 -36 -175 -36h-5q-199 0 -305.5 98t-106.5 276v256h-141z" />
<glyph unicode="u" horiz-adv-x="1167" d="M121 326v544h336v-456q0 -68 33.5 -99.5t87.5 -31.5q86 0 145 71v516h336v-870h-314v100q-124 -118 -279 -118h-3q-154 0 -248 86t-94 258z" />
<glyph unicode="v" horiz-adv-x="1101" d="M14 870h371l168 -505l184 505h355l-361 -870h-358z" />
<glyph unicode="w" horiz-adv-x="1525" d="M14 870h348l113 -485l135 481v4h312l137 -485l123 485h334l-279 -870h-326l-147 461l-146 -461h-342z" />
<glyph unicode="x" horiz-adv-x="1126" d="M14 0l310 455l-277 415h414l108 -202l119 202h373l-275 -407l330 -463h-409l-138 244l-145 -244h-410z" />
<glyph unicode="y" horiz-adv-x="1103" d="M14 870h367l172 -432l184 432h359l-656 -1325h-358l293 570z" />
<glyph unicode="z" horiz-adv-x="925" d="M74 0v201l358 417h-332v252h744v-227l-344 -387h354v-256h-780z" />
<glyph unicode="{" horiz-adv-x="858" d="M78 506v221h37q131 0 131 131v215q0 145 85 231.5t257 86.5h172v-240h-86q-66 0 -102.5 -42t-36.5 -108v-208q0 -141 -117 -181q63 -20 90 -63t27 -115v-190q0 -164 139 -164h86v-242h-162q-170 0 -261 89t-91 237v217q0 55 -37 90t-94 35h-37z" />
<glyph unicode="|" horiz-adv-x="587" d="M123 -233v1646h348v-1646h-348z" />
<glyph unicode="}" horiz-adv-x="858" d="M121 88h86q66 0 102.5 42t36.5 108v208q0 141 117 181q-63 20 -90 63t-27 115v190q0 164 -139 164h-86v242h162q170 0 261 -89t91 -237v-217q0 -55 37 -90t94 -35h37v-221h-37q-131 0 -131 -131v-215q0 -145 -85 -231.5t-257 -86.5h-172v240z" />
<glyph unicode="~" horiz-adv-x="1249" d="M133 358q-2 162 85 252t220 90q68 0 221 -43q111 -31 125 -30q80 0 80 82h260q-2 -193 -76.5 -268.5t-211.5 -75.5q-61 0 -197 43q-115 37 -145 36q-37 0 -60.5 -22.5t-23.5 -63.5h-277z" />
<glyph unicode="&#xa1;" horiz-adv-x="552" d="M92 702q0 86 53.5 136.5t133.5 50.5q78 0 129 -50.5t51 -136.5q0 -74 -52.5 -123t-127.5 -49q-78 0 -132.5 49.5t-54.5 122.5zM106 -367l23 793h297l23 -793h-343z" />
<glyph unicode="&#xa2;" horiz-adv-x="1001" d="M57 442q0 145 87 260t231 162v191h313v-187q131 -39 234 -153l-228 -199q-57 82 -151 82q-61 0 -110.5 -45t-49.5 -113q0 -72 48 -114.5t112 -42.5q102 0 162 88l239 -187q-98 -133 -256 -182v-201h-313v205q-143 49 -230.5 167t-87.5 269z" />
<glyph unicode="&#xa3;" horiz-adv-x="1122" d="M139 0v264h66q43 0 69.5 29t26.5 80v190h-162v264h162v95q0 176 123 285.5t324 109.5q131 0 219 -35v-254q-59 27 -156 27q-80 0 -127 -39t-47 -107v-82h274v-264h-274v-190q0 -82 -76 -109h414v-264h-836z" />
<glyph unicode="&#xa4;" horiz-adv-x="1400" d="M125 999l219 207l135 -133q102 53 232 53q133 0 245 -61l138 131l211 -209l-142 -137q49 -103 49 -209q0 -121 -57 -225l152 -144l-224 -211l-151 142q-109 -49 -221.5 -49t-212.5 45l-148 -148l-221 205l143 145q-63 111 -63 240q0 121 53 221zM537 641q0 -74 50 -125 t124 -51q72 0 122 52t50 124t-50.5 123t-121.5 51q-74 0 -124 -51t-50 -123z" />
<glyph unicode="&#xa5;" horiz-adv-x="1470" d="M82 1229h385l274 -486l281 486h367l-310 -504h164l6 -170h-274l-57 -94h325v-170h-334v-291h-348v291h-334v170h324l-57 94h-267v170h162z" />
<glyph unicode="&#xa6;" horiz-adv-x="624" d="M123 -233v694h348v-694h-348zM123 719v694h348v-694h-348z" />
<glyph unicode="&#xa7;" horiz-adv-x="1202" d="M98 543q0 154 154 237q-133 104 -133 264t137 264.5t356 104.5q248 0 451 -127l-139 -237q-137 92 -297 92q-72 0 -110 -25.5t-38 -60.5q0 -49 78 -82l262 -113q147 -63 230.5 -148t83.5 -216q0 -156 -152 -244q119 -100 119 -254q0 -162 -140.5 -270.5t-367.5 -108.5 q-127 0 -258 43t-223 115l139 262q174 -133 334 -133q70 0 106.5 22.5t36.5 57.5q0 53 -76 86l-256 112q-59 25 -102 51.5t-92 68.5t-76 102.5t-27 136.5zM436 559q0 -49 78 -82l191 -82q90 12 90 76q0 53 -76 86l-201 86q-39 -6 -60.5 -30.5t-21.5 -53.5z" />
<glyph unicode="&#xa8;" horiz-adv-x="1513" d="M395 1167q0 63 46 106.5t116 43.5q66 0 112 -43.5t46 -106.5q0 -74 -45 -117.5t-113 -43.5q-72 0 -117 43t-45 118zM801 1167q0 63 46 106.5t116 43.5q66 0 111.5 -43.5t45.5 -106.5q0 -74 -45 -117.5t-112 -43.5q-72 0 -117 43t-45 118z" />
<glyph unicode="&#xa9;" horiz-adv-x="1597" d="M119 623q0 266 198.5 452.5t485.5 186.5q283 0 477.5 -186.5t194.5 -452.5q0 -268 -195 -455.5t-477 -187.5q-287 0 -485.5 187t-198.5 456zM330 616q0 -188 135 -313t336 -125q197 0 329 126t132 319q0 188 -132 313t-329 125q-203 0 -337 -125t-134 -320zM457 631 q0 139 101 232t247 93q168 0 280 -135l-135 -129q-51 84 -143 84q-61 0 -109.5 -42t-48.5 -103q0 -68 47 -111t111 -43q101 0 154 86l137 -117q-102 -150 -285 -149q-152 0 -254 94t-102 240z" />
<glyph unicode="&#xaa;" horiz-adv-x="980" d="M164 881q0 90 80 146t219 56q29 0 119 -8v8q0 80 -146 80q-123 0 -213 -45v166q106 43 236 43q168 0 255 -70.5t87 -191.5v-373h-209v43q-66 -55 -174 -55q-117 0 -185.5 53t-68.5 148zM174 326v237h617v-237h-617zM399 889q0 -29 23.5 -48.5t56.5 -19.5q66 0 103 51v82 q-35 6 -78 7q-104 0 -105 -72z" />
<glyph unicode="&#xab;" horiz-adv-x="1200" d="M113 449l254 411h325l-248 -411l248 -406h-325zM553 449l254 411h326l-248 -411l248 -406h-326z" />
<glyph unicode="&#xac;" horiz-adv-x="1122" d="M127 309v291h879v-467h-336v176h-543z" />
<glyph unicode="&#xad;" d="M193 362v293h706v-293h-706z" />
<glyph unicode="&#xae;" horiz-adv-x="1173" d="M131 897q0 180 134 304t323 124q193 0 321.5 -123t128.5 -305q0 -193 -129 -315.5t-321 -122.5q-188 0 -322.5 125t-134.5 313zM276 897q0 -131 90.5 -218t221.5 -87q137 0 221 84t84 217q0 129 -85 213t-220 84q-129 0 -220.5 -84t-91.5 -209zM418 711v389h178 q74 0 120 -34t46 -93q0 -80 -78 -117l119 -145h-150l-90 125h-24v-125h-121zM539 926h51q14 0 25.5 12t11.5 29q0 18 -11.5 30.5t-25.5 12.5h-51v-84z" />
<glyph unicode="&#xaf;" horiz-adv-x="1513" d="M428 1024v240h668v-240h-668z" />
<glyph unicode="&#xb0;" horiz-adv-x="929" d="M162 1046.5q0 116.5 86 197.5t209 81q121 0 206 -81t85 -197.5t-85 -199.5t-206 -83t-208 83t-87 199.5zM373 1047q0 -35 23.5 -60.5t58.5 -25.5q33 0 57.5 25.5t24.5 60.5q0 33 -25 57t-57 24q-35 0 -58.5 -24.5t-23.5 -56.5z" />
<glyph unicode="&#xb1;" horiz-adv-x="1028" d="M123 0v193h813v-193h-813zM125 498v217h278v221h252v-221h281v-217h-281v-244h-252v244h-278z" />
<glyph unicode="&#xb4;" horiz-adv-x="1513" d="M483 993l254 332h310v-10l-279 -322h-285z" />
<glyph unicode="&#xb6;" horiz-adv-x="1384" d="M90 856q0 209 147.5 328t368.5 119h273v-1575h-220v678h-53q-215 0 -365.5 125.5t-150.5 324.5zM1028 -272v1575h219v-1575h-219z" />
<glyph unicode="&#xb7;" horiz-adv-x="1513" d="M571 621q0 74 54.5 123t132.5 49q76 0 128 -49t52 -123q0 -86 -51 -136.5t-129 -50.5q-80 0 -133.5 50.5t-53.5 136.5z" />
<glyph unicode="&#xb8;" horiz-adv-x="1513" d="M553 -281q57 -12 121 -12q100 0 100 49q0 37 -72 37q-47 0 -81 -6l-21 121q57 16 137 16q94 0 153.5 -42t59.5 -118q0 -82 -65.5 -132t-177.5 -50q-72 0 -123 10z" />
<glyph unicode="&#xba;" horiz-adv-x="948" d="M141 1004q0 135 96.5 229t237.5 94t238.5 -94t97.5 -229.5t-97.5 -229.5t-238.5 -94q-139 0 -236.5 95.5t-97.5 228.5zM174 334v229h617v-229h-617zM381 1006q0 -51 26.5 -80t67.5 -29q43 0 68.5 27.5t25.5 81.5q0 51 -26.5 80.5t-67.5 29.5t-67.5 -30.5t-26.5 -79.5z " />
<glyph unicode="&#xbb;" horiz-adv-x="1146" d="M96 43l248 406l-248 411h326l254 -411l-254 -406h-326zM541 43l247 406l-247 411h325l254 -411l-254 -406h-325z" />
<glyph unicode="&#xbf;" horiz-adv-x="985" d="M61 -55q0 63 35 125.5t72 98.5t106 95q100 86 101 152v53h297v-53q0 -143 -109 -244q-18 -16 -57 -48t-59.5 -49.5t-38 -44t-17.5 -50.5q0 -96 129 -97q123 0 244 137l180 -208q-86 -92 -201.5 -148.5t-238.5 -56.5q-199 0 -321 95t-122 243zM338 702q0 86 51 136.5 t129 50.5q80 0 133.5 -50.5t53.5 -136.5q0 -74 -54.5 -123t-132.5 -49q-76 0 -128 49t-52 123z" />
<glyph unicode="&#xc0;" horiz-adv-x="1611" d="M14 0l604 1229h361l618 -1229h-391l-108 244l-613 4l-114 -248h-357zM473 1536v12h322l143 -229h-295zM608 512h369l-180 406z" />
<glyph unicode="&#xc1;" horiz-adv-x="1611" d="M14 0l604 1229h361l618 -1229h-391l-108 244l-613 4l-114 -248h-357zM608 512h369l-180 406zM647 1329l170 230h326v-13l-178 -217h-318z" />
<glyph unicode="&#xc2;" horiz-adv-x="1624" d="M18 0l605 1229h360l619 -1229h-392l-108 244l-613 4l-114 -248h-357zM440 1298l197 263h338l196 -263h-274l-92 115l-90 -115h-275zM612 512h369l-180 406z" />
<glyph unicode="&#xc3;" horiz-adv-x="1611" d="M14 0l604 1229h361l618 -1229h-391l-108 244l-613 4l-114 -248h-357zM438 1343q-6 127 54.5 198t160.5 71q72 0 166 -33q74 -25 90 -25q53 0 47 66h199q8 -137 -48 -201.5t-159 -64.5q-51 0 -143 28q-86 29 -109 29q-49 0 -47 -68h-211zM608 512h369l-180 406z" />
<glyph unicode="&#xc4;" horiz-adv-x="1611" d="M14 0l604 1229h361l618 -1229h-391l-108 244l-613 4l-114 -248h-357zM434 1470q0 63 46 106.5t116 43.5q66 0 112 -43.5t46 -106.5q0 -74 -45 -117.5t-113 -43.5q-72 0 -117 43t-45 118zM608 512h369l-180 406zM840 1470q0 63 46 106.5t115 43.5q66 0 112 -43.5 t46 -106.5q0 -74 -45 -117.5t-113 -43.5q-72 0 -116.5 43t-44.5 118z" />
<glyph unicode="&#xc5;" horiz-adv-x="1611" d="M14 0l604 1229h361l618 -1229h-391l-108 244l-613 4l-114 -248h-357zM578 1503q0 90 65.5 149.5t159.5 59.5q92 0 156.5 -59.5t64.5 -149.5q0 -102 -63.5 -162.5t-157.5 -60.5q-96 0 -160.5 60.5t-64.5 162.5zM608 512h369l-180 406zM741 1497q0 -27 17.5 -43t44.5 -16 q25 0 42 16t17 43q0 25 -17.5 41t-41.5 16q-27 0 -44.5 -16t-17.5 -41z" />
<glyph unicode="&#xc6;" horiz-adv-x="1861" d="M14 0l805 1229h985v-291h-532v-184h502v-275h-502v-188h530v-291h-866v246l-412 2l-153 -248h-357zM688 512h248v397z" />
<glyph unicode="&#xc7;" horiz-adv-x="1314" d="M51 623q0 268 196.5 450t479.5 182q311 0 535 -251l-240 -224q-104 156 -291 156q-133 0 -235.5 -91t-102.5 -222q0 -143 102.5 -235.5t237.5 -92.5q186 0 309 162l246 -209q-86 -119 -224 -197t-319 -78q-297 0 -495.5 183.5t-198.5 466.5zM498 -281q59 -12 120 -12 q100 0 101 49q0 37 -72 37q-47 0 -82 -6l-20 121q57 16 137 16q94 0 153.5 -42t59.5 -118q0 -82 -65.5 -132t-178.5 -50q-72 0 -123 10z" />
<glyph unicode="&#xc8;" d="M121 0v1229h868v-291h-532v-184h501v-275h-501v-188h530v-291h-866zM252 1546v13h321l144 -230h-295z" />
<glyph unicode="&#xc9;" d="M121 0v1229h868v-291h-532v-184h501v-275h-501v-188h530v-291h-866zM379 1329l170 230h325v-13l-178 -217h-317z" />
<glyph unicode="&#xca;" d="M121 0v1229h868v-291h-532v-184h501v-275h-501v-188h530v-291h-866zM193 1298l196 263h338l197 -263h-275l-92 115l-90 -115h-274z" />
<glyph unicode="&#xcb;" d="M121 0v1229h868v-291h-532v-184h501v-275h-501v-188h530v-291h-866zM199 1470q0 63 46 106.5t115 43.5q66 0 112 -43.5t46 -106.5q0 -74 -45 -117.5t-113 -43.5q-72 0 -116.5 43t-44.5 118zM604 1470q0 63 46 106.5t116 43.5q66 0 112 -43.5t46 -106.5q0 -74 -45 -117.5 t-113 -43.5q-72 0 -117 43t-45 118z" />
<glyph unicode="&#xcc;" horiz-adv-x="593" d="M-25 1546v13h322l143 -230h-295zM123 0v1229h348v-1229h-348z" />
<glyph unicode="&#xcd;" horiz-adv-x="593" d="M123 0v1229h348v-1229h-348zM137 1329l170 230h326v-13l-178 -217h-318z" />
<glyph unicode="&#xce;" horiz-adv-x="593" d="M-66 1298l197 263h338l197 -263h-275l-92 115l-90 -115h-275zM123 0v1229h348v-1229h-348z" />
<glyph unicode="&#xcf;" horiz-adv-x="593" d="M-61 1470q0 63 46 106.5t115 43.5q66 0 112 -43.5t46 -106.5q0 -74 -45 -117.5t-113 -43.5q-72 0 -116.5 43t-44.5 118zM123 0v1229h348v-1229h-348zM344 1470q0 63 46 106.5t116 43.5q66 0 112 -43.5t46 -106.5q0 -74 -45.5 -117.5t-112.5 -43.5q-72 0 -117 43t-45 118z " />
<glyph unicode="&#xd0;" horiz-adv-x="1429" d="M80 508v240h147v481h439q332 0 516 -151.5t184 -444.5q0 -287 -186.5 -460t-511.5 -173h-441v508h-147zM563 291h105q170 0 260 89t90 245q0 150 -90 231.5t-262 81.5h-103v-190h185v-240h-185v-217z" />
<glyph unicode="&#xd1;" horiz-adv-x="1458" d="M121 0v1229h307l578 -688v688h340v-1229h-320l-573 692v-692h-332zM356 1343q-6 127 54.5 198t160.5 71q72 0 166 -33q74 -25 90 -25q53 0 47 66h199q8 -137 -48 -201.5t-159 -64.5q-51 0 -143 28q-86 29 -109 29q-49 0 -47 -68h-211z" />
<glyph unicode="&#xd2;" horiz-adv-x="1404" d="M39 618q0 266 194.5 451.5t466.5 185.5q274 0 470 -185t196 -452q0 -268 -195.5 -456.5t-470.5 -188.5q-272 0 -466.5 188.5t-194.5 456.5zM379 618q0 -145 93 -237t228 -92q141 0 229.5 91t88.5 238q0 141 -89 232.5t-229 91.5q-135 0 -228 -93.5t-93 -230.5zM385 1546 v13h322l143 -230h-295z" />
<glyph unicode="&#xd3;" horiz-adv-x="1404" d="M39 618q0 266 194.5 451.5t466.5 185.5q274 0 470 -185t196 -452q0 -268 -195.5 -456.5t-470.5 -188.5q-272 0 -466.5 188.5t-194.5 456.5zM379 618q0 -145 93 -237t228 -92q141 0 229.5 91t88.5 238q0 141 -89 232.5t-229 91.5q-135 0 -228 -93.5t-93 -230.5zM528 1329 l170 230h326v-13l-178 -217h-318z" />
<glyph unicode="&#xd4;" horiz-adv-x="1404" d="M39 618q0 266 194.5 451.5t466.5 185.5q274 0 470 -185t196 -452q0 -268 -195.5 -456.5t-470.5 -188.5q-272 0 -466.5 188.5t-194.5 456.5zM340 1298l197 263h337l197 -263h-274l-92 115l-91 -115h-274zM379 618q0 -145 93 -237t228 -92q141 0 229.5 91t88.5 238 q0 141 -89 232.5t-229 91.5q-135 0 -228 -93.5t-93 -230.5z" />
<glyph unicode="&#xd5;" horiz-adv-x="1404" d="M39 618q0 266 194.5 451.5t466.5 185.5q274 0 470 -185t196 -452q0 -268 -195.5 -456.5t-470.5 -188.5q-272 0 -466.5 188.5t-194.5 456.5zM340 1343q-6 127 54.5 198t160.5 71q72 0 166 -33q74 -25 90 -25q53 0 47 66h199q8 -137 -48.5 -201.5t-158.5 -64.5 q-51 0 -143 28q-86 29 -109 29q-49 0 -47 -68h-211zM379 618q0 -145 93 -237t228 -92q141 0 229.5 91t88.5 238q0 141 -89 232.5t-229 91.5q-135 0 -228 -93.5t-93 -230.5z" />
<glyph unicode="&#xd6;" horiz-adv-x="1404" d="M39 618q0 266 194.5 451.5t466.5 185.5q274 0 470 -185t196 -452q0 -268 -195.5 -456.5t-470.5 -188.5q-272 0 -466.5 188.5t-194.5 456.5zM340 1470q0 63 46 106.5t116 43.5q66 0 111.5 -43.5t45.5 -106.5q0 -74 -45 -117.5t-112 -43.5q-72 0 -117 43t-45 118zM379 618 q0 -145 93 -237t228 -92q141 0 229.5 91t88.5 238q0 141 -89 232.5t-229 91.5q-135 0 -228 -93.5t-93 -230.5zM745 1470q0 63 46.5 106.5t115.5 43.5q66 0 112 -43.5t46 -106.5q0 -74 -45 -117.5t-113 -43.5q-72 0 -117 43t-45 118z" />
<glyph unicode="&#xd7;" horiz-adv-x="1138" d="M106 184l279 273l-240 248l189 184l241 -248l244 236l185 -189l-242 -237l268 -275l-192 -184l-267 272l-276 -272z" />
<glyph unicode="&#xd8;" horiz-adv-x="1404" d="M39 618q0 266 194.5 451.5t466.5 185.5q113 0 218 -34l120 204h265l-183 -313q115 -88 180.5 -217t65.5 -277q0 -268 -195.5 -456.5t-470.5 -188.5q-106 0 -221 37l-110 -190h-269l176 303q-111 90 -174 219t-63 276zM379 618q0 -121 65 -208l310 528q-37 4 -54 4 q-135 0 -228 -93.5t-93 -230.5zM643 293q37 -4 57 -4q141 0 229.5 91t88.5 238q0 117 -66 205z" />
<glyph unicode="&#xd9;" horiz-adv-x="1333" d="M125 516v713h336v-715q0 -115 65.5 -169t153.5 -54q211 0 211 223v715h330v-713q0 -264 -147.5 -403.5t-393.5 -139.5q-238 0 -396.5 138.5t-158.5 404.5zM354 1544v12h322l143 -229h-295z" />
<glyph unicode="&#xda;" horiz-adv-x="1329" d="M121 516v713h336v-715q0 -115 65.5 -169t153.5 -54q211 0 211 223v715h330v-713q0 -264 -147.5 -403.5t-393.5 -139.5q-238 0 -396.5 138.5t-158.5 404.5zM508 1329l170 230h326v-13l-179 -217h-317z" />
<glyph unicode="&#xdb;" horiz-adv-x="1329" d="M121 516v713h336v-715q0 -115 65.5 -169t153.5 -54q211 0 211 223v715h330v-713q0 -264 -147.5 -403.5t-393.5 -139.5q-238 0 -396.5 138.5t-158.5 404.5zM313 1298l197 263h338l196 -263h-274l-92 115l-90 -115h-275z" />
<glyph unicode="&#xdc;" horiz-adv-x="1353" d="M121 516v713h336v-715q0 -115 65.5 -169t153.5 -54q211 0 211 223v715h330v-713q0 -264 -147.5 -403.5t-393.5 -139.5q-238 0 -396.5 138.5t-158.5 404.5zM311 1470q0 63 46 106.5t116 43.5q66 0 112 -43.5t46 -106.5q0 -74 -45 -117.5t-113 -43.5q-72 0 -117 43t-45 118 zM717 1470q0 63 46 106.5t116 43.5q66 0 111.5 -43.5t45.5 -106.5q0 -74 -45 -117.5t-112 -43.5q-72 0 -117 43t-45 118z" />
<glyph unicode="&#xdd;" horiz-adv-x="1331" d="M14 1229h385l275 -486l280 486h367l-479 -783v-446h-348v446zM512 1329l170 230h326v-13l-179 -217h-317z" />
<glyph unicode="&#xde;" horiz-adv-x="1171" d="M121 0v1413h336v-184h157q221 0 368.5 -119t147.5 -328q0 -199 -150.5 -324.5t-365.5 -125.5h-157v-332h-336zM457 616h147q82 0 137.5 47.5t55.5 122.5q0 78 -54.5 118t-138.5 40h-147v-328z" />
<glyph unicode="&#xdf;" horiz-adv-x="1304" d="M90 0v827q0 231 153.5 378t397.5 147q242 0 373 -96.5t131 -241.5q0 -47 -17.5 -89t-53.5 -76t-60.5 -52.5t-65.5 -44.5q-37 -23 -51 -33t-35.5 -26.5t-30 -29t-8.5 -24.5q0 -27 16.5 -41t49.5 -29l131 -59q225 -90 225 -250q0 -127 -103.5 -207t-273.5 -80 q-242 0 -389 123l115 193q119 -90 248 -90q100 0 100 41q0 20 -13.5 32.5t-49.5 28.5l-154 61q-98 39 -163.5 103.5t-65.5 152.5q0 133 153 230q6 4 23.5 15t25 15.5t22.5 14.5t21.5 15t18.5 14.5t17 16.5t11.5 16.5t8.5 17.5t2 16q0 49 -42 77t-116 28q-96 0 -155.5 -68.5 t-59.5 -191.5v-834h-336z" />
<glyph unicode="&#xe0;" horiz-adv-x="1034" d="M72 264q0 127 111.5 206t308.5 79q41 0 163 -12v12q0 111 -202 110q-168 0 -297 -61v231q141 59 327 60q236 0 358 -98.5t122 -268.5v-522h-293v61q-92 -80 -244 -79q-164 0 -259 75.5t-95 206.5zM104 1313v10h310l254 -332h-285zM401 276q0 -43 33 -68.5t80 -25.5 q92 0 141 72v113q-59 10 -106 10q-72 0 -110 -27.5t-38 -73.5z" />
<glyph unicode="&#xe1;" horiz-adv-x="1034" d="M66 264q0 127 111.5 206t307.5 79q41 0 164 -12v12q0 111 -203 110q-168 0 -296 -61v231q141 59 327 60q236 0 357.5 -98.5t121.5 -268.5v-522h-292v61q-94 -80 -244 -79q-164 0 -259 75.5t-95 206.5zM358 993l254 332h310v-10l-279 -322h-285zM395 276q0 -43 33 -68.5 t80 -25.5q90 0 141 72v113q-59 10 -106 10q-72 0 -110 -27.5t-38 -73.5z" />
<glyph unicode="&#xe2;" horiz-adv-x="1034" d="M59 264q0 127 112 206t308 79q41 0 164 -12v12q0 111 -203 110q-168 0 -297 -61v231q141 59 328 60q236 0 357.5 -98.5t121.5 -268.5v-522h-293v61q-92 -80 -243 -79q-164 0 -259.5 75.5t-95.5 206.5zM117 999l248 326h329l248 -326h-285l-129 156l-127 -156h-284z M389 276q0 -43 33 -68.5t80 -25.5q92 0 141 72v113q-59 10 -106 10q-72 0 -110 -27.5t-38 -73.5z" />
<glyph unicode="&#xe3;" horiz-adv-x="1034" d="M53 264q0 127 111.5 206t308.5 79q41 0 164 -12v12q0 111 -203 110q-168 0 -297 -61v231q141 59 328 60q236 0 357.5 -98.5t121.5 -268.5v-522h-293v61q-94 -80 -243 -79q-164 0 -259.5 75.5t-95.5 206.5zM156 1049q-6 127 54 197.5t161 70.5q72 0 166 -33q74 -25 90 -24 q53 0 47 65h198q8 -137 -48 -201.5t-158 -64.5q-51 0 -144 28q-86 29 -108 29q-49 1 -47 -67h-211zM383 276q0 -43 33 -68.5t80 -25.5q90 0 141 72v113q-59 10 -107 10q-72 0 -109.5 -27.5t-37.5 -73.5z" />
<glyph unicode="&#xe4;" horiz-adv-x="1034" d="M55 264q0 127 112 206t308 79q41 0 164 -12v12q0 111 -203 110q-168 0 -297 -61v231q141 59 328 60q236 0 357.5 -98.5t121.5 -268.5v-522h-293v61q-92 -80 -243 -79q-164 0 -259.5 75.5t-95.5 206.5zM170 1167q0 63 46 106.5t116 43.5q66 0 111.5 -43.5t45.5 -106.5 q0 -74 -45 -117.5t-112 -43.5q-72 0 -117 43t-45 118zM385 276q0 -43 33 -68.5t80 -25.5q92 0 141 72v113q-59 10 -107 10q-72 0 -109.5 -27.5t-37.5 -73.5zM575 1167q0 63 46.5 106.5t115.5 43.5q66 0 112 -43.5t46 -106.5q0 -74 -45 -117.5t-113 -43.5q-72 0 -117 43 t-45 118z" />
<glyph unicode="&#xe5;" horiz-adv-x="1034" d="M51 264q0 127 111.5 206t308.5 79q41 0 164 -12v12q0 111 -203 110q-168 0 -297 -61v231q141 59 328 60q236 0 357.5 -98.5t121.5 -268.5v-522h-293v61q-92 -80 -243 -79q-164 0 -259.5 75.5t-95.5 206.5zM291 1178q0 90 65.5 149t159.5 59q92 0 156.5 -59t64.5 -149 q0 -102 -63.5 -163t-157.5 -61q-96 0 -160.5 60.5t-64.5 163.5zM381 276q0 -43 32.5 -68.5t80.5 -25.5q92 0 141 72v113q-59 10 -107 10q-72 0 -109.5 -27.5t-37.5 -73.5zM455 1171q0 -27 17 -43t44 -16q25 0 42 16t17 43q0 25 -17 41.5t-42 16.5q-27 0 -44 -16.5t-17 -41.5 z" />
<glyph unicode="&#xe6;" horiz-adv-x="1626" d="M59 264q0 127 116 206t314 79q41 0 164 -12v12q0 117 -202 117q-168 0 -297 -62v225q141 59 319 60q223 0 348 -103q117 104 279 105q217 0 344 -140.5t123 -400.5h-598q14 -57 64 -92t122 -35q137 0 221 88l152 -198q-160 -137 -379 -138q-238 0 -375 156 q-125 -150 -350 -149q-164 0 -264.5 75.5t-100.5 206.5zM377 272q0 -41 33.5 -65.5t81.5 -24.5q122 1 161 103v82q-59 10 -125 10q-152 0 -151 -105zM971 526h280q-4 63 -40 103.5t-99 40.5q-59 0 -98 -42t-43 -102z" />
<glyph unicode="&#xe7;" horiz-adv-x="968" d="M43 442q0 186 137 316.5t342 130.5q229 0 385 -174l-227 -199q-57 82 -152 82q-61 0 -110 -45t-49 -113q0 -72 48 -114.5t111 -42.5q103 0 162 88l240 -187q-150 -203 -406 -202q-205 0 -343 133t-138 327zM303 -281q59 -12 121 -12q100 0 100 49q0 37 -71 37 q-47 0 -82 -6l-21 121q57 16 137 16q94 0 153.5 -42t59.5 -118q0 -82 -65.5 -132t-177.5 -50q-72 0 -123 10z" />
<glyph unicode="&#xe8;" horiz-adv-x="1015" d="M57 440q0 184 131 316.5t320 132.5q219 0 348 -142.5t115 -400.5h-596q14 -57 67.5 -90t122.5 -33q129 0 201 84l164 -180q-145 -145 -373 -145q-215 0 -357.5 127t-142.5 331zM111 1315v10h309l254 -332h-285zM377 530h274q-4 57 -40 98.5t-97 41.5q-55 0 -94 -41 t-43 -99z" />
<glyph unicode="&#xe9;" horiz-adv-x="1015" d="M57 440q0 184 131 316.5t320 132.5q219 0 348 -142.5t115 -400.5h-596q14 -57 67.5 -90t122.5 -33q129 0 201 84l164 -180q-145 -145 -373 -145q-215 0 -357.5 127t-142.5 331zM373 993l254 332h309v-10l-279 -322h-284zM377 530h274q-4 57 -40 98.5t-97 41.5 q-55 0 -94 -41t-43 -99z" />
<glyph unicode="&#xea;" horiz-adv-x="1015" d="M57 440q0 184 131 316.5t320 132.5q219 0 348 -142.5t115 -400.5h-596q14 -57 67.5 -90t122.5 -33q129 0 201 84l164 -180q-145 -145 -373 -145q-215 0 -357.5 127t-142.5 331zM111 999l247 326h330l248 -326h-285l-129 156l-127 -156h-284zM377 530h274q-4 57 -40 98.5 t-97 41.5q-55 0 -94 -41t-43 -99z" />
<glyph unicode="&#xeb;" horiz-adv-x="1015" d="M53 440q0 184 131 316.5t320 132.5q219 0 348 -142.5t115 -400.5h-596q14 -57 67.5 -90t122.5 -33q129 0 201 84l164 -180q-145 -145 -373 -145q-215 0 -357.5 127t-142.5 331zM162 1167q0 63 46 106.5t116 43.5q66 0 111.5 -43.5t45.5 -106.5q0 -74 -45 -117.5 t-112 -43.5q-72 0 -117 43t-45 118zM373 530h274q-4 57 -40 98.5t-97 41.5q-55 0 -94 -41t-43 -99zM567 1167q0 63 46 106.5t116 43.5q66 0 112 -43.5t46 -106.5q0 -74 -45 -117.5t-113 -43.5q-72 0 -117 43t-45 118z" />
<glyph unicode="&#xec;" horiz-adv-x="593" d="M-125 1346v10h309l254 -332h-284zM131 0v870h336v-870h-336z" />
<glyph unicode="&#xed;" horiz-adv-x="593" d="M131 0v870h336v-870h-336zM152 993l254 332h309v-10l-279 -322h-284z" />
<glyph unicode="&#xee;" horiz-adv-x="593" d="M-113 999l248 326h330l248 -326h-285l-129 156l-127 -156h-285zM131 0v870h336v-870h-336z" />
<glyph unicode="&#xef;" horiz-adv-x="593" d="M-61 1167q0 63 46 106.5t115 43.5q66 0 112 -43.5t46 -106.5q0 -74 -45 -117.5t-113 -43.5q-72 0 -116.5 43t-44.5 118zM131 0v870h336v-870h-336zM344 1167q0 63 46 106.5t116 43.5q66 0 112 -43.5t46 -106.5q0 -74 -45.5 -117.5t-112.5 -43.5q-72 0 -117 43t-45 118z " />
<glyph unicode="&#xf0;" horiz-adv-x="1095" d="M78 401q0 184 114.5 298t307.5 114q162 0 245 -78q-2 90 -49 156l-80 -64l-98 119l41 33q-27 8 -65 8q-119 0 -215 -59l-132 225q147 102 371 102q168 0 291 -77l80 63l102 -117l-67 -53q137 -176 137 -491q0 -162 -43 -284t-117 -189.5t-160 -100.5t-182 -33 q-217 0 -349 120t-132 308zM395 406q0 -68 45 -112t113 -44t114 44t46 114q0 68 -45 109.5t-115 41.5q-72 0 -115 -42t-43 -111z" />
<glyph unicode="&#xf1;" horiz-adv-x="1167" d="M123 0h336v516q59 72 145 72q53 0 87 -32t34 -99v-457h336v545q0 174 -92 259t-250 85t-283 -119v100h-313v-870zM225 1049q-6 127 54.5 197.5t160.5 70.5q72 0 166 -33q74 -25 90 -24q53 0 47 65h199q8 -137 -48 -201.5t-159 -64.5q-51 0 -143 28q-86 29 -109 29 q-49 1 -47 -67h-211z" />
<glyph unicode="&#xf2;" horiz-adv-x="1042" d="M55 436q0 190 135.5 321.5t334 131.5t334.5 -132t136 -320.5t-137 -321.5t-333.5 -133t-333 133t-136.5 321zM121 1346v10h309l254 -332h-285zM391 440q0 -74 37 -113.5t96.5 -39.5t96 40t36.5 113q0 70 -36.5 112t-96.5 42q-57 0 -95 -42t-38 -112z" />
<glyph unicode="&#xf3;" horiz-adv-x="1038" d="M57 436q0 190 135.5 321.5t334 131.5t334.5 -132t136 -320.5t-137 -321.5t-333.5 -133t-333 133t-136.5 321zM379 993l254 332h309v-10l-278 -322h-285zM393 440q0 -74 37 -113.5t96.5 -39.5t96 40t36.5 113q0 70 -36.5 112t-96.5 42q-57 0 -95 -42t-38 -112z" />
<glyph unicode="&#xf4;" horiz-adv-x="1038" d="M57 436q0 190 135.5 321.5t334 131.5t334.5 -132t136 -320.5t-137 -321.5t-333.5 -133t-333 133t-136.5 321zM115 999l247 326h330l248 -326h-285l-129 156l-127 -156h-284zM393 440q0 -74 37 -113.5t96.5 -39.5t96 40t36.5 113q0 70 -36.5 112t-96.5 42q-57 0 -95 -42 t-38 -112z" />
<glyph unicode="&#xf5;" horiz-adv-x="1038" d="M57 436q0 190 135.5 321.5t334 131.5t334.5 -132t136 -320.5t-137 -321.5t-333.5 -133t-333 133t-136.5 321zM168 1049q-6 127 54.5 197.5t160.5 70.5q72 0 166 -33q74 -25 90 -24q53 0 47 65h199q8 -137 -48.5 -201.5t-158.5 -64.5q-51 0 -143 28q-86 29 -109 29 q-49 1 -47 -67h-211zM393 440q0 -74 37 -113.5t96.5 -39.5t96 40t36.5 113q0 70 -36.5 112t-96.5 42q-57 0 -95 -42t-38 -112z" />
<glyph unicode="&#xf6;" horiz-adv-x="1038" d="M57 436q0 190 135.5 321.5t334 131.5t334.5 -132t136 -320.5t-137 -321.5t-333.5 -133t-333 133t-136.5 321zM168 1167q0 63 46 106.5t116 43.5q66 0 111.5 -43.5t45.5 -106.5q0 -74 -45 -117.5t-112 -43.5q-72 0 -117 43t-45 118zM393 440q0 -74 37 -113.5t96.5 -39.5 t96 40t36.5 113q0 70 -36.5 112t-96.5 42q-57 0 -95 -42t-38 -112zM573 1167q0 63 46.5 106.5t115.5 43.5q66 0 112 -43.5t46 -106.5q0 -74 -45 -117.5t-113 -43.5q-72 0 -117 43t-45 118z" />
<glyph unicode="&#xf7;" horiz-adv-x="1191" d="M166 367v292h860v-292h-860zM410 139q0 74 54 123t134 49q76 0 129 -49t53 -123q0 -86 -52 -136t-130 -50q-80 0 -134 50t-54 136zM410 858q0 74 54 123t134 49q76 0 129 -49t53 -123q0 -86 -52 -136t-130 -50q-80 0 -134 50t-54 136z" />
<glyph unicode="&#xf8;" horiz-adv-x="1038" d="M57 436q0 190 135.5 321.5t333.5 131.5q98 0 185 -35l108 182h117l-135 -231q90 -63 143 -159.5t53 -209.5q0 -188 -137 -321t-334 -133q-98 0 -186 34l-115 -196h-121l146 248q-90 61 -141.5 158t-51.5 210zM393 440q0 -59 21 -92l143 242q-20 4 -31 4q-57 0 -95 -42 t-38 -112zM500 289q8 -2 26 -2q59 0 96 39.5t37 113.5q0 47 -20 88z" />
<glyph unicode="&#xf9;" horiz-adv-x="1167" d="M119 326q0 -174 92 -259t249.5 -85t282.5 118v-100h314v870h-336v-516q-59 -72 -146 -71q-53 0 -86.5 31.5t-33.5 99.5v456h-336v-544zM176 1315v10h309l254 -332h-284z" />
<glyph unicode="&#xfa;" horiz-adv-x="1167" d="M115 326q0 -174 92 -259t249.5 -85t282.5 118v-100h314v870h-336v-516q-59 -72 -146 -71q-53 0 -86.5 31.5t-33.5 99.5v456h-336v-544zM442 993l254 332h310v-10l-279 -322h-285z" />
<glyph unicode="&#xfb;" horiz-adv-x="1167" d="M117 326q0 -174 92 -259t249.5 -85t282.5 118v-100h314v870h-336v-516q-59 -72 -146 -71q-53 0 -86.5 31.5t-33.5 99.5v456h-336v-544zM176 999l248 326h330l247 -326h-284l-129 156l-127 -156h-285z" />
<glyph unicode="&#xfc;" horiz-adv-x="1167" d="M117 326q0 -174 92 -259t249.5 -85t282.5 118v-100h314v870h-336v-516q-59 -72 -146 -71q-53 0 -86.5 31.5t-33.5 99.5v456h-336v-544zM225 1167q0 63 46 106.5t116 43.5q66 0 112 -43.5t46 -106.5q0 -74 -45 -117.5t-113 -43.5q-72 0 -117 43t-45 118zM631 1167 q0 63 46 106.5t116 43.5q66 0 111.5 -43.5t45.5 -106.5q0 -74 -45 -117.5t-112 -43.5q-72 0 -117 43t-45 118z" />
<glyph unicode="&#xfd;" horiz-adv-x="1105" d="M14 870h367l172 -432l184 432h359l-656 -1325h-358l293 570zM399 993l254 332h310v-10l-279 -322h-285z" />
<glyph unicode="&#xfe;" horiz-adv-x="1128" d="M111 -455v1780h335v-459q80 23 162 23q197 0 336 -128t139 -323q0 -207 -136 -331.5t-316 -124.5q-104 0 -185 47v-484h-335zM446 303q41 -47 127 -47q68 0 118 47t50 139q0 82 -54 130.5t-128 48.5q-58 -1 -113 -21v-297z" />
<glyph unicode="&#xff;" horiz-adv-x="1105" d="M14 870h367l172 -432l184 432h359l-656 -1325h-358l293 570zM193 1167q0 63 46 106.5t115 43.5q66 0 112 -43.5t46 -106.5q0 -74 -45 -117.5t-113 -43.5q-72 0 -116.5 43t-44.5 118zM598 1167q0 63 46 106.5t116 43.5q66 0 112 -43.5t46 -106.5q0 -74 -45.5 -117.5 t-112.5 -43.5q-72 0 -117 43t-45 118z" />
<glyph unicode="&#x152;" horiz-adv-x="1984" d="M41 625q0 266 194.5 451.5t466.5 185.5q199 0 357 -109v76h868v-291h-532v-184h501v-275h-501v-188h530v-291h-866v88q-158 -109 -357 -108q-272 0 -466.5 188t-194.5 457zM381 625q0 -145 93 -237.5t228 -92.5q141 0 229.5 91t88.5 239q0 141 -89 232t-229 91 q-135 0 -228 -93t-93 -230z" />
<glyph unicode="&#x153;" horiz-adv-x="1648" d="M57 434q0 190 135.5 321.5t333.5 131.5q178 0 308 -117q125 119 294 119q217 0 344 -140.5t123 -400.5h-598q14 -57 64.5 -92t122.5 -35q137 0 221 88l151 -198q-160 -137 -378 -138q-207 0 -342 129q-123 -123 -310 -122q-197 0 -333 133t-136 321zM391 434 q0 -72 39 -112.5t98 -40.5q61 0 99.5 39.5t38.5 113.5q0 70 -39 112t-99 42q-57 0 -97 -42t-40 -112zM999 524h281q-4 63 -40 103.5t-99 40.5q-59 0 -98 -42t-44 -102z" />
<glyph unicode="&#x178;" horiz-adv-x="1331" d="M14 1229h385l275 -486l280 486h367l-479 -783v-446h-348v446zM309 1470q0 63 46 106.5t116 43.5q66 0 112 -43.5t46 -106.5q0 -74 -45 -117.5t-113 -43.5q-72 0 -117 43t-45 118zM715 1470q0 63 46 106.5t116 43.5q66 0 111.5 -43.5t45.5 -106.5q0 -74 -45 -117.5 t-112 -43.5q-72 0 -117 43t-45 118z" />
<glyph unicode="&#x2c6;" horiz-adv-x="1513" d="M346 999l248 326h330l247 -326h-284l-129 156l-127 -156h-285z" />
<glyph unicode="&#x2dc;" horiz-adv-x="1513" d="M393 1049q-6 127 54.5 197.5t160.5 70.5q72 0 166 -33q74 -25 90 -24q53 0 47 65h199q8 -137 -48 -201.5t-159 -64.5q-51 0 -143 28q-86 29 -109 29q-49 1 -47 -67h-211z" />
<glyph unicode="&#x2000;" horiz-adv-x="856" />
<glyph unicode="&#x2001;" horiz-adv-x="1712" />
<glyph unicode="&#x2002;" horiz-adv-x="856" />
<glyph unicode="&#x2003;" horiz-adv-x="1712" />
<glyph unicode="&#x2004;" horiz-adv-x="570" />
<glyph unicode="&#x2005;" horiz-adv-x="428" />
<glyph unicode="&#x2006;" horiz-adv-x="285" />
<glyph unicode="&#x2007;" horiz-adv-x="285" />
<glyph unicode="&#x2008;" horiz-adv-x="214" />
<glyph unicode="&#x2009;" horiz-adv-x="342" />
<glyph unicode="&#x200a;" horiz-adv-x="95" />
<glyph unicode="&#x2010;" d="M193 362v293h706v-293h-706z" />
<glyph unicode="&#x2011;" d="M193 362v293h706v-293h-706z" />
<glyph unicode="&#x2012;" d="M193 362v293h706v-293h-706z" />
<glyph unicode="&#x2013;" horiz-adv-x="1050" d="M70 362v293h919v-293h-919z" />
<glyph unicode="&#x2014;" horiz-adv-x="1781" d="M102 362v293h1581v-293h-1581z" />
<glyph unicode="&#x2018;" horiz-adv-x="473" d="M-84 1325h313l213 -549h-305z" />
<glyph unicode="&#x2019;" horiz-adv-x="552" d="M53 776l213 549h314l-222 -549h-305z" />
<glyph unicode="&#x201a;" horiz-adv-x="507" d="M-2 -330l213 549h313l-221 -549h-305z" />
<glyph unicode="&#x201c;" horiz-adv-x="962" d="M-37 1325h313l213 -549h-305zM346 1325h313l213 -549h-305z" />
<glyph unicode="&#x201d;" horiz-adv-x="995" d="M113 776l213 549h313l-221 -549h-305zM496 776l213 549h313l-221 -549h-305z" />
<glyph unicode="&#x201e;" horiz-adv-x="858" d="M8 -330l213 549h314l-222 -549h-305zM391 -330l213 549h314l-222 -549h-305z" />
<glyph unicode="&#x2022;" horiz-adv-x="972" d="M152 534.5q0 137.5 102 234.5t241.5 97t241 -97t101.5 -234.5t-101.5 -235.5t-240.5 -98q-141 0 -242.5 98t-101.5 235.5z" />
<glyph unicode="&#x2026;" horiz-adv-x="1552" d="M121 160q0 74 54 123t134 49q76 0 129.5 -49t53.5 -123q0 -86 -52.5 -136.5t-130.5 -50.5q-80 0 -134 50.5t-54 136.5zM590 160q0 74 54 123t134 49q76 0 129.5 -49t53.5 -123q0 -86 -52.5 -136.5t-130.5 -50.5q-80 0 -134 50.5t-54 136.5zM1059 160q0 74 54 123t134 49 q76 0 129.5 -49t53.5 -123q0 -86 -52.5 -136.5t-130.5 -50.5q-80 0 -134 50.5t-54 136.5z" />
<glyph unicode="&#x202f;" horiz-adv-x="342" />
<glyph unicode="&#x2039;" horiz-adv-x="755" d="M102 449l254 411h326l-248 -411l248 -406h-326z" />
<glyph unicode="&#x203a;" horiz-adv-x="735" d="M106 43l248 406l-248 411h326l254 -411l-254 -406h-326z" />
<glyph unicode="&#x205f;" horiz-adv-x="428" />
<glyph unicode="&#x20ac;" horiz-adv-x="1351" d="M82 399v170h168q-2 18 -2 56q0 35 2 51h-168v170h207q72 184 247 296.5t390 112.5q156 0 303 -61v-291q-127 74 -275 74q-188 0 -286 -131h436v-170h-498q-2 -16 -2 -49q0 -39 2 -58h498v-170h-432q98 -133 282 -133q168 0 275 76v-305q-123 -63 -305 -64 q-217 0 -392.5 116t-244.5 310h-205z" />
<glyph unicode="&#x2122;" horiz-adv-x="1630" d="M133 1184v141h572v-141h-205v-459h-164v459h-203zM805 727v598h172l166 -229l172 229h160v-598h-164v346l-174 -217h-4l-164 217v-346h-164z" />
<glyph unicode="&#x25fc;" horiz-adv-x="870" d="M0 0v870h870v-870h-870z" />
</font>
</defs>
</svg>
