<?xml version="1.0" standalone="no"?>
<!DOCTYPE svg PUBLIC "-//W3C//DTD SVG 1.1//EN" "http://www.w3.org/Graphics/SVG/1.1/DTD/svg11.dtd" >
<svg xmlns="http://www.w3.org/2000/svg">
<metadata></metadata>
<defs>
<font id="excellence_in_motion_v4medium" horiz-adv-x="1536" >
<font-face units-per-em="2048" ascent="1638" descent="-410" />
<missing-glyph horiz-adv-x="552" />
<glyph unicode="&#xfb01;" horiz-adv-x="1095" d="M49 698v172h166v97q0 162 101.5 260t252.5 98q76 0 123 -20v-168q-41 16 -102 16q-74 0 -119 -47t-45 -131v-105h563v-870h-211v698h-352v-698h-211v698h-166zM752 1190q0 53 38.5 91t96 38t96.5 -38t39 -91q0 -59 -39 -97t-96.5 -38t-96 37.5t-38.5 97.5z" />
<glyph unicode="&#xfb02;" horiz-adv-x="1208" d="M49 698v172h166v74q0 166 112.5 273.5t290.5 107.5q100 0 181 -35v-170q-63 31 -152 31q-100 0 -160.5 -58.5t-60.5 -154.5v-68h319v-172h-319v-698h-211v698h-166zM883 0v1325h211v-1325h-211z" />
<glyph unicode="&#xfb03;" horiz-adv-x="1628" d="M49 698v172h166v97q0 162 101.5 260t252.5 98q76 0 123 -20v-168q-41 16 -102 16q-74 0 -119 -47t-45 -131v-105h324v97q0 162 101 260t253 98q76 0 123 -20v-168q-41 16 -103 16q-74 0 -118.5 -47t-44.5 -131v-105h563v-870h-211v698h-352v-698h-211v698h-324v-698h-211 v698h-166zM1284 1190q0 53 39 91t96.5 38t96 -38t38.5 -91q0 -59 -38.5 -97t-96 -38t-96.5 37.5t-39 97.5z" />
<glyph unicode="&#xfb04;" horiz-adv-x="1830" d="M49 698v172h166v74q0 166 112.5 273.5t290.5 107.5q100 0 181 -35v-170q-63 31 -152 31q-100 0 -160.5 -58.5t-60.5 -154.5v-68h420v74q0 166 112.5 273.5t290.5 107.5q100 0 181 -35v-170q-63 31 -152 31q-100 0 -160.5 -58.5t-60.5 -154.5v-68h319v-172h-319v-698h-211 v698h-420v-698h-211v698h-166zM1511 0v1325h211v-1325h-211z" />
<glyph horiz-adv-x="0" />
<glyph unicode="&#xd;" horiz-adv-x="681" />
<glyph unicode=" "  horiz-adv-x="552" />
<glyph unicode="&#x09;" horiz-adv-x="552" />
<glyph unicode="&#xa0;" horiz-adv-x="552" />
<glyph unicode="!" horiz-adv-x="575" d="M152 106q0 55 38.5 93.5t96 38.5t96.5 -38.5t39 -93.5q0 -59 -39 -96t-96.5 -37t-96 37t-38.5 96zM182 1229h211l-8 -871h-195z" />
<glyph unicode="&#x22;" horiz-adv-x="886" d="M82 776l211 549h211l-213 -549h-209zM442 776l211 549h211l-213 -549h-209z" />
<glyph unicode="#" horiz-adv-x="1507" d="M113 332v172h256l82 287h-338v172h387l98 340h199l-95 -340h279l98 340h199l-96 -340h202v-172h-251l-80 -287h331v-172h-380l-95 -332h-202l94 332h-279l-94 -332h-203l94 332h-206zM571 504h279l82 287h-281z" />
<glyph unicode="$" horiz-adv-x="1169" d="M129 141l107 164q154 -143 348 -143q109 0 171 43t62 114q0 99 -129 154l-282 117q-262 109 -263 325q0 123 95.5 214.5t250.5 117.5v166h199v-164q178 -25 320 -147l-111 -141q-125 115 -293 114q-111 0 -172 -44t-61 -111q0 -55 33.5 -90t99.5 -62l284 -117 q262 -111 263 -327q0 -131 -100.5 -225.5t-262.5 -116.5v-215h-199v215q-229 35 -360 159z" />
<glyph unicode="%" horiz-adv-x="1671" d="M172 1046.5q0 116.5 86 197.5t209 81q121 0 206 -81t85 -197.5t-85 -199.5t-206 -83t-208 83t-87 199.5zM182 0l1057 1303h244l-1051 -1303h-250zM334 1046.5q0 -55.5 39 -95.5t94 -40q53 0 91 40.5t38 95.5q0 53 -38 92t-91 39q-57 0 -95 -38t-38 -93.5zM899 264 q0 117 86 198t209 81q121 0 206 -81t85 -198t-85 -199.5t-206 -82.5t-208 82.5t-87 199.5zM1061 264q0 -55 39 -95t94 -40q53 0 91 40t38 95q0 53 -38 92t-91 39q-55 0 -94 -38t-39 -93z" />
<glyph unicode="&#x26;" horiz-adv-x="1298" d="M102 297q0 100 69 180t214 189q-119 119 -149 165q-41 68 -41 142q0 121 100 201.5t246 80.5q143 0 239.5 -78.5t96.5 -197.5q0 -90 -52.5 -163t-173.5 -165l271 -276q51 55 84 106l143 -106q-55 -78 -105 -129l222 -228v-18h-228l-125 123q-174 -150 -393 -150 q-186 0 -302 88.5t-116 235.5zM313 303q0 -72 57.5 -115t149.5 -43q152 0 271 107l-283 287q-111 -78 -153 -128.5t-42 -107.5zM389 977q0 -14 3 -27.5t6 -24t13.5 -24.5t15.5 -21.5t21.5 -23.5t22.5 -22.5t27.5 -27t27.5 -26.5q88 68 123 109t35 88q0 53 -43 90t-102 37 q-68 0 -109 -37t-41 -90z" />
<glyph unicode="'" horiz-adv-x="530" d="M82 776l211 549h211l-213 -549h-209z" />
<glyph unicode="(" horiz-adv-x="778" d="M148 631q-3 422 221 760h221q-474 -746 18 -1553h-221q-236 371 -239 793z" />
<glyph unicode=")" horiz-adv-x="780" d="M158 -162q492 807 18 1553h221q223 -338 220.5 -760t-238.5 -793h-221z" />
<glyph unicode="*" horiz-adv-x="786" d="M80 1061l57 145l178 -73l-8 192h160l-6 -192l182 75l57 -147l-190 -68l117 -155l-129 -95l-109 166l-113 -157l-124 90l114 151z" />
<glyph unicode="+" horiz-adv-x="1175" d="M119 385v184h358v367h215v-367h361v-184h-361v-385h-215v385h-358z" />
<glyph unicode="," horiz-adv-x="491" d="M31 -330l211 549h211l-213 -549h-209z" />
<glyph unicode="-" horiz-adv-x="1101" d="M215 410v202h676v-202h-676z" />
<glyph unicode="." horiz-adv-x="636" d="M182 109q0 53 39 91t96.5 38t96.5 -38t39 -91q0 -59 -39 -97.5t-96.5 -38.5t-96.5 38t-39 98z" />
<glyph unicode="/" horiz-adv-x="1351" d="M109 -180l938 1605h225l-934 -1605h-229z" />
<glyph unicode="0" horiz-adv-x="1267" d="M90 621q0 279 148.5 456.5t390.5 177.5q244 0 393 -177.5t149 -456.5q0 -295 -147 -471.5t-395 -176.5q-244 0 -391.5 176.5t-147.5 471.5zM305 618q0 -213 87 -331.5t235 -118.5q154 0 240.5 117.5t86.5 332.5q0 205 -87 324t-240 119q-147 0 -234.5 -120t-87.5 -323z " />
<glyph unicode="1" horiz-adv-x="919" d="M74 827l458 402h226v-1229h-219v979l-342 -297z" />
<glyph unicode="2" horiz-adv-x="1067" d="M90 1063q84 84 197.5 138t230.5 54q197 0 309.5 -96t112.5 -260q0 -76 -47 -164t-89 -136t-126 -136l-279 -283h553v-180h-837v168l411 403q205 201 205 320q0 86 -57.5 135t-163.5 49q-160 0 -309 -153z" />
<glyph unicode="3" horiz-adv-x="1062" d="M92 117l94 153q125 -113 306 -112q115 0 186.5 57t71.5 145q0 86 -72 141.5t-189 55.5h-143v164h141q106 0 169 54t63 132q0 76 -61.5 125t-168.5 49q-154 0 -290 -112l-93 143q80 63 186.5 103t209.5 40q193 0 309.5 -95t116.5 -236q0 -176 -180 -277 q90 -35 152.5 -111.5t62.5 -189.5q0 -158 -131.5 -265.5t-333.5 -107.5q-106 0 -217 38t-189 106z" />
<glyph unicode="4" horiz-adv-x="1247" d="M78 408l631 821h264v-819h184v-172h-184v-238h-199v238h-612zM307 410h467v616z" />
<glyph unicode="5" horiz-adv-x="1105" d="M98 123l99 153q143 -120 313 -120q129 0 208 66.5t79 176.5q0 104 -85 167t-216 63q-150 0 -269 -51l-86 81l88 570h670v-170h-491l-43 -283q66 18 178 19q201 0 332 -107.5t131 -288.5q0 -188 -137.5 -307t-354.5 -119q-106 0 -220 41t-196 109z" />
<glyph unicode="6" horiz-adv-x="1107" d="M84 567q0 350 143.5 519t390.5 169q195 0 338 -94l-92 -155q-102 72 -237 71q-150 0 -238 -95t-96 -282q100 117 291 117q197 0 320.5 -116t123.5 -302q0 -184 -131 -305t-338 -121q-209 0 -342 143.5t-133 450.5zM311 403q0 -111 73 -180t179 -69q111 0 183.5 70.5 t72.5 176.5q0 113 -70.5 177.5t-185.5 64.5q-109 0 -180.5 -65.5t-71.5 -174.5z" />
<glyph unicode="7" horiz-adv-x="1038" d="M92 1038v191h846v-174l-520 -1055h-242l526 1038h-610z" />
<glyph unicode="8" horiz-adv-x="1179" d="M113 346q0 121 70.5 200t160.5 116q-72 35 -128 103.5t-56 170.5q0 137 121.5 228t312.5 91q197 0 315.5 -90t118.5 -229q0 -102 -54 -171t-128 -103q92 -35 160.5 -115t68.5 -201q0 -172 -135 -272.5t-346 -100.5q-199 0 -340 101.5t-141 271.5zM334 350 q0 -92 74.5 -151.5t185.5 -59.5q115 0 185.5 59.5t70.5 151.5t-69.5 154.5t-186.5 62.5q-115 0 -187.5 -62.5t-72.5 -154.5zM373 928q0 -76 59.5 -130.5t161.5 -54.5q100 0 163.5 54.5t63.5 130.5q0 70 -58 121t-169 51q-106 0 -163.5 -51t-57.5 -121z" />
<glyph unicode="9" horiz-adv-x="1081" d="M70 829q0 184 131 305t338 121q209 0 342 -143t133 -450q0 -350 -143.5 -519.5t-391.5 -169.5q-195 0 -338 95l92 155q102 -72 238 -71q150 0 238 95t96 281q-100 -117 -291 -116q-197 0 -320.5 115.5t-123.5 301.5zM279 827q0 -113 70.5 -177t185.5 -64q109 0 180 65.5 t71 173.5q0 111 -72.5 180.5t-178.5 69.5q-111 0 -183.5 -70.5t-72.5 -177.5z" />
<glyph unicode=":" horiz-adv-x="636" d="M182 109q0 53 39 91t96.5 38t96.5 -38t39 -91q0 -59 -39 -97.5t-96.5 -38.5t-96.5 38t-39 98zM182 760q0 53 39 91t96.5 38t96.5 -38t39 -91q0 -59 -39 -97t-96.5 -38t-96.5 37.5t-39 97.5z" />
<glyph unicode=";" horiz-adv-x="561" d="M31 -330l211 549h211l-213 -549h-209zM207 760q0 53 39 91t96 38t96 -38t39 -91q0 -59 -39 -97t-96 -38t-96 37.5t-39 97.5z" />
<glyph unicode="&#x3c;" horiz-adv-x="1177" d="M154 524v170l610 512h291l-719 -600l719 -606h-291z" />
<glyph unicode="=" horiz-adv-x="1263" d="M199 113v188h860v-188h-860zM199 606v189h860v-189h-860z" />
<glyph unicode="&#x3e;" horiz-adv-x="1200" d="M135 0l719 606l-719 600h291l610 -512v-170l-610 -524h-291z" />
<glyph unicode="?" horiz-adv-x="1024" d="M104 1071q72 78 179.5 131t224.5 53q186 0 300 -91t114 -230q0 -20 -4.5 -41t-8.5 -38t-16 -37.5t-18.5 -34t-25 -36t-25.5 -31.5t-29.5 -33t-29.5 -30t-33.5 -32.5t-31.5 -30.5q-96 -90 -96 -172v-76h-198v74q0 80 24.5 134t89.5 118q14 14 52 50t54.5 53t40 46t33 53.5 t9.5 49.5q0 156 -207 155q-150 0 -281 -139zM371 106q0 55 39 93.5t96 38.5q55 0 94 -38.5t39 -93.5q0 -59 -38 -96t-95 -37t-96 37t-39 96z" />
<glyph unicode="@" horiz-adv-x="2009" d="M147 436q0 369 249 613.5t616 244.5q369 0 613.5 -223t244.5 -545q0 -244 -100.5 -364.5t-239.5 -120.5q-154 0 -219 102q-113 -133 -334 -133q-164 0 -268.5 80t-104.5 201q0 125 110.5 202.5t305.5 77.5q100 0 205 -16v16q0 86 -62.5 139.5t-183.5 53.5 q-152 0 -289 -80v166q137 72 297 72q217 0 326.5 -101.5t109.5 -263.5v-235q0 -59 32 -88t77 -29q154 0 154 321q0 254 -190.5 428t-485.5 174q-287 0 -482.5 -195.5t-195.5 -492.5q0 -299 218 -479t531 -180q264 0 486 141l78 -158q-246 -156 -560 -155q-250 0 -460.5 97 t-344 288.5t-133.5 441.5zM803 299q0 -63 49 -99t133 -36q166 0 240 106v152q-102 16 -191 16q-111 0 -171 -38t-60 -101z" />
<glyph unicode="A" horiz-adv-x="1558" d="M23 0l630 1229h242l639 -1229h-246l-166 332h-700l-166 -332h-233zM508 506h526l-262 528z" />
<glyph unicode="B" horiz-adv-x="1208" d="M143 0v1229h523q199 0 316.5 -86t117.5 -232q0 -154 -170 -262q205 -102 205 -303q0 -156 -121.5 -251t-311.5 -95h-559zM356 172h324q102 0 168.5 55.5t66.5 141.5q0 82 -59.5 134t-157.5 52h-342v-383zM356 727h338q80 0 131.5 48t51.5 116q0 72 -52.5 119t-138.5 47 h-330v-330z" />
<glyph unicode="C" horiz-adv-x="1310" d="M55 627q0 266 194.5 447t479.5 181q289 0 510 -225l-145 -139q-145 168 -363 168q-195 0 -327 -124t-132 -308q0 -205 135.5 -330t327.5 -125q238 0 385 184l148 -133q-213 -250 -529 -250q-285 0 -484.5 183.5t-199.5 470.5z" />
<glyph unicode="D" horiz-adv-x="1345" d="M143 0v1229h426q334 0 517.5 -150.5t183.5 -445.5q0 -289 -188.5 -461t-512.5 -172h-426zM356 184h213q231 0 357.5 118t126.5 327q0 201 -125 308t-359 107h-213v-860z" />
<glyph unicode="E" horiz-adv-x="1077" d="M143 0v1229h846v-185h-633v-331h602v-176h-602v-353h631v-184h-844z" />
<glyph unicode="F" horiz-adv-x="1021" d="M143 0v1229h815v-187h-602v-380h566v-181h-566v-481h-213z" />
<glyph unicode="G" horiz-adv-x="1390" d="M53 625q0 262 194.5 446t479.5 184q295 0 512 -194l-145 -146q-141 141 -365 142q-195 0 -322.5 -125t-127.5 -307q0 -207 137 -332t336 -125q211 0 325 94v209h-305v168h508v-498q-199 -168 -528 -168q-295 0 -497 181.5t-202 470.5z" />
<glyph unicode="H" horiz-adv-x="1404" d="M143 0v1229h215v-516h684v516h213v-1229h-213v524h-684v-524h-215z" />
<glyph unicode="I" horiz-adv-x="614" d="M195 0v1229h219v-1229h-219z" />
<glyph unicode="J" horiz-adv-x="833" d="M57 49l72 166q80 -51 172 -51q104 0 144 65.5t40 192.5v807h215v-875q0 -180 -98 -280.5t-274 -100.5q-59 0 -138 20.5t-133 55.5z" />
<glyph unicode="K" horiz-adv-x="1284" d="M143 0v1229h215v-549l549 549h279l-584 -586l649 -643h-305l-588 590v-590h-215z" />
<glyph unicode="L" horiz-adv-x="1009" d="M143 0v1229h213v-1045h594v-184h-807z" />
<glyph unicode="M" horiz-adv-x="1634" d="M143 0v1229h230l434 -617l448 617h228v-1229h-213v905l-461 -631h-12l-445 631v-905h-209z" />
<glyph unicode="N" horiz-adv-x="1460" d="M143 0v1229h199l758 -895v895h213v-1229h-205l-756 899v-899h-209z" />
<glyph unicode="O" horiz-adv-x="1445" d="M57 618q0 264 193.5 450.5t466 186.5t468 -185t195.5 -451.5t-195.5 -456t-468 -189.5t-466 189.5t-193.5 455.5zM272 618q0 -188 129 -319t316 -131q188 0 315 130t127 320q0 186 -127 314.5t-315 128.5q-186 0 -315.5 -128.5t-129.5 -314.5z" />
<glyph unicode="P" horiz-adv-x="1126" d="M141 0v1229h432q223 0 360.5 -112.5t137.5 -299t-139.5 -304.5t-358.5 -118h-219v-395h-213zM354 575h213q129 0 211 65t82 177q0 109 -81 169.5t-210 60.5h-215v-472z" />
<glyph unicode="Q" horiz-adv-x="1441" d="M57 618q0 264 193.5 450.5t466 186.5t468 -185t195.5 -452q0 -256 -182 -442l168 -172l-145 -133l-185 182q-150 -80 -319 -80q-272 0 -466 189.5t-194 455.5zM272 618q0 -188 129 -319t316 -131q188 0 315 130t127 320q0 186 -127 314.5t-315 128.5 q-186 0 -315.5 -128.5t-129.5 -314.5z" />
<glyph unicode="R" horiz-adv-x="1239" d="M143 0v1229h484q215 0 345 -102.5t130 -274.5q0 -123 -79 -219t-216 -139l416 -494h-265l-376 465h-226v-465h-213zM356 641h269q113 0 182.5 58.5t69.5 146.5q0 90 -69.5 147.5t-182.5 57.5h-269v-410z" />
<glyph unicode="S" horiz-adv-x="1077" d="M78 141l106 164q154 -143 348 -143q109 0 171.5 43t62.5 114q0 99 -129 154l-283 117q-262 109 -262 325q0 145 128 242.5t325 97.5q238 0 411 -153l-110 -141q-124 114 -290 114h-3q-111 0 -172.5 -44t-61.5 -111q0 -55 34 -90t100 -62l284 -117q262 -111 262 -327 q0 -152 -130 -251.5t-332 -99.5q-125 0 -251 46.5t-208 121.5z" />
<glyph unicode="T" horiz-adv-x="1032" d="M35 1044v185h962v-185h-372v-1044h-213v1044h-377z" />
<glyph unicode="U" horiz-adv-x="1394" d="M143 526v703h213v-705q0 -176 94.5 -265t243.5 -89q154 0 244 88t90 266v705h211v-703q0 -264 -147.5 -408.5t-397.5 -144.5q-244 0 -397.5 144.5t-153.5 408.5z" />
<glyph unicode="V" horiz-adv-x="1372" d="M29 1229h233l422 -983l428 983h231l-546 -1229h-230z" />
<glyph unicode="W" horiz-adv-x="1941" d="M29 1229h215l282 -967l338 967h221l338 -967l283 967h203l-373 -1229h-236l-331 950l-338 -950h-238z" />
<glyph unicode="X" horiz-adv-x="1296" d="M29 0l479 637l-430 592h252l321 -445l330 445h236l-435 -588l486 -641h-256l-361 489l-366 -489h-256z" />
<glyph unicode="Y" horiz-adv-x="1261" d="M29 1229h239l363 -572l366 572h232l-494 -758v-471h-217v471z" />
<glyph unicode="Z" horiz-adv-x="1177" d="M104 0v150l687 892h-666v187h940v-158l-676 -887h670v-184h-955z" />
<glyph unicode="[" horiz-adv-x="839" d="M233 -162v1553h455v-179h-262v-1196h262v-178h-455z" />
<glyph unicode="\" horiz-adv-x="1318" d="M61 1425h226l938 -1605h-230z" />
<glyph unicode="]" horiz-adv-x="831" d="M176 16h262v1196h-262v179h455v-1553h-455v178z" />
<glyph unicode="^" horiz-adv-x="1099" d="M193 684l266 627h186l270 -627h-188l-176 406l-170 -406h-188z" />
<glyph unicode="_" horiz-adv-x="1075" d="M74 -80h919v-178h-919v178z" />
<glyph unicode="`" d="M535 1315v10h219l258 -332h-205z" />
<glyph unicode="a" horiz-adv-x="997" d="M68 260q0 123 115.5 202t312.5 79q80 0 209 -19v17q0 86 -63.5 139t-188.5 53q-160 0 -297 -74v164q131 68 309 68q217 0 326.5 -101.5t109.5 -261.5v-526h-188v78q-111 -96 -279 -96q-164 0 -265 77.5t-101 200.5zM281 264q0 -61 50 -98t134 -37q156 0 240 104v156 q-84 16 -189 17q-111 0 -173 -39t-62 -103z" />
<glyph unicode="b" horiz-adv-x="1142" d="M137 0v1325h211v-494q111 58 246 58q199 0 339 -127t140 -320q0 -209 -136 -334.5t-331 -125.5q-182 0 -287 104v-86h-182zM348 264q33 -45 95 -74.5t132 -29.5q123 0 204 74.5t81 207.5q0 121 -83 196t-204 75q-133 0 -225 -68v-381z" />
<glyph unicode="c" horiz-adv-x="972" d="M68 444q0 184 141 314.5t340 130.5q213 0 364 -152l-133 -137q-92 102 -231 102q-115 0 -195 -74.5t-80 -185.5q0 -123 80 -197.5t195 -74.5q153 0 239 119l144 -127q-135 -180 -383 -180q-201 0 -341 131t-140 331z" />
<glyph unicode="d" horiz-adv-x="1120" d="M68 442q0 193 140 320t339 127q135 0 246 -58v494h211v-1325h-183v86q-104 -104 -286 -104q-195 0 -331 125.5t-136 334.5zM281 442q0 -133 80.5 -207.5t203.5 -74.5q70 0 132.5 29.5t95.5 74.5v381q-92 68 -226 68q-121 0 -203.5 -75t-82.5 -196z" />
<glyph unicode="e" horiz-adv-x="1024" d="M68 442q0 182 133 314.5t325 132.5q207 0 332 -137q119 -131 119 -357v-22h-701q14 -104 94.5 -163.5t190.5 -59.5q164 0 264 114l113 -133q-153 -149 -374 -149h-3q-213 0 -353 131t-140 329zM279 516h487q-10 96 -71 155.5t-167 59.5q-98 0 -166.5 -61.5t-82.5 -153.5z " />
<glyph unicode="f" horiz-adv-x="776" d="M49 698v172h166v74q0 166 112.5 273.5t290.5 107.5q100 0 181 -35v-170q-63 31 -152 31q-100 0 -160.5 -58.5t-60.5 -154.5v-68h319v-172h-319v-698h-211v698h-166z" />
<glyph unicode="g" horiz-adv-x="1107" d="M68 453q0 193 150.5 314.5t363.5 121.5q217 0 409 -98v-773q0 -195 -128 -307t-347 -112q-225 0 -385 112l76 158q131 -94 303 -94q135 0 206.5 66.5t71.5 178.5v50q-96 -66 -241 -66q-197 0 -338 122t-141 327zM281 453q0 -127 84.5 -201t207.5 -74q127 0 211 78v414 q-90 47 -206 47q-125 0 -211 -75t-86 -189z" />
<glyph unicode="h" horiz-adv-x="1130" d="M141 0v1325h209v-557q156 121 316 121q158 0 254 -91t96 -261v-537h-209v502q0 92 -54.5 144t-138.5 52q-72 0 -144.5 -37.5t-119.5 -91.5v-569h-209z" />
<glyph unicode="i" horiz-adv-x="493" d="M117 1190q0 53 39 91t96 38t96 -38t39 -91q0 -59 -39 -97t-96 -38t-96 37.5t-39 97.5zM145 0v870h211v-870h-211z" />
<glyph unicode="j" horiz-adv-x="557" d="M-164 -336l68 164q76 -45 149 -45q170 0 170 186v901h209v-913q0 -170 -94 -266.5t-256 -96.5q-135 0 -246 70zM195 1190q0 53 38.5 91t96 38t96.5 -38t39 -91q0 -59 -39 -97t-96.5 -38t-96 37.5t-38.5 97.5z" />
<glyph unicode="k" horiz-adv-x="1050" d="M141 0v1325h209v-780l369 325h272l-430 -385l475 -485h-276l-410 420v-420h-209z" />
<glyph unicode="l" horiz-adv-x="522" d="M162 0v1325h211v-1325h-211z" />
<glyph unicode="m" horiz-adv-x="1654" d="M141 0v870h197v-102q135 121 299 121q86 0 153.5 -37t104.5 -96q152 133 319 133q147 0 239.5 -91t92.5 -255v-543h-211v530q0 84 -42 131.5t-117 47.5q-59 0 -124 -35t-106 -86q0 -14 1 -43t1 -43v-502h-211v545q0 74 -41 119t-110 45q-61 0 -128 -36t-108 -89v-584 h-209z" />
<glyph unicode="n" horiz-adv-x="1132" d="M141 0v870h199v-104q147 123 326 123q160 0 255 -90t95 -260v-539h-209v504q0 90 -51 143t-142 53q-72 0 -144.5 -37.5t-119.5 -91.5v-571h-209z" />
<glyph unicode="o" horiz-adv-x="1064" d="M68 436q0 190 136 321.5t332.5 131.5t333 -132t136.5 -320.5t-136.5 -321.5t-333 -133t-332.5 133t-136 321zM281 438q0 -115 73.5 -190.5t182 -75.5t181.5 76t73 190q0 113 -73 188.5t-181.5 75.5t-182 -75.5t-73.5 -188.5z" />
<glyph unicode="p" horiz-adv-x="1132" d="M133 -455v1325h182v-86q104 104 287 105q195 0 331 -126t136 -335q0 -193 -140 -319.5t-339 -126.5q-135 0 -246 57v-494h-211zM344 225q91 -67 221 -67h4q121 0 204 74.5t83 195.5q0 133 -81 208t-204 75q-70 0 -132 -30t-95 -75v-381z" />
<glyph unicode="q" horiz-adv-x="1122" d="M68 455q0 193 152.5 313.5t369.5 120.5q203 0 403 -88v-1256h-205v525q-100 -66 -239 -66q-197 0 -339 120t-142 331zM281 453q0 -127 83.5 -201t204.5 -74q131 0 215 80v416q-92 41 -200 41q-131 0 -217 -74t-86 -188z" />
<glyph unicode="r" horiz-adv-x="765" d="M145 0v870h189v-131q43 68 119.5 109t164.5 41q63 0 117 -19v-192q-53 20 -119 20q-86 0 -159.5 -56t-100.5 -138v-504h-211z" />
<glyph unicode="s" horiz-adv-x="804" d="M51 106l88 146q121 -102 256 -102q137 0 137 77q0 54 -94 95l-172 75q-207 90 -207 240q0 106 92.5 179t251.5 73q182 0 310 -109l-95 -127q-100 74 -208 74q-68 0 -105 -23.5t-37 -62.5q0 -49 84 -86l183 -76q204 -86 204 -241q0 -117 -94 -186.5t-254 -69.5 q-92 0 -183 34.5t-157 89.5z" />
<glyph unicode="t" horiz-adv-x="800" d="M35 702v168h158v265h210v-265h365v-168h-365v-327q0 -100 54.5 -153.5t150.5 -53.5q90 0 148 29v-185q-74 -30 -164 -30h-6q-188 0 -290.5 98t-102.5 270v352h-158z" />
<glyph unicode="u" horiz-adv-x="1107" d="M119 332v538h209v-503q0 -90 51 -143.5t141 -53.5q72 0 144.5 38t119.5 91v571h209v-870h-198v104q-146 -122 -323 -122h-3q-160 0 -255 90t-95 260z" />
<glyph unicode="v" horiz-adv-x="1044" d="M23 870h225l274 -649l279 649h221l-387 -870h-229z" />
<glyph unicode="w" horiz-adv-x="1548" d="M29 870h213l200 -632l236 632h203l231 -632l205 632h205l-299 -870h-209l-238 621l-239 -621h-218z" />
<glyph unicode="x" horiz-adv-x="1062" d="M29 0l362 455l-325 415h249l217 -280l220 280h235l-325 -413l374 -457h-252l-252 324l-251 -324h-252z" />
<glyph unicode="y" horiz-adv-x="1107" d="M29 870h229l299 -583l297 583h225l-692 -1325h-225l287 541z" />
<glyph unicode="z" horiz-adv-x="907" d="M78 0v125l473 580h-451v165h721v-135l-469 -569h471v-166h-745z" />
<glyph unicode="{" horiz-adv-x="839" d="M80 543v153h37q131 0 131 131v252q0 145 85 231.5t257 86.5h119v-162h-84q-182 0 -183 -184v-252q0 -141 -116 -181q63 -20 89.5 -63t26.5 -115v-241q0 -195 201 -195h66v-162h-109q-170 0 -261 89t-91 237v250q0 55 -37 90t-94 35h-37z" />
<glyph unicode="|" horiz-adv-x="610" d="M199 -233v1646h213v-1646h-213z" />
<glyph unicode="}" horiz-adv-x="839" d="M172 4h84q182 0 182 184v252q0 141 117 181q-63 20 -90 63t-27 115v241q0 195 -200 195h-66v162h109q170 0 261 -89t91 -237v-250q0 -55 37 -90t94 -35h37v-153h-37q-131 0 -131 -131v-252q0 -145 -85 -231.5t-257 -86.5h-119v162z" />
<glyph unicode="~" horiz-adv-x="1271" d="M139 358q0 166 85 252t202 86q88 0 232.5 -74.5t197.5 -74.5t73.5 40t20.5 122h187q-2 -186 -67.5 -265t-197.5 -79q-88 0 -229 75.5t-194 75.5q-49 0 -85 -43t-36 -115h-189z" />
<glyph unicode="&#xa1;" horiz-adv-x="575" d="M152 756q0 59 38.5 96t96 37t96.5 -37t39 -96q0 -55 -39 -93t-96.5 -38t-96 37.5t-38.5 93.5zM182 -367l8 871h195l8 -871h-211z" />
<glyph unicode="&#xa2;" horiz-adv-x="1103" d="M125 444q0 158 106.5 278t268.5 155v178h198v-174q156 -27 273 -144l-133 -137q-92 102 -232 102q-115 0 -194.5 -74.5t-79.5 -185.5q0 -123 80 -197.5t194 -74.5q154 0 240 119l143 -127q-106 -141 -291 -172v-189h-198v193q-164 33 -269.5 155.5t-105.5 294.5z" />
<glyph unicode="&#xa3;" horiz-adv-x="1157" d="M154 0v174h49q119 0 119 121v323h-168v170h168v152q0 168 118.5 274.5t311.5 106.5q119 0 229 -39v-168q-96 35 -204.5 35t-176.5 -59.5t-68 -153.5v-148h404v-170h-404v-313q0 -104 -73 -131h545v-174h-850z" />
<glyph unicode="&#xa4;" horiz-adv-x="1439" d="M160 1040l151 144l138 -135q123 78 272 77q156 0 280 -84l140 136l149 -144l-143 -141q76 -119 76 -252q0 -145 -84 -268l153 -150l-153 -143l-154 147q-121 -74 -264 -73q-141 0 -256 69l-152 -149l-151 141l147 150q-90 123 -90 276q0 143 80 262zM418 641 q0 -125 88 -215t215 -90t214 90t87 215t-87 214t-214 89t-215 -89t-88 -214z" />
<glyph unicode="&#xa5;" horiz-adv-x="1404" d="M102 1229h240l363 -572l366 572h232l-338 -518h215v-136h-303l-68 -104v-2h371v-137h-371v-332h-217v332h-369v137h369v2l-68 104h-301v136h213z" />
<glyph unicode="&#xa6;" horiz-adv-x="610" d="M199 -233v694h213v-694h-213zM199 719v694h213v-694h-213z" />
<glyph unicode="&#xa7;" horiz-adv-x="1191" d="M131 -215l102 164q158 -143 351 -144q109 0 172 44.5t63 115.5q0 99 -131 154l-282 119q-270 113 -271 329q0 152 156 240q-147 100 -148 264q0 145 128 242.5t325 97.5q242 0 416 -143l-103 -148q-127 113 -305 113q-111 0 -171 -45t-60 -113q0 -100 131 -151l284 -117 q276 -115 277 -334q0 -158 -150 -246q135 -100 136 -256q0 -154 -130 -252t-333 -98q-123 0 -248 45t-209 119zM354 573q0 -100 133 -151l242 -100q115 39 115 141t-129 153l-242 99q-57 -16 -88 -54t-31 -88z" />
<glyph unicode="&#xa8;" d="M453 1165q0 47 34.5 80t84 33t85 -33t35.5 -80q0 -53 -34.5 -85.5t-86 -32.5t-85 32.5t-33.5 85.5zM842 1165q0 47 34.5 80t86.5 33q49 0 83.5 -33t34.5 -80q0 -53 -33.5 -85.5t-85 -32.5t-86 32.5t-34.5 85.5z" />
<glyph unicode="&#xa9;" horiz-adv-x="1619" d="M129 623q0 266 198.5 452.5t485.5 186.5q283 0 477.5 -186.5t194.5 -452.5q0 -268 -194.5 -455.5t-477.5 -187.5q-287 0 -485.5 187t-198.5 456zM287 616q0 -209 150.5 -348t375.5 -139q217 0 364.5 139.5t147.5 354.5q0 211 -146.5 349t-367.5 138q-223 0 -373.5 -139.5 t-150.5 -354.5zM453 633q0 141 108.5 239.5t257.5 98.5q168 0 285 -129l-100 -101q-78 88 -183 88q-90 0 -151.5 -56t-61.5 -140q0 -94 62.5 -152.5t150.5 -58.5q117 0 189 100l108 -94q-106 -150 -295 -149q-154 0 -262 100t-108 254z" />
<glyph unicode="&#xaa;" horiz-adv-x="1003" d="M168 399v156h651v-156h-651zM197 877q0 88 81.5 144t221.5 56q59 0 149 -14v12q0 61 -46 99t-134 38q-111 0 -211 -53v117q94 49 221 49q154 0 231.5 -72.5t77.5 -185.5v-375h-133v56q-78 -68 -198 -68q-117 0 -188.5 55.5t-71.5 141.5zM348 881q0 -45 36 -71t95 -26 q111 0 170 74v111q-68 12 -133 12q-78 0 -123 -27.5t-45 -72.5z" />
<glyph unicode="&#xab;" horiz-adv-x="1071" d="M80 449l254 411h221l-248 -411l248 -406h-221zM518 449l254 411h221l-248 -411l248 -406h-221z" />
<glyph unicode="&#xac;" horiz-adv-x="1157" d="M137 416v184h879v-467h-213v283h-666z" />
<glyph unicode="&#xad;" horiz-adv-x="1101" d="M215 410v202h676v-202h-676z" />
<glyph unicode="&#xae;" horiz-adv-x="1196" d="M141 897q0 180 134.5 304t322.5 124q193 0 322 -123t129 -305q0 -193 -129 -315.5t-322 -122.5q-188 0 -322.5 125t-134.5 313zM256 897q0 -145 98.5 -240.5t243.5 -95.5q152 0 245 93.5t93 238.5q0 143 -94 235.5t-244 92.5q-143 0 -242.5 -92.5t-99.5 -231.5zM432 690 v430h172q78 0 124 -38t46 -99q0 -88 -84 -123l137 -170h-116l-119 154h-62v-154h-98zM530 924h72q31 0 49.5 16t18.5 41t-18.5 41t-49.5 16h-72v-114z" />
<glyph unicode="&#xaf;" d="M467 1061v168h612v-168h-612z" />
<glyph unicode="&#xb0;" horiz-adv-x="952" d="M172 1046.5q0 116.5 86 197.5t209 81q121 0 206 -81t85 -197.5t-85 -199.5t-206 -83t-208 83t-87 199.5zM334 1046.5q0 -55.5 39 -95.5t94 -40q53 0 91 40.5t38 95.5q0 53 -38 92t-91 39q-57 0 -95 -38t-38 -93.5z" />
<glyph unicode="&#xb1;" horiz-adv-x="1071" d="M135 0v150h811v-150h-811zM135 516v156h314v264h180v-264h317v-156h-317v-276h-180v276h-314z" />
<glyph unicode="&#xb4;" d="M537 993l258 332h219v-10l-273 -322h-204z" />
<glyph unicode="&#xb6;" horiz-adv-x="1345" d="M117 893q0 186 137 298t360 112h220v-1573h-168v739h-52q-219 0 -358 119t-139 305zM1004 -270v1573h170v-1573h-170z" />
<glyph unicode="&#xb7;" d="M633 616q0 55 39 92t96 37q55 0 94 -37t39 -92q0 -59 -38 -96t-95 -37t-96 37t-39 96z" />
<glyph unicode="&#xb8;" d="M588 -262q51 -14 102 -14q96 0 96 55q0 43 -75 43q-39 0 -64 -6l-16 92q53 12 112 12q76 0 124 -37t48 -98q0 -70 -55 -113t-147 -43q-70 0 -105 13z" />
<glyph unicode="&#xba;" horiz-adv-x="970" d="M156 1001q0 135 97 229.5t236.5 94.5t236.5 -94t97 -230q0 -133 -97 -227t-236.5 -94t-236.5 94t-97 227zM168 403v152h651v-152h-651zM307 1004q0 -82 52.5 -135.5t130 -53.5t130 53.5t52.5 135.5q0 80 -52.5 134t-130 54t-130 -54t-52.5 -134z" />
<glyph unicode="&#xbb;" horiz-adv-x="1077" d="M72 43l247 406l-247 411h221l254 -411l-254 -406h-221zM516 43l248 406l-248 411h221l254 -411l-254 -406h-221z" />
<glyph unicode="&#xbf;" horiz-adv-x="1007" d="M100 -72q0 20 4.5 41t8.5 38.5t16 38t18.5 33.5t24.5 35.5t25.5 32t30 33t29.5 29.5t33.5 32.5t31.5 30.5q96 90 96 172v76h198v-74q0 -80 -24.5 -134t-89.5 -117q-14 -14 -52 -50t-54.5 -53.5t-40 -46.5t-33 -53.5t-9.5 -48.5q0 -156 207 -156q150 0 281 139l117 -135 q-72 -78 -179.5 -131t-224.5 -53q-186 0 -300 91t-114 230zM383 756q0 59 38 96t95 37t96 -37t39 -96q0 -55 -39 -93t-96 -38q-55 0 -94 38t-39 93z" />
<glyph unicode="&#xc0;" horiz-adv-x="1552" d="M23 0l630 1229h242l639 -1229h-246l-166 332h-700l-166 -332h-233zM498 1538v10h221l162 -229h-209zM508 506h526l-262 528z" />
<glyph unicode="&#xc1;" horiz-adv-x="1554" d="M23 0l630 1229h242l639 -1229h-246l-166 332h-700l-166 -332h-233zM508 506h526l-262 528zM682 1329l170 230h223v-11l-176 -219h-217z" />
<glyph unicode="&#xc2;" horiz-adv-x="1556" d="M23 0l630 1229h242l639 -1229h-246l-166 332h-700l-166 -332h-233zM451 1298l192 263h254l193 -263h-205l-117 148l-113 -148h-204zM508 506h526l-262 528z" />
<glyph unicode="&#xc3;" horiz-adv-x="1554" d="M23 0l630 1229h242l639 -1229h-246l-166 332h-700l-166 -332h-233zM432 1356q0 113 55.5 174t149.5 61q53 0 140 -34.5t114 -34.5q68 0 67 77h150q0 -231 -197 -231q-51 0 -139 34t-110 34q-68 0 -68 -80h-162zM508 506h526l-262 528z" />
<glyph unicode="&#xc4;" horiz-adv-x="1556" d="M23 0l630 1229h242l639 -1229h-246l-166 332h-700l-166 -332h-233zM457 1432q0 47 34.5 79.5t84 32.5t85 -32.5t35.5 -79.5q0 -53 -34.5 -87t-86 -34t-85 33.5t-33.5 87.5zM508 506h526l-262 528zM846 1432q0 47 34.5 79.5t86.5 32.5q49 0 83.5 -32.5t34.5 -79.5 q0 -53 -33.5 -87t-85 -34t-86 33.5t-34.5 87.5z" />
<glyph unicode="&#xc5;" horiz-adv-x="1558" d="M23 0l630 1229h242l639 -1229h-246l-166 332h-700l-166 -332h-233zM508 506h526l-262 528zM580 1466q0 78 56 130.5t136 52.5t135.5 -52.5t55.5 -130.5q0 -84 -54.5 -135t-136.5 -51t-137 52t-55 134zM700 1464q0 -33 20.5 -51t51.5 -18q70 -1 70 69q0 29 -19.5 49.5 t-50.5 20.5t-51.5 -19.5t-20.5 -50.5z" />
<glyph unicode="&#xc6;" horiz-adv-x="1892" d="M29 0l866 1229h915v-185h-632v-333h602v-176h-602v-351h630v-184h-843v332h-471l-234 -332h-231zM608 506h357v508z" />
<glyph unicode="&#xc7;" horiz-adv-x="1300" d="M55 627q0 266 194.5 447t479.5 181q289 0 510 -225l-145 -139q-145 168 -363 168q-195 0 -327 -124t-132 -308q0 -205 135.5 -330t327.5 -125q238 0 385 184l148 -133q-213 -250 -529 -250q-285 0 -484.5 183.5t-199.5 470.5zM541 -262q49 -14 102 -14q96 0 96 55 q0 43 -75 43q-39 0 -64 -6l-16 92q51 12 112 12q76 0 124 -37t48 -98q0 -70 -55 -113t-147 -43q-72 0 -105 13z" />
<glyph unicode="&#xc8;" horiz-adv-x="1077" d="M143 0v1229h846v-185h-633v-331h602v-176h-602v-353h631v-184h-844zM301 1548v11h221l162 -230h-209z" />
<glyph unicode="&#xc9;" horiz-adv-x="1071" d="M143 0v1229h846v-185h-633v-331h602v-176h-602v-353h631v-184h-844zM453 1329l170 230h223v-11l-176 -219h-217z" />
<glyph unicode="&#xca;" horiz-adv-x="1075" d="M143 0v1229h846v-185h-633v-331h602v-176h-602v-353h631v-184h-844zM254 1298l192 263h254l193 -263h-205l-117 148l-112 -148h-205z" />
<glyph unicode="&#xcb;" horiz-adv-x="1077" d="M143 0v1229h846v-185h-633v-331h602v-176h-602v-353h631v-184h-844zM266 1432q0 47 35 79.5t84 32.5t85 -32.5t36 -79.5q0 -53 -35 -87t-86 -34t-85 33.5t-34 87.5zM655 1432q0 47 35 79.5t86 32.5q49 0 84 -32.5t35 -79.5q0 -53 -34 -87t-85 -34t-86 33.5t-35 87.5z" />
<glyph unicode="&#xcc;" horiz-adv-x="614" d="M14 1548v11h222l161 -230h-209zM195 0v1229h219v-1229h-219z" />
<glyph unicode="&#xcd;" horiz-adv-x="614" d="M193 1329l169 230h224v-11l-176 -219h-217zM195 0v1229h219v-1229h-219z" />
<glyph unicode="&#xce;" horiz-adv-x="614" d="M-16 1298l192 263h254l193 -263h-205l-117 148l-113 -148h-204zM195 0v1229h219v-1229h-219z" />
<glyph unicode="&#xcf;" horiz-adv-x="614" d="M-10 1432q0 47 34.5 79.5t84 32.5t85 -32.5t35.5 -79.5q0 -53 -34.5 -87t-86 -34t-85 33.5t-33.5 87.5zM195 0v1229h219v-1229h-219zM379 1432q0 47 35 79.5t86 32.5q49 0 83.5 -32.5t34.5 -79.5q0 -53 -33.5 -87t-84.5 -34t-86 33.5t-35 87.5z" />
<glyph unicode="&#xd0;" horiz-adv-x="1400" d="M45 545v168h154v516h426q334 0 517 -150.5t183 -445.5q0 -289 -188.5 -461t-511.5 -172h-426v545h-154zM412 184h213q231 0 357 118t126 327q0 201 -125 308t-358 107h-213v-331h245v-168h-245v-361z" />
<glyph unicode="&#xd1;" horiz-adv-x="1460" d="M143 0v1229h199l758 -895v895h213v-1229h-205l-756 899v-899h-209zM381 1356q0 113 55.5 174t149.5 61q53 0 140 -34.5t114 -34.5q68 0 67 77h150q0 -231 -197 -231q-51 0 -139 34t-111 34q-67 0 -67 -80h-162z" />
<glyph unicode="&#xd2;" horiz-adv-x="1437" d="M57 618q0 264 193.5 450.5t466 186.5t468 -185t195.5 -451.5t-195.5 -456t-468 -189.5t-466 189.5t-193.5 455.5zM272 618q0 -188 129 -319t316 -131q188 0 315 130t127 320q0 186 -127 314.5t-315 128.5q-186 0 -315.5 -128.5t-129.5 -314.5zM428 1548v11h221l162 -230 h-209z" />
<glyph unicode="&#xd3;" horiz-adv-x="1445" d="M57 618q0 264 193.5 450.5t466 186.5t468 -185t195.5 -451.5t-195.5 -456t-468 -189.5t-466 189.5t-193.5 455.5zM272 618q0 -188 129 -319t316 -131q188 0 315 130t127 320q0 186 -127 314.5t-315 128.5q-186 0 -315.5 -128.5t-129.5 -314.5zM600 1329l170 230h223v-11 l-176 -219h-217z" />
<glyph unicode="&#xd4;" horiz-adv-x="1445" d="M57 618q0 264 193.5 450.5t466 186.5t468 -185t195.5 -451.5t-195.5 -456t-468 -189.5t-466 189.5t-193.5 455.5zM272 618q0 -188 129 -319t316 -131q188 0 315 130t127 320q0 186 -127 314.5t-315 128.5q-186 0 -315.5 -128.5t-129.5 -314.5zM397 1298l193 263h254 l192 -263h-205l-116 148l-113 -148h-205z" />
<glyph unicode="&#xd5;" horiz-adv-x="1445" d="M57 618q0 264 193.5 450.5t466 186.5t468 -185t195.5 -451.5t-195.5 -456t-468 -189.5t-466 189.5t-193.5 455.5zM272 618q0 -188 129 -319t316 -131q188 0 315 130t127 320q0 186 -127 314.5t-315 128.5q-186 0 -315.5 -128.5t-129.5 -314.5zM379 1356q0 113 55 174 t150 61q53 0 140 -34.5t114 -34.5q68 0 67 77h150q0 -231 -197 -231q-51 0 -139 34t-111 34q-67 0 -67 -80h-162z" />
<glyph unicode="&#xd6;" horiz-adv-x="1445" d="M57 618q0 264 193.5 450.5t466 186.5t468 -185t195.5 -451.5t-195.5 -456t-468 -189.5t-466 189.5t-193.5 455.5zM272 618q0 -188 129 -319t316 -131q188 0 315 130t127 320q0 186 -127 314.5t-315 128.5q-186 0 -315.5 -128.5t-129.5 -314.5zM401 1432q0 47 35 79.5 t84 32.5t85 -32.5t36 -79.5q0 -53 -35 -87t-86 -34t-85 33.5t-34 87.5zM791 1432q0 47 34.5 79.5t85.5 32.5q49 0 84 -32.5t35 -79.5q0 -53 -33.5 -87t-85 -34t-86 33.5t-34.5 87.5z" />
<glyph unicode="&#xd7;" horiz-adv-x="1161" d="M123 131l328 322l-291 299l133 127l291 -297l297 290l127 -133l-295 -290l321 -326l-133 -129l-319 325l-328 -321z" />
<glyph unicode="&#xd8;" horiz-adv-x="1445" d="M57 618q0 264 193.5 450.5t466.5 186.5q117 0 235 -43l125 213h226l-179 -305q119 -90 187.5 -220t68.5 -282q0 -266 -195.5 -455.5t-467.5 -189.5q-123 0 -236 41l-112 -194h-230l170 291q-117 90 -184.5 223t-67.5 284zM272 618q0 -199 140 -331l440 753 q-72 20 -135 21q-186 0 -315.5 -128.5t-129.5 -314.5zM582 188q61 -20 135 -20q188 0 315 130t127 320q0 193 -137 324z" />
<glyph unicode="&#xd9;" horiz-adv-x="1386" d="M143 526v703h213v-705q0 -176 94.5 -265t243.5 -89q154 0 244 88t90 266v705h211v-703q0 -264 -147.5 -408.5t-397.5 -144.5q-244 0 -397.5 144.5t-153.5 408.5zM406 1546v10h221l161 -229h-208z" />
<glyph unicode="&#xda;" horiz-adv-x="1386" d="M143 526v703h213v-705q0 -176 94.5 -265t243.5 -89q154 0 244 88t90 266v705h211v-703q0 -264 -147.5 -408.5t-397.5 -144.5q-244 0 -397.5 144.5t-153.5 408.5zM569 1329l170 230h224v-11l-177 -219h-217z" />
<glyph unicode="&#xdb;" horiz-adv-x="1388" d="M143 526v703h213v-705q0 -176 94.5 -265t243.5 -89q154 0 244 88t90 266v705h211v-703q0 -264 -147.5 -408.5t-397.5 -144.5q-244 0 -397.5 144.5t-153.5 408.5zM377 1298l192 263h254l193 -263h-205l-117 148l-112 -148h-205z" />
<glyph unicode="&#xdc;" horiz-adv-x="1380" d="M143 526v703h213v-705q0 -176 94.5 -265t243.5 -89q154 0 244 88t90 266v705h211v-703q0 -264 -147.5 -408.5t-397.5 -144.5q-244 0 -397.5 144.5t-153.5 408.5zM387 1432q0 47 35 79.5t84 32.5t85 -32.5t36 -79.5q0 -53 -35 -87t-86 -34t-85 33.5t-34 87.5zM776 1432 q0 47 35 79.5t86 32.5q49 0 84 -32.5t35 -79.5q0 -53 -34 -87t-85 -34t-86 33.5t-35 87.5z" />
<glyph unicode="&#xdd;" horiz-adv-x="1255" d="M29 1229h239l363 -572l366 572h232l-494 -758v-471h-217v471zM506 1329l170 230h223v-11l-176 -219h-217z" />
<glyph unicode="&#xde;" horiz-adv-x="1187" d="M143 0v1413h213v-205h260q225 0 362.5 -111.5t137.5 -299.5q0 -186 -140 -304t-360 -118h-260v-375h-213zM356 555h256q131 0 212 65.5t81 178.5q0 106 -81 166.5t-212 60.5h-256v-471z" />
<glyph unicode="&#xdf;" horiz-adv-x="1241" d="M145 0v827q0 227 154 376t377 149q203 0 322.5 -85t119.5 -218q0 -176 -182 -250l-96 -39q-70 -29 -105 -52.5t-35 -60.5t22.5 -57.5t72.5 -42.5q82 -35 117.5 -51.5t90 -44t76 -47t47 -47t33.5 -57.5t8 -69q0 -111 -96 -181t-250 -70q-213 0 -344 120l86 133 q109 -98 248 -98q68 0 114 24.5t46 63.5q0 16 -8.5 31.5t-26.5 30t-36.5 26t-48.5 24.5t-50.5 21.5t-55 21.5t-51.5 19l-32 17q-176 86 -177 225q0 147 177 223l114 49q68 29 98.5 54.5t30.5 66.5q0 66 -58.5 108t-170.5 42q-152 0 -236 -105.5t-84 -288.5v-788h-211z" />
<glyph unicode="&#xe0;" horiz-adv-x="1007" d="M68 260q0 123 115.5 202t312.5 79q80 0 209 -19v17q0 86 -63.5 139t-188.5 53q-160 0 -297 -74v164q131 68 309 68q217 0 326.5 -101.5t109.5 -261.5v-526h-188v78q-111 -96 -279 -96q-164 0 -265 77.5t-101 200.5zM117 1313v10h219l258 -332h-205zM281 264q0 -61 50 -98 t134 -37q156 0 240 104v156q-84 16 -189 17q-111 0 -173 -39t-62 -103z" />
<glyph unicode="&#xe1;" horiz-adv-x="997" d="M68 260q0 123 115.5 202t312.5 79q80 0 209 -19v17q0 86 -63.5 139t-188.5 53q-160 0 -297 -74v164q131 68 309 68q217 0 326.5 -101.5t109.5 -261.5v-526h-188v78q-111 -96 -279 -96q-164 0 -265 77.5t-101 200.5zM281 264q0 -61 50 -98t134 -37q156 0 240 104v156 q-84 16 -189 17q-111 0 -173 -39t-62 -103zM385 993l258 332h219v-10l-272 -322h-205z" />
<glyph unicode="&#xe2;" horiz-adv-x="997" d="M68 260q0 123 115.5 202t312.5 79q80 0 209 -19v17q0 86 -63.5 139t-188.5 53q-160 0 -297 -74v164q131 68 309 68q217 0 326.5 -101.5t109.5 -261.5v-526h-188v78q-111 -96 -279 -96q-164 0 -265 77.5t-101 200.5zM139 999l246 326h225l246 -326h-209l-149 193 l-150 -193h-209zM281 264q0 -61 50 -98t134 -37q156 0 240 104v156q-84 16 -189 17q-111 0 -173 -39t-62 -103z" />
<glyph unicode="&#xe3;" horiz-adv-x="997" d="M68 260q0 123 115.5 202t312.5 79q80 0 209 -19v17q0 86 -63.5 139t-188.5 53q-160 0 -297 -74v164q131 68 309 68q217 0 326.5 -101.5t109.5 -261.5v-526h-188v78q-111 -96 -279 -96q-164 0 -265 77.5t-101 200.5zM164 1063q0 113 55 174t150 61q53 0 139 -34.5 t115 -34.5q68 0 67 80h150q0 -233 -197 -234q-53 0 -141 35t-109 35q-67 0 -67 -82h-162zM281 264q0 -61 50 -98t134 -37q156 0 240 104v156q-84 16 -189 17q-111 0 -173 -39t-62 -103z" />
<glyph unicode="&#xe4;" horiz-adv-x="997" d="M68 260q0 123 115.5 202t312.5 79q80 0 209 -19v17q0 86 -63.5 139t-188.5 53q-160 0 -297 -74v164q131 68 309 68q217 0 326.5 -101.5t109.5 -261.5v-526h-188v78q-111 -96 -279 -96q-164 0 -265 77.5t-101 200.5zM199 1165q0 47 34.5 80t84 33t85 -33t35.5 -80 q0 -53 -34.5 -85.5t-86 -32.5t-85 32.5t-33.5 85.5zM281 264q0 -61 50 -98t134 -37q156 0 240 104v156q-84 16 -189 17q-111 0 -173 -39t-62 -103zM588 1165q0 47 34.5 80t86.5 33q49 0 83.5 -33t34.5 -80q0 -53 -33.5 -85.5t-85 -32.5t-86 32.5t-34.5 85.5z" />
<glyph unicode="&#xe5;" horiz-adv-x="997" d="M68 260q0 123 115.5 202t312.5 79q80 0 209 -19v17q0 86 -63.5 139t-188.5 53q-160 0 -297 -74v164q131 68 309 68q217 0 326.5 -101.5t109.5 -261.5v-526h-188v78q-111 -96 -279 -96q-164 0 -265 77.5t-101 200.5zM281 264q0 -61 50 -98t134 -37q156 0 240 104v156 q-84 16 -189 17q-111 0 -173 -39t-62 -103zM311 1171q0 78 56.5 130.5t136.5 52.5t135 -52.5t55 -130.5q0 -84 -54 -135t-136 -51t-137.5 52.5t-55.5 133.5zM432 1169q0 -33 20.5 -52t51.5 -19t50 19t19 52q0 29 -19 48.5t-50 19.5q-29 0 -50.5 -19.5t-21.5 -48.5z" />
<glyph unicode="&#xe6;" horiz-adv-x="1681" d="M68 256q0 125 115.5 204t312.5 79q78 0 206 -19v17q0 88 -63.5 140t-187.5 52q-156 0 -297 -74v164q141 68 307 68q254 0 360 -154q135 156 340 156t330 -138.5t121 -377.5h-703q14 -106 93 -166t196 -60q164 0 264 117l113 -133q-154 -150 -379 -149q-254 0 -393 174 q-123 -174 -369 -174q-164 0 -265 76.5t-101 197.5zM276 260q0 -61 49.5 -97t137.5 -36q104 0 168.5 50t70.5 118v92q-82 16 -192 16q-115 0 -174.5 -38.5t-59.5 -104.5zM911 516h492q-10 96 -71 156.5t-167 60.5q-98 0 -168.5 -62.5t-85.5 -154.5z" />
<glyph unicode="&#xe7;" horiz-adv-x="974" d="M68 444q0 184 141 314.5t340 130.5q213 0 364 -152l-133 -137q-92 102 -231 102q-115 0 -195 -74.5t-80 -185.5q0 -123 80 -197.5t195 -74.5q153 0 239 119l144 -127q-135 -180 -383 -180q-201 0 -341 131t-140 331zM373 -262q49 -14 102 -14q96 0 96 55q0 43 -75 43 q-39 0 -64 -6l-16 92q53 12 112 12q76 0 124 -37t48 -98q0 -70 -55 -113t-147 -43q-72 0 -105 13z" />
<glyph unicode="&#xe8;" horiz-adv-x="1034" d="M68 442q0 182 133 314.5t325 132.5q207 0 332 -137t119 -379h-701q14 -104 94.5 -163.5t190.5 -59.5q164 0 264 114l113 -133q-154 -150 -377 -149q-213 0 -353 131t-140 329zM164 1315v10h219l258 -332h-205zM279 516h487q-10 96 -71 155.5t-167 59.5 q-98 0 -166.5 -61.5t-82.5 -153.5z" />
<glyph unicode="&#xe9;" horiz-adv-x="1024" d="M68 442q0 182 133 314.5t325 132.5q207 0 332 -137t119 -379h-701q14 -104 94.5 -163.5t190.5 -59.5q164 0 264 114l113 -133q-154 -150 -377 -149q-213 0 -353 131t-140 329zM279 516h487q-10 96 -71 155.5t-167 59.5q-98 0 -166.5 -61.5t-82.5 -153.5zM426 993l258 332 h219v-10l-272 -322h-205z" />
<glyph unicode="&#xea;" horiz-adv-x="1024" d="M68 442q0 182 133 314.5t325 132.5q207 0 332 -137t119 -379h-701q14 -104 94.5 -163.5t190.5 -59.5q164 0 264 114l113 -133q-154 -150 -377 -149q-213 0 -353 131t-140 329zM182 999l246 326h225l246 -326h-209l-149 193l-150 -193h-209zM279 516h487q-10 96 -71 155.5 t-167 59.5q-98 0 -166.5 -61.5t-82.5 -153.5z" />
<glyph unicode="&#xeb;" horiz-adv-x="1024" d="M68 442q0 182 133 314.5t325 132.5q207 0 332 -137t119 -379h-701q14 -104 94.5 -163.5t190.5 -59.5q164 0 264 114l113 -133q-154 -150 -377 -149q-213 0 -353 131t-140 329zM213 1165q0 47 35 80t84 33t85 -33t36 -80q0 -53 -35 -85.5t-86 -32.5t-85 32.5t-34 85.5z M279 516h487q-10 96 -71 155.5t-167 59.5q-98 0 -166.5 -61.5t-82.5 -153.5zM602 1165q0 47 35 80t86 33q49 0 84 -33t35 -80q0 -53 -34 -85.5t-85 -32.5t-86 32.5t-35 85.5z" />
<glyph unicode="&#xec;" horiz-adv-x="489" d="M-127 1346v10h219l258 -332h-205zM145 0v870h211v-870h-211z" />
<glyph unicode="&#xed;" horiz-adv-x="483" d="M145 0v870h211v-870h-211zM145 993l258 332h220v-10l-273 -322h-205z" />
<glyph unicode="&#xee;" horiz-adv-x="495" d="M-104 999l245 326h226l245 -326h-209l-149 193l-150 -193h-208zM145 0v870h211v-870h-211z" />
<glyph unicode="&#xef;" horiz-adv-x="485" d="M-61 1165q0 47 34.5 80t83.5 33t85 -33t36 -80q0 -53 -34.5 -85.5t-86 -32.5t-85 32.5t-33.5 85.5zM145 0v870h211v-870h-211zM328 1165q0 47 34.5 80t86.5 33q49 0 83.5 -33t34.5 -80q0 -53 -33.5 -85.5t-85 -32.5t-86 32.5t-34.5 85.5z" />
<glyph unicode="&#xf0;" horiz-adv-x="1097" d="M66 399q0 186 123.5 302t320.5 116q190 0 291 -117q-6 152 -72 250l-113 -69l-75 110l82 51q-70 35 -156 35q-135 0 -238 -71l-92 155q143 94 338 94q197 0 326 -102l143 90l72 -113l-125 -77q119 -174 119 -486q0 -307 -133.5 -450.5t-341.5 -143.5q-207 0 -338 121 t-131 305zM274 401q0 -106 73 -176.5t183 -70.5q106 0 179 69.5t73 179.5q0 109 -71.5 174.5t-180.5 65.5q-115 0 -185.5 -64.5t-70.5 -177.5z" />
<glyph unicode="&#xf1;" horiz-adv-x="1138" d="M141 0v870h199v-104q147 123 326 123q160 0 255 -90t95 -260v-539h-209v504q0 90 -51 143t-142 53q-72 0 -144.5 -37.5t-119.5 -91.5v-571h-209zM233 1063q0 113 55.5 174t149.5 61q53 0 139.5 -34.5t114.5 -34.5q68 0 68 80h149q0 -233 -196 -234q-53 0 -141.5 35 t-108.5 35q-68 0 -68 -82h-162z" />
<glyph unicode="&#xf2;" horiz-adv-x="1060" d="M68 436q0 190 136 321.5t332.5 131.5t333 -132t136.5 -320.5t-136.5 -321.5t-333 -133t-332.5 133t-136 321zM168 1346v10h219l258 -332h-205zM281 438q0 -115 73.5 -190.5t182 -75.5t181.5 76t73 190q0 113 -73 188.5t-181.5 75.5t-182 -75.5t-73.5 -188.5z" />
<glyph unicode="&#xf3;" horiz-adv-x="1062" d="M68 436q0 190 136 321.5t332.5 131.5t333 -132t136.5 -320.5t-136.5 -321.5t-333 -133t-332.5 133t-136 321zM281 438q0 -115 73.5 -190.5t182 -75.5t181.5 76t73 190q0 113 -73 188.5t-181.5 75.5t-182 -75.5t-73.5 -188.5zM436 993l258 332h219v-10l-272 -322h-205z " />
<glyph unicode="&#xf4;" horiz-adv-x="1062" d="M68 436q0 190 136 321.5t332.5 131.5t333 -132t136.5 -320.5t-136.5 -321.5t-333 -133t-332.5 133t-136 321zM182 999l246 326h225l246 -326h-209l-149 193l-150 -193h-209zM281 438q0 -115 73.5 -190.5t182 -75.5t181.5 76t73 190q0 113 -73 188.5t-181.5 75.5 t-182 -75.5t-73.5 -188.5z" />
<glyph unicode="&#xf5;" horiz-adv-x="1071" d="M68 436q0 190 136 321.5t332.5 131.5t333 -132t136.5 -320.5t-136.5 -321.5t-333 -133t-332.5 133t-136 321zM199 1063q0 113 55 174t149 61q51 0 139.5 -34.5t114.5 -34.5q68 0 68 80h149q0 -233 -196 -234q-53 0 -141 35t-109 35q-68 0 -68 -82h-161zM281 438 q0 -115 73.5 -190.5t182 -75.5t181.5 76t73 190q0 113 -73 188.5t-181.5 75.5t-182 -75.5t-73.5 -188.5z" />
<glyph unicode="&#xf6;" horiz-adv-x="1075" d="M68 436q0 190 136 321.5t332.5 131.5t333 -132t136.5 -320.5t-136.5 -321.5t-333 -133t-332.5 133t-136 321zM221 1165q0 47 35 80t84 33t85 -33t36 -80q0 -53 -35 -85.5t-86 -32.5t-85 32.5t-34 85.5zM281 438q0 -115 73.5 -190.5t182 -75.5t181.5 76t73 190 q0 113 -73 188.5t-181.5 75.5t-182 -75.5t-73.5 -188.5zM610 1165q0 47 35 80t86 33q49 0 84 -33t35 -80q0 -53 -34 -85.5t-85 -32.5t-86 32.5t-35 85.5z" />
<glyph unicode="&#xf7;" horiz-adv-x="1214" d="M176 377v190h860v-190h-860zM471 109q0 53 39 91t96.5 38t96 -38t38.5 -91q0 -59 -38.5 -97.5t-96 -38.5t-96.5 38t-39 98zM471 811q0 53 39 91t96.5 38t96 -38t38.5 -91q0 -59 -38.5 -97t-96 -38t-96.5 38t-39 97z" />
<glyph unicode="&#xf8;" horiz-adv-x="1064" d="M68 436q0 190 136 321.5t333 131.5q84 0 163 -29l103 176h155l-139 -237q86 -63 136.5 -157.5t50.5 -205.5q0 -188 -136.5 -321t-332.5 -133q-88 0 -177 32l-112 -194h-160l154 262q-174 137 -174 354zM281 438q0 -106 63 -180l258 436q-41 8 -65 8q-109 0 -182.5 -75.5 t-73.5 -188.5zM459 182q41 -10 78 -10q109 0 181.5 75.5t72.5 190.5q0 111 -72 187z" />
<glyph unicode="&#xf9;" horiz-adv-x="1140" d="M141 332v538h209v-503q0 -90 51.5 -143.5t141.5 -53.5q72 0 144.5 38t119.5 91v571h209v-870h-199v104q-147 -123 -325 -122q-160 0 -255.5 90t-95.5 260zM219 1315v10h219l258 -332h-204z" />
<glyph unicode="&#xfa;" horiz-adv-x="1140" d="M141 332v538h209v-503q0 -90 51.5 -143.5t141.5 -53.5q72 0 144.5 38t119.5 91v571h209v-870h-199v104q-147 -123 -325 -122q-160 0 -255.5 90t-95.5 260zM465 993l258 332h219v-10l-272 -322h-205z" />
<glyph unicode="&#xfb;" horiz-adv-x="1144" d="M141 332v538h209v-503q0 -90 51.5 -143.5t141.5 -53.5q72 0 144.5 38t119.5 91v571h209v-870h-199v104q-147 -123 -325 -122q-160 0 -255.5 90t-95.5 260zM219 999l246 326h225l246 -326h-209l-149 193l-150 -193h-209z" />
<glyph unicode="&#xfc;" horiz-adv-x="1138" d="M141 332v538h209v-503q0 -90 51.5 -143.5t141.5 -53.5q72 0 144.5 38t119.5 91v571h209v-870h-199v104q-147 -123 -325 -122q-160 0 -255.5 90t-95.5 260zM266 1165q0 47 35 80t84 33t85 -33t36 -80q0 -53 -35 -85.5t-86 -32.5t-85 32.5t-34 85.5zM655 1165q0 47 35 80 t86 33q49 0 84 -33t35 -80q0 -53 -34 -85.5t-85 -32.5t-86 32.5t-35 85.5z" />
<glyph unicode="&#xfd;" horiz-adv-x="1101" d="M29 870h229l299 -583l297 583h225l-692 -1325h-225l287 541zM457 993l258 332h219v-10l-272 -322h-205z" />
<glyph unicode="&#xfe;" horiz-adv-x="1148" d="M137 -455v1780h211v-494q111 58 246 58q199 0 339 -127t140 -320q0 -209 -136 -334.5t-331 -125.5q-154 0 -258 79v-516h-211zM348 264q33 -45 95 -74.5t132 -29.5q123 0 204 74.5t81 207.5q0 121 -83 196t-204 75q-133 0 -225 -68v-381z" />
<glyph unicode="&#xff;" horiz-adv-x="1112" d="M29 870h229l299 -583l297 583h225l-692 -1325h-225l287 541zM246 1165q0 47 34.5 80t84 33t85 -33t35.5 -80q0 -53 -34.5 -85.5t-86 -32.5t-85 32.5t-33.5 85.5zM635 1165q0 47 35 80t86 33q49 0 83.5 -33t34.5 -80q0 -53 -33.5 -85.5t-84.5 -32.5t-86 32.5t-35 85.5z " />
<glyph unicode="&#x152;" horiz-adv-x="2084" d="M45 621q0 264 194.5 449t467.5 185q270 0 458 -192v166h846v-187h-633v-331h602v-179h-602v-348h631v-184h-844v172q-193 -199 -458 -199q-272 0 -467 190.5t-195 457.5zM262 621q0 -190 128 -320.5t316.5 -130.5t315.5 130t127 321q0 186 -127 314t-315.5 128 t-316.5 -128t-128 -314z" />
<glyph unicode="&#x153;" horiz-adv-x="1773" d="M68 434q0 190 136 322.5t333 132.5q111 0 205 -48t157 -132q133 180 356 180q205 0 331 -139t120 -377h-702q14 -106 94 -166t196 -60q158 0 262 119l113 -131q-158 -154 -377 -153q-256 0 -393 180q-59 -84 -155.5 -132t-206.5 -48q-197 0 -333 132t-136 320zM281 434 q0 -115 73.5 -190.5t182 -75.5t181.5 75.5t73 190.5q0 113 -73 188.5t-181.5 75.5t-182 -75.5t-73.5 -188.5zM1006 516h489q-10 96 -68.5 155.5t-164.5 59.5q-98 0 -170 -62.5t-86 -152.5z" />
<glyph unicode="&#x178;" horiz-adv-x="1251" d="M29 1229h239l363 -572l366 572h232l-494 -758v-471h-217v471zM311 1432q0 47 35 79.5t84 32.5t85 -32.5t36 -79.5q0 -53 -35 -87t-86 -34t-85 33.5t-34 87.5zM700 1432q0 47 35 79.5t86 32.5q49 0 84 -32.5t35 -79.5q0 -53 -34 -87t-85 -34t-86 33.5t-35 87.5z" />
<glyph unicode="&#x2c6;" d="M410 999l245 326h226l245 -326h-208l-150 193l-150 -193h-208z" />
<glyph unicode="&#x2dc;" d="M422 1063q0 113 55 174t150 61q53 0 139 -34.5t115 -34.5q68 0 67 80h150q0 -233 -197 -234q-53 0 -141 35t-109 35q-67 0 -67 -82h-162z" />
<glyph unicode="&#x2000;" horiz-adv-x="824" />
<glyph unicode="&#x2001;" horiz-adv-x="1649" />
<glyph unicode="&#x2002;" horiz-adv-x="824" />
<glyph unicode="&#x2003;" horiz-adv-x="1649" />
<glyph unicode="&#x2004;" horiz-adv-x="549" />
<glyph unicode="&#x2005;" horiz-adv-x="412" />
<glyph unicode="&#x2006;" horiz-adv-x="274" />
<glyph unicode="&#x2007;" horiz-adv-x="274" />
<glyph unicode="&#x2008;" horiz-adv-x="206" />
<glyph unicode="&#x2009;" horiz-adv-x="329" />
<glyph unicode="&#x200a;" horiz-adv-x="91" />
<glyph unicode="&#x2010;" horiz-adv-x="1101" d="M215 410v202h676v-202h-676z" />
<glyph unicode="&#x2011;" horiz-adv-x="1101" d="M215 410v202h676v-202h-676z" />
<glyph unicode="&#x2012;" horiz-adv-x="1101" d="M215 410v202h676v-202h-676z" />
<glyph unicode="&#x2013;" horiz-adv-x="1073" d="M80 416v194h919v-194h-919z" />
<glyph unicode="&#x2014;" horiz-adv-x="1804" d="M113 416v194h1581v-194h-1581z" />
<glyph unicode="&#x2018;" horiz-adv-x="495" d="M2 1325h211l211 -549h-209z" />
<glyph unicode="&#x2019;" horiz-adv-x="526" d="M86 776l211 549h211l-213 -549h-209z" />
<glyph unicode="&#x201a;" horiz-adv-x="491" d="M31 -330l211 549h211l-213 -549h-209z" />
<glyph unicode="&#x201c;" horiz-adv-x="985" d="M35 1325h211l211 -549h-209zM418 1325h211l211 -549h-209z" />
<glyph unicode="&#x201d;" horiz-adv-x="985" d="M145 776l211 549h211l-213 -549h-209zM528 776l211 549h211l-213 -549h-209z" />
<glyph unicode="&#x201e;" horiz-adv-x="880" d="M41 -330l211 549h211l-213 -549h-209zM424 -330l211 549h211l-213 -549h-209z" />
<glyph unicode="&#x2022;" horiz-adv-x="995" d="M162 534.5q0 137.5 102.5 234.5t241.5 97t240.5 -97t101.5 -234.5t-101.5 -235.5t-240.5 -98q-141 0 -242.5 98t-101.5 235.5z" />
<glyph unicode="&#x2026;" horiz-adv-x="1574" d="M182 109q0 53 39 91t96.5 38t96.5 -38t39 -91q0 -59 -39 -97.5t-96.5 -38.5t-96.5 38t-39 98zM651 109q0 53 39 91t96.5 38t96.5 -38t39 -91q0 -59 -39 -97.5t-96.5 -38.5t-96.5 38t-39 98zM1120 109q0 53 39 91t96.5 38t96.5 -38t39 -91q0 -59 -39 -97.5t-96.5 -38.5 t-96.5 38t-39 98z" />
<glyph unicode="&#x202f;" horiz-adv-x="329" />
<glyph unicode="&#x2039;" horiz-adv-x="690" d="M113 449l254 411h221l-248 -411l248 -406h-221z" />
<glyph unicode="&#x203a;" horiz-adv-x="686" d="M100 43l248 406l-248 411h222l253 -411l-253 -406h-222z" />
<glyph unicode="&#x205f;" horiz-adv-x="412" />
<glyph unicode="&#x20ac;" horiz-adv-x="1427" d="M127 412v145h154q-4 29 -5 70q0 45 5 71h-154v138h186q70 186 247 302.5t396 116.5q174 0 326 -75v-189q-143 82 -313 82q-135 0 -249 -63.5t-171 -173.5h618v-138h-663q-6 -39 -6 -69q0 -29 6 -72h663v-145h-620q53 -121 167.5 -186.5t254.5 -65.5q186 0 313 86v-195 q-127 -78 -326 -78q-221 0 -400 120t-247 319h-182z" />
<glyph unicode="&#x2122;" horiz-adv-x="1644" d="M143 1217v108h572v-108h-223v-488h-127v488h-222zM805 729v596h127l205 -256l209 256h120v-596h-127v404l-206 -256l-203 256v-404h-125z" />
<glyph unicode="&#x25fc;" horiz-adv-x="870" d="M0 0v870h870v-870h-870z" />
</font>
</defs>
</svg>
