<?xml version="1.0" standalone="no"?>
<!DOCTYPE svg PUBLIC "-//W3C//DTD SVG 1.1//EN" "http://www.w3.org/Graphics/SVG/1.1/DTD/svg11.dtd" >
<svg xmlns="http://www.w3.org/2000/svg">
<metadata></metadata>
<defs>
<font id="excellence_in_motion_v4bold" horiz-adv-x="1523" >
<font-face units-per-em="2048" ascent="1638" descent="-410" />
<missing-glyph horiz-adv-x="540" />
<glyph unicode="&#xfb01;" horiz-adv-x="1150" d="M49 655v215h160v78q0 168 106.5 272.5t272.5 104.5q74 0 121 -20v-209q-37 14 -91 14q-61 0 -100 -39t-39 -108v-93h570v-870h-271v655h-299v-655h-270v655h-160zM764 1188q0 63 46 106t114 43q66 0 110.5 -43t44.5 -106q0 -72 -45 -116t-110 -44q-70 0 -115 44t-45 116z " />
<glyph unicode="&#xfb02;" horiz-adv-x="1234" d="M51 655v215h160v66q0 174 108.5 281.5t288.5 107.5q82 0 135 -27v-208q-43 20 -104 20q-70 0 -114 -44t-44 -116v-80h283v-215h-283v-655h-270v655h-160zM870 0v1325h271v-1325h-271z" />
<glyph unicode="&#xfb03;" horiz-adv-x="1685" d="M49 655v215h160v78q0 168 106.5 272.5t272.5 104.5q74 0 121 -20v-209q-37 14 -91 14q-61 0 -100 -39t-39 -108v-93h266v78q0 168 106.5 272.5t272.5 104.5q74 0 121 -20v-209q-37 14 -90 14q-61 0 -100 -39t-39 -108v-93h569v-870h-270v655h-299v-655h-271v655h-266 v-655h-270v655h-160zM1294 1188q0 63 46 106t114 43q66 0 111 -43t45 -106q0 -72 -45 -116t-111 -44q-70 0 -115 44t-45 116z" />
<glyph unicode="&#xfb04;" horiz-adv-x="1742" d="M49 655v215h160v78q0 168 106.5 272.5t272.5 104.5q74 0 121 -20v-209q-37 14 -91 14q-61 0 -100 -39t-39 -108v-93h266v78q0 168 106.5 272.5t272.5 104.5q74 0 121 -20v-209q-37 14 -90 14q-61 0 -100 -39t-39 -108v-93h270v-215h-270v-655h-271v655h-266v-655h-270 v655h-160zM1368 0v1325h270v-1325h-270z" />
<glyph horiz-adv-x="0" />
<glyph unicode="&#xd;" horiz-adv-x="681" />
<glyph unicode=" "  horiz-adv-x="540" />
<glyph unicode="&#x09;" horiz-adv-x="540" />
<glyph unicode="&#xa0;" horiz-adv-x="540" />
<glyph unicode="!" horiz-adv-x="563" d="M129 133q0 63 46 106.5t114 43.5q66 0 110.5 -43.5t44.5 -106.5q0 -72 -45 -116t-110 -44q-70 0 -115 44t-45 116zM152 1229h272l-14 -834h-244z" />
<glyph unicode="&#x22;" horiz-adv-x="888" d="M57 776l213 549h260l-217 -549h-256zM418 776l213 549h260l-217 -549h-256z" />
<glyph unicode="#" horiz-adv-x="1488" d="M113 322v215h245l68 233h-313v217h374l93 316h245l-90 -316h221l93 316h245l-88 -316h178v-217h-241l-66 -233h307v-215h-368l-90 -322h-250l90 322h-219l-90 -322h-250l90 322h-184zM608 537h221l66 233h-221z" />
<glyph unicode="$" horiz-adv-x="1179" d="M111 143l133 209q70 -59 163 -99t173 -40q88 0 138 31.5t50 85.5q0 76 -106 121l-267 114q-270 117 -270 336q0 125 91 217t245 123v172h254v-166q166 -27 313 -137l-135 -188q-139 100 -285 100q-90 0 -139 -32t-49 -81q0 -45 28.5 -71.5t86.5 -51.5l262 -110 q274 -117 274 -338q0 -131 -97 -227.5t-259 -124.5v-219h-254v219q-195 33 -350 157z" />
<glyph unicode="%" horiz-adv-x="1648" d="M152 0l1060 1303h312l-1057 -1303h-315zM172 1046.5q0 116.5 86 197.5t209 81q121 0 206 -81t85 -197.5t-85 -199.5t-206 -83t-208 83t-87 199.5zM356 1047q0 -47 32 -79t77 -32t75.5 32t30.5 79q0 43 -30.5 74.5t-75.5 31.5t-77 -31.5t-32 -74.5zM899 264q0 117 86 198 t209 81q121 0 206 -81t85 -198t-85 -199.5t-206 -82.5t-208 82.5t-87 199.5zM1083 264q0 -47 32 -78.5t77 -31.5t75.5 31.5t30.5 78.5q0 43 -30.5 75t-75.5 32t-77 -32t-32 -75z" />
<glyph unicode="&#x26;" horiz-adv-x="1318" d="M100 305q0 98 70 181t203 182q-115 117 -144 163q-37 63 -36 136q0 123 105 205.5t257 82.5q154 0 253 -81.5t99 -206.5q0 -86 -50 -158t-161 -160l226 -233q45 45 84 100l170 -135q-35 -53 -103 -125l223 -231v-25h-282l-105 109q-158 -135 -379 -136q-190 0 -310 90.5 t-120 241.5zM371 317q0 -59 46 -95t118 -36q125 0 221 84l-232 238q-88 -61 -120.5 -102.5t-32.5 -88.5zM434 971q0 -10 1 -18.5t5 -17.5t7.5 -16.5t11.5 -17.5l12 -15t15.5 -17.5t16.5 -17.5l20.5 -20.5l19.5 -19.5q70 53 98.5 87t28.5 73q0 41 -35 72.5t-82 31.5 q-55 0 -87 -30.5t-32 -73.5z" />
<glyph unicode="'" horiz-adv-x="530" d="M57 776l213 549h260l-217 -549h-256z" />
<glyph unicode="(" horiz-adv-x="765" d="M146 631q-3 422 221 760h280q-473 -746 19 -1553h-281q-236 371 -239 793z" />
<glyph unicode=")" horiz-adv-x="768" d="M111 -162q492 807 18 1553h281q223 -338 220 -760t-239 -793h-280z" />
<glyph unicode="*" horiz-adv-x="774" d="M76 1051l65 166l164 -72l-8 180h180l-6 -182l168 74l63 -164l-180 -64l115 -147l-148 -105l-100 158l-102 -150l-146 101l113 141z" />
<glyph unicode="+" horiz-adv-x="1163" d="M119 360v236h330v340h272v-340h332v-236h-332v-360h-272v360h-330z" />
<glyph unicode="," horiz-adv-x="483" d="M6 -330l213 549h260l-217 -549h-256z" />
<glyph unicode="-" horiz-adv-x="1089" d="M209 387v246h690v-246h-690z" />
<glyph unicode="." horiz-adv-x="624" d="M160 133q0 63 46 106.5t113 43.5q66 0 111 -43.5t45 -106.5q0 -72 -45 -116t-111 -44q-70 0 -114.5 44t-44.5 116z" />
<glyph unicode="/" horiz-adv-x="1374" d="M109 -180l938 1605h278l-928 -1605h-288z" />
<glyph unicode="0" horiz-adv-x="1253" d="M86 621q0 279 149.5 456.5t391.5 177.5q246 0 395 -176.5t149 -457.5q0 -297 -147 -472.5t-397 -175.5q-246 0 -393.5 175.5t-147.5 472.5zM360 618q0 -190 72 -291.5t195 -101.5q127 0 197.5 101.5t70.5 291.5q0 180 -71.5 283t-196.5 103q-123 0 -195 -103.5 t-72 -282.5z" />
<glyph unicode="1" horiz-adv-x="946" d="M66 829l458 400h273v-1229h-279v907l-303 -260z" />
<glyph unicode="2" horiz-adv-x="1062" d="M86 1065q90 84 208 137t238 53q205 0 320 -97t115 -263q0 -59 -20.5 -116.5t-69 -122t-76 -95.5t-90.5 -100l-236 -234h498v-227h-854v207l407 397q176 172 176 275q0 68 -50 106.5t-138 38.5q-137 0 -291 -139z" />
<glyph unicode="3" horiz-adv-x="1060" d="M82 119l115 194q117 -109 286 -108q98 0 158.5 47t60.5 121q0 72 -60 114.5t-161 42.5h-141v209h137q88 0 141.5 45t53.5 109q0 61 -50.5 102t-140.5 41q-139 0 -270 -100l-109 180q186 139 398 139q201 0 319.5 -95t118.5 -242q0 -156 -166 -271q82 -39 142.5 -115.5 t60.5 -181.5q0 -162 -135 -269.5t-344 -107.5q-240 0 -414 146z" />
<glyph unicode="4" horiz-adv-x="1239" d="M74 434l581 795h338v-789h172v-211h-172v-229h-248v229h-552zM342 440h403v555z" />
<glyph unicode="5" horiz-adv-x="1105" d="M94 127l117 195q133 -119 305 -119q109 0 176.5 56t67.5 149q0 90 -75 142t-196 52q-137 0 -241 -49l-111 102l94 574h684v-211h-464l-35 -230q57 16 157 17q190 0 319.5 -107.5t129.5 -289.5q0 -193 -138.5 -314t-361.5 -121q-115 0 -229.5 42t-198.5 112z" />
<glyph unicode="6" horiz-adv-x="1110" d="M84 573q0 346 146.5 514t392.5 168q209 0 352 -98l-109 -188q-104 66 -227 65q-131 0 -211 -83t-86 -238q98 104 270 104q197 0 316 -116t119 -300q0 -186 -133.5 -307t-344.5 -121q-94 0 -177 31t-153.5 97.5t-112.5 187.5t-42 284zM369 405.5q0 -90.5 60 -147.5 t149 -57q90 0 149 57t59 145q0 92 -57 146.5t-151 54.5q-90 0 -149.5 -54t-59.5 -144.5z" />
<glyph unicode="7" horiz-adv-x="1036" d="M92 991v238h856v-219l-495 -1010h-308l502 991h-555z" />
<glyph unicode="8" horiz-adv-x="1181" d="M106 348q0 113 68 191.5t152 115.5q-178 102 -179 281q0 135 126 227t325 92q203 0 324.5 -92t121.5 -229q0 -106 -57 -175t-129 -104q90 -35 159.5 -113.5t69.5 -193.5q0 -172 -138 -273.5t-351 -101.5q-205 0 -348.5 102.5t-143.5 272.5zM391 354.5q0 -75.5 58.5 -128 t146.5 -52.5q92 0 147.5 52.5t55.5 127.5q0 78 -54.5 131.5t-148.5 53.5q-92 0 -148.5 -54.5t-56.5 -130zM414 922q0 -68 48 -117t134 -49t136 50t50 116q0 57 -49 103t-137 46t-135 -45t-47 -104z" />
<glyph unicode="9" horiz-adv-x="1069" d="M55 827q0 186 133.5 307t343.5 121q94 0 177.5 -30.5t154 -97t112.5 -187.5t42 -285q0 -346 -146.5 -514t-392.5 -168q-209 0 -352 99l109 188q104 -66 227 -65q131 0 211 82.5t86 238.5q-98 -104 -271 -104q-197 0 -315.5 115.5t-118.5 299.5zM315 825q0 -92 57.5 -146 t151.5 -54q90 0 149.5 54t59.5 144t-60.5 147.5t-148.5 57.5q-90 0 -149.5 -57.5t-59.5 -145.5z" />
<glyph unicode=":" horiz-adv-x="624" d="M160 133q0 63 46 106.5t113 43.5q66 0 111 -43.5t45 -106.5q0 -72 -45 -116t-111 -44q-70 0 -114.5 44t-44.5 116zM160 739q0 63 46 106.5t113 43.5q66 0 111 -43.5t45 -106.5q0 -72 -45 -115.5t-111 -43.5q-70 0 -114.5 44t-44.5 115z" />
<glyph unicode=";" horiz-adv-x="530" d="M2 -330l213 549h260l-217 -549h-256zM197 786q0 63 46 106.5t113 43.5q66 0 111 -43.5t45 -106.5q0 -72 -45 -115.5t-111 -43.5q-70 0 -114.5 44t-44.5 115z" />
<glyph unicode="&#x3c;" horiz-adv-x="1165" d="M154 508v203l569 495h352l-704 -600l704 -606h-352z" />
<glyph unicode="=" horiz-adv-x="1251" d="M199 92v234h860v-234h-860zM199 580v233h860v-233h-860z" />
<glyph unicode="&#x3e;" horiz-adv-x="1187" d="M119 0l704 606l-704 600h352l569 -495v-203l-569 -508h-352z" />
<glyph unicode="?" horiz-adv-x="1013" d="M86 1061q80 84 191.5 139t230.5 55q193 0 310.5 -93t117.5 -236q0 -49 -15.5 -92t-56.5 -91.5t-63.5 -71t-81.5 -77.5q-98 -88 -98 -162v-65h-246v63q0 76 24.5 132t85.5 116q16 14 61.5 55t64 59.5t38 50t19.5 60.5q0 127 -170 127q-68 0 -138.5 -40t-126.5 -99z M342 133q0 63 46 106.5t111.5 43.5t111.5 -43.5t46 -106.5q0 -72 -45 -116t-112.5 -44t-112.5 44t-45 116z" />
<glyph unicode="@" horiz-adv-x="1994" d="M147 436q0 369 249 613.5t616 244.5q369 0 613.5 -223t244.5 -545q0 -244 -100.5 -364.5t-239.5 -120.5q-156 0 -227 104q-111 -135 -328 -135q-164 0 -270.5 80t-106.5 205t108.5 204t299.5 79q102 0 182 -15v17q0 68 -55.5 111.5t-161.5 43.5q-152 0 -283 -76v193 q139 72 297 72q225 0 339 -100.5t114 -264.5v-217q0 -104 90 -104q123 0 123 286q0 242 -180.5 407t-460.5 165q-272 0 -455.5 -185.5t-183.5 -466.5q0 -285 205.5 -458.5t500.5 -173.5q254 0 461 133l96 -187q-242 -150 -549 -149q-250 0 -460.5 97t-344 288.5 t-133.5 441.5zM840 309.5q0 -55.5 42 -86t107 -30.5q138 0 199 94v125q-78 14 -156 14q-90 0 -141 -30.5t-51 -86z" />
<glyph unicode="A" horiz-adv-x="1595" d="M27 0l624 1229h291l633 -1229h-315l-142 293h-657l-142 -293h-292zM565 508h451l-223 465z" />
<glyph unicode="B" horiz-adv-x="1220" d="M143 0v1229h547q199 0 317.5 -86t118.5 -230q0 -154 -159 -266q196 -98 196 -297q0 -160 -122 -255t-310 -95h-588zM416 215h274q82 0 135.5 47t53.5 119q0 70 -47 113t-127 43h-289v-322zM416 741h280q63 0 104.5 41t41.5 97q0 59 -43 97t-115 38h-268v-273z" />
<glyph unicode="C" horiz-adv-x="1312" d="M59 625q0 268 195 449t479 181q311 0 522 -237l-190 -180q-122 161 -325 161h-3q-166 0 -283.5 -107.5t-117.5 -266.5q0 -176 119.5 -286t283.5 -110q214 0 351 174l194 -167q-205 -262 -536 -263q-291 0 -490 183.5t-199 468.5z" />
<glyph unicode="D" horiz-adv-x="1337" d="M143 0v1229h432q334 0 517.5 -151.5t183.5 -444.5q0 -287 -187 -460t-511 -173h-435zM416 236h159q203 0 311.5 103t108.5 288q0 176 -107.5 271t-312.5 95h-159v-757z" />
<glyph unicode="E" horiz-adv-x="1060" d="M143 0v1229h856v-236h-583v-262h553v-223h-553v-272h581v-236h-854z" />
<glyph unicode="F" horiz-adv-x="1019" d="M143 0v1229h824v-236h-551v-321h514v-230h-514v-442h-273z" />
<glyph unicode="G" horiz-adv-x="1386" d="M59 623q0 264 197 448t483 184q295 0 514 -202l-186 -183q-129 129 -324 129q-168 0 -281.5 -108.5t-113.5 -267.5q0 -178 120 -289t294 -111q172 0 266 70v166h-266v211h528v-535q-207 -162 -528 -162q-301 0 -502 181.5t-201 468.5z" />
<glyph unicode="H" horiz-adv-x="1402" d="M143 0v1229h275v-494h586v494h272v-1229h-272v494h-586v-494h-275z" />
<glyph unicode="I" horiz-adv-x="602" d="M162 0v1229h280v-1229h-280z" />
<glyph unicode="J" horiz-adv-x="856" d="M45 57l90 215q82 -53 170 -53q45 0 76 14.5t47 35t24.5 59.5t10.5 69.5t2 81.5v750h278v-862q0 -180 -104 -287t-289 -107q-72 0 -160 23.5t-145 60.5z" />
<glyph unicode="K" horiz-adv-x="1294" d="M143 0v1229h277v-516l459 516h352l-518 -574l569 -655h-367l-495 586v-586h-277z" />
<glyph unicode="L" horiz-adv-x="1009" d="M143 0v1229h273v-993h542v-236h-815z" />
<glyph unicode="M" horiz-adv-x="1636" d="M143 0v1229h289l391 -539l406 539h270v-1229h-270v809l-412 -535h-12l-389 535v-809h-273z" />
<glyph unicode="N" horiz-adv-x="1464" d="M143 0v1229h254l668 -793v793h274v-1229h-260l-667 793v-793h-269z" />
<glyph unicode="O" horiz-adv-x="1439" d="M57 618q0 266 194.5 451.5t467 185.5t468 -185t195.5 -452q0 -268 -195.5 -456.5t-468 -188.5t-467 188.5t-194.5 456.5zM332 618q0 -168 111.5 -280.5t275.5 -112.5q166 0 274.5 112t108.5 281q0 166 -108.5 276t-274.5 110q-164 0 -275.5 -112t-111.5 -274z" />
<glyph unicode="P" horiz-adv-x="1153" d="M141 0v1229h461q223 0 365.5 -116t142.5 -312q0 -193 -144.5 -314.5t-363.5 -121.5h-188v-365h-273zM414 594h180q109 0 177.5 56.5t68.5 152.5q0 92 -67.5 143t-176.5 51h-182v-403z" />
<glyph unicode="Q" horiz-adv-x="1421" d="M51 618q0 266 194.5 451.5t467 185.5t468 -185t195.5 -452q0 -244 -166 -425l160 -173l-192 -167l-174 186q-141 -66 -291 -66q-272 0 -467 188.5t-195 456.5zM326 618q0 -168 111.5 -280.5t275.5 -112.5q166 0 274.5 112t108.5 281q0 166 -108.5 276t-274.5 110 q-164 0 -275.5 -112t-111.5 -274z" />
<glyph unicode="R" horiz-adv-x="1282" d="M143 0v1229h514q223 0 359.5 -102.5t136.5 -280.5q0 -125 -77 -222.5t-210 -144.5l406 -479h-342l-355 440h-159v-440h-273zM416 659h239q90 0 147.5 49.5t57.5 125.5q0 78 -57.5 125t-147.5 47h-239v-347z" />
<glyph unicode="S" horiz-adv-x="1107" d="M74 143l133 209q70 -59 163 -99t173 -40q88 0 138 31.5t50 85.5q0 76 -106 121l-267 114q-270 117 -270 336q0 152 132 253t341 101q240 0 430 -145l-135 -188q-139 100 -285 100q-90 0 -139 -32t-49 -81q0 -45 28.5 -71.5t86.5 -51.5l262 -110q274 -117 274 -338 q0 -156 -137 -260.5t-352 -104.5q-258 0 -471 170z" />
<glyph unicode="T" horiz-adv-x="1044" d="M43 993v236h971v-236h-350v-993h-271v993h-350z" />
<glyph unicode="U" horiz-adv-x="1351" d="M131 522v707h272v-709q0 -147 80 -221t201 -74q125 0 199.5 72.5t74.5 222.5v709h269v-707q0 -264 -148.5 -406.5t-394.5 -142.5q-238 0 -395.5 141.5t-157.5 407.5z" />
<glyph unicode="V" horiz-adv-x="1388" d="M20 1229h302l372 -905l383 905h293l-530 -1229h-293z" />
<glyph unicode="W" horiz-adv-x="1943" d="M25 1229h272l246 -873l301 873h272l301 -873l248 873h256l-371 -1229h-290l-289 846l-301 -846h-291z" />
<glyph unicode="X" horiz-adv-x="1310" d="M23 0l448 623l-418 606h330l281 -418l292 418h301l-423 -600l458 -629h-327l-301 436l-312 -436h-329z" />
<glyph unicode="Y" horiz-adv-x="1294" d="M25 1229h309l321 -533l328 533h293l-488 -770v-459h-278v459z" />
<glyph unicode="Z" horiz-adv-x="1155" d="M98 0v190l611 799h-592v240h942v-207l-598 -784h594v-238h-957z" />
<glyph unicode="[" horiz-adv-x="839" d="M209 -162v1553h489v-230h-252v-1095h252v-228h-489z" />
<glyph unicode="\" horiz-adv-x="1351" d="M84 1425h278l938 -1605h-288z" />
<glyph unicode="]" horiz-adv-x="841" d="M172 68h252v1095h-252v228h490v-1553h-490v230z" />
<glyph unicode="^" horiz-adv-x="1087" d="M182 684l254 627h234q84 -209 256 -627h-215l-160 383l-154 -383h-215z" />
<glyph unicode="_" horiz-adv-x="1062" d="M74 -80h919v-217h-919v217z" />
<glyph unicode="`" d="M514 1315v10h262l256 -332h-244z" />
<glyph unicode="a" horiz-adv-x="1024" d="M68 262q0 125 115.5 204t312.5 79q55 0 186 -17v15q0 72 -55.5 114.5t-171.5 42.5q-164 0 -297 -69v194q137 63 317 64q225 0 341 -100.5t116 -264.5v-524h-240v66q-109 -84 -260 -84q-164 0 -264 77.5t-100 202.5zM332 270.5q0 -53.5 42 -84t109 -30.5q138 0 199 88v135 q-66 12 -156 12q-88 0 -141 -33.5t-53 -87z" />
<glyph unicode="b" horiz-adv-x="1138" d="M121 0v1325h268v-479q90 43 203 43q199 0 340 -126t141 -321q0 -209 -138 -334.5t-317 -125.5q-170 0 -274 100v-82h-223zM389 283q59 -78 178 -78q96 0 164 62.5t68 174.5q0 102 -68.5 164t-167 62t-174.5 -45v-340z" />
<glyph unicode="c" horiz-adv-x="966" d="M68 442q0 186 139 316.5t340 130.5q221 0 368 -154l-170 -174q-74 90 -194 90q-90 0 -156.5 -60.5t-66.5 -148.5q0 -98 65.5 -158.5t157.5 -60.5q129 1 203 105l182 -162q-137 -184 -389 -184q-203 0 -341 132t-138 328z" />
<glyph unicode="d" horiz-adv-x="1130" d="M68 442q0 195 141 321t340 126q113 0 203 -43v479h268v-1325h-223v82q-104 -100 -275 -100q-178 0 -316 125.5t-138 334.5zM342 442q0 -113 67.5 -175t163.5 -62q119 0 179 78v340q-76 45 -174.5 45t-167 -61.5t-68.5 -164.5z" />
<glyph unicode="e" horiz-adv-x="1015" d="M68 440q0 186 130 317.5t318 131.5q213 1 341 -143q120 -135 120 -363v-29h-651q16 -80 79.5 -124t157.5 -44q150 0 240 101l137 -158q-154 -147 -377 -147q-217 0 -356 128t-139 330zM328 526h387q-6 76 -55.5 125t-135.5 49q-78 0 -132 -50t-64 -124z" />
<glyph unicode="f" horiz-adv-x="776" d="M49 655v215h160v66q0 170 120 279.5t300 109.5q100 0 188 -35v-211q-63 31 -143 31q-86 0 -140.5 -50t-54.5 -132v-58h283v-215h-283v-655h-270v655h-160z" />
<glyph unicode="g" horiz-adv-x="1124" d="M68 453q0 199 154.5 317.5t377.5 118.5q219 0 412 -92v-772q0 -197 -134.5 -311.5t-357.5 -114.5q-102 0 -210.5 32.5t-184.5 83.5l84 197q135 -94 299 -94q115 0 179.5 56t64.5 153v30q-80 -53 -209 -53q-197 0 -336 118t-139 331zM338 453q0 -109 72.5 -169.5 t175 -60.5t159.5 56v362q-74 35 -155 35q-106 0 -179 -63.5t-73 -159.5z" />
<glyph unicode="h" horiz-adv-x="1142" d="M141 0v1325h269v-547q143 111 288 111q158 0 253.5 -88t95.5 -260v-541h-271v479q0 82 -45 124t-113 42q-119 0 -208 -102v-543h-269z" />
<glyph unicode="i" horiz-adv-x="538" d="M127 1188q0 63 46 106t114 43q66 0 110.5 -43t44.5 -106q0 -72 -45 -116t-110 -44q-70 0 -115 44t-45 116zM145 0v870h271v-870h-271z" />
<glyph unicode="j" horiz-adv-x="583" d="M-170 -356l78 211q68 -41 137 -41q145 0 145 153v903h271v-923q0 -168 -101.5 -269.5t-263.5 -101.5q-147 0 -266 68zM170 1188q0 63 46 106t114 43q66 0 110.5 -43t44.5 -106q0 -72 -45 -116t-110 -44q-70 0 -115 44t-45 116z" />
<glyph unicode="k" horiz-adv-x="1085" d="M141 0v1325h271v-745l301 290h342l-387 -372l415 -498h-338l-333 408v-408h-271z" />
<glyph unicode="l" horiz-adv-x="516" d="M135 0v1325h271v-1325h-271z" />
<glyph unicode="m" horiz-adv-x="1644" d="M141 0v870h248v-102q125 121 277 121q158 0 243 -117q141 117 293 117q150 0 245 -91t95 -259v-539h-270v520q0 66 -34 105t-91 39q-94 0 -172 -89v-575h-268v526q0 61 -33 99.5t-88 38.5q-47 0 -96.5 -27t-79.5 -68v-569h-269z" />
<glyph unicode="n" horiz-adv-x="1157" d="M135 0v870h254v-104q137 123 305 123q158 0 252 -88t94 -260v-541h-270v481q0 80 -43 123t-115 43q-57 0 -114.5 -28.5t-91.5 -73.5v-545h-271z" />
<glyph unicode="o" horiz-adv-x="1040" d="M55 436q0 190 136.5 321.5t333 131.5t332.5 -132t136 -320.5t-136 -321.5t-332.5 -133t-333 133t-136.5 321zM328 438q0 -94 55 -152.5t141 -58.5t141.5 58.5t55.5 152.5q0 92 -56.5 152.5t-140.5 60.5t-140 -60.5t-56 -152.5z" />
<glyph unicode="p" horiz-adv-x="1146" d="M131 -455v1325h223v-82q104 100 275 101q178 0 316 -126t138 -335q0 -195 -141 -320.5t-340 -125.5q-113 0 -203 43v-480h-268zM399 248q76 -45 174.5 -45t167 61.5t68.5 163.5q0 113 -67.5 175.5t-163.5 62.5q-119 0 -179 -78v-340z" />
<glyph unicode="q" horiz-adv-x="1124" d="M68 453q0 201 156.5 318.5t379.5 117.5q201 0 410 -86v-1258h-260v508q-86 -51 -207 -51q-195 0 -337 118t-142 333zM338 453q0 -109 72 -170.5t174 -61.5q109 0 161 58v362q-72 33 -151 33q-109 0 -182.5 -62.5t-73.5 -158.5z" />
<glyph unicode="r" horiz-adv-x="749" d="M111 0v870h239v-122q39 63 109.5 102t146.5 39q66 0 121 -21v-243q-49 18 -119 18q-74 0 -137 -46t-90 -116v-481h-270z" />
<glyph unicode="s" horiz-adv-x="837" d="M59 100l95 174q115 -94 249 -94q123 0 123 60q0 25 -19.5 41t-64.5 34l-159 66q-213 88 -213 246q0 111 96 186.5t260 75.5q186 0 322 -101l-103 -155q-91 67 -200 67h-3q-116 0 -116 -62q0 -42 77 -75l164 -71q213 -86 213 -246q0 -119 -100 -191.5t-262 -72.5 q-203 0 -359 118z" />
<glyph unicode="t" horiz-adv-x="813" d="M47 659v211h150v265h270v-265h313v-211h-313v-270q0 -84 47 -128t123 -44q78 0 137 27v-230q-76 -32 -170 -32h-6q-193 0 -297 98t-104 272v307h-150z" />
<glyph unicode="u" horiz-adv-x="1118" d="M111 330v540h270v-481q0 -80 43 -123t115 -43q57 0 114.5 29t91.5 74v544h271v-870h-254v104q-136 -122 -302 -122h-3q-158 0 -252 88t-94 260z" />
<glyph unicode="v" horiz-adv-x="1079" d="M27 870h295l223 -583l233 583h285l-375 -870h-291z" />
<glyph unicode="w" horiz-adv-x="1542" d="M20 870h279l158 -567l188 567h254l186 -567l166 567h267l-289 -870h-264l-195 545l-195 -545h-276z" />
<glyph unicode="x" horiz-adv-x="1091" d="M23 0l337 455l-303 415h330q14 -20 72.5 -108t91.5 -135l172 243h301l-301 -411q31 -39 156.5 -205t195.5 -254h-325l-199 287l-201 -287h-327z" />
<glyph unicode="y" horiz-adv-x="1105" d="M25 870h301l235 -497l242 497h287q-109 -217 -674 -1325h-289l289 553z" />
<glyph unicode="z" horiz-adv-x="911" d="M72 0v160l417 504h-397v206h735v-180l-409 -481h416v-209h-762z" />
<glyph unicode="{" horiz-adv-x="886" d="M88 528v185h37q131 0 131 131v235q0 145 85 231.5t257 86.5h143v-199h-84q-162 0 -161 -168v-231q0 -141 -117 -181q63 -20 90 -63t27 -115v-219q0 -180 170 -180h75v-199h-133q-170 0 -261 89t-91 237v235q0 55 -37 90t-94 35h-37z" />
<glyph unicode="|" horiz-adv-x="598" d="M168 -233v1646h276v-1646h-276z" />
<glyph unicode="}" horiz-adv-x="886" d="M164 41h84q162 0 162 168v231q0 141 116 181q-63 20 -89.5 63t-26.5 115v219q0 180 -170 180h-76v199h133q170 0 261 -89t91 -237v-235q0 -55 37 -90t94 -35h37v-185h-37q-131 0 -131 -131v-235q0 -145 -85 -231.5t-257 -86.5h-143v199z" />
<glyph unicode="~" horiz-adv-x="1269" d="M141 358q0 164 85 252t210 88q78 0 209 -57t182 -57q86 0 86 125h222q-2 -188 -71 -266t-204 -78q-86 0 -215 58t-170 58q-43 0 -73.5 -34.5t-30.5 -88.5h-230z" />
<glyph unicode="&#xa1;" horiz-adv-x="563" d="M129 729q0 72 45 116t115 44q66 0 110.5 -44t44.5 -116q0 -63 -45 -106t-110 -43q-68 0 -114 43t-46 106zM152 -367l14 834h244l14 -834h-272z" />
<glyph unicode="&#xa2;" horiz-adv-x="1054" d="M104 442q0 156 100.5 277t260.5 155v181h254v-183q133 -33 233 -137l-170 -174q-74 90 -194 90q-90 0 -156.5 -60.5t-66.5 -148.5q0 -98 65.5 -158.5t157.5 -60.5q129 0 203 105l182 -162q-96 -129 -254 -168v-197h-254v195q-160 35 -260.5 156.5t-100.5 289.5z" />
<glyph unicode="&#xa3;" horiz-adv-x="1112" d="M137 0v215h56q49 0 78.5 29.5t29.5 87.5v260h-164v215h164v125q0 172 121 279.5t315 107.5q127 0 228 -37v-209q-78 31 -185 31q-94 0 -151.5 -49t-57.5 -131v-117h347v-215h-347v-256q0 -92 -75 -121h489v-215h-848z" />
<glyph unicode="&#xa4;" horiz-adv-x="1456" d="M147 1022l185 172l135 -133q119 66 254 65q145 0 264 -73l139 133l179 -174l-144 -140q64 -110 64 -231q0 -133 -72 -248l154 -145l-187 -176l-153 143q-113 -61 -244 -61t-236 57l-149 -148l-184 170l145 148q-78 121 -78 260q0 133 68 242zM483 641q0 -98 70 -169 t168 -71t166.5 71t68.5 169t-68.5 168t-166.5 70t-168 -70t-70 -168z" />
<glyph unicode="&#xa5;" horiz-adv-x="1517" d="M133 1229h309l322 -533l328 533h292l-323 -512h153v-152h-249l-68 -106v-15h317v-151h-317v-293h-279v293h-360v151h360v15l-67 106h-293v152h197z" />
<glyph unicode="&#xa6;" horiz-adv-x="634" d="M168 -233v694h276v-694h-276zM168 719v694h276v-694h-276z" />
<glyph unicode="&#xa7;" horiz-adv-x="1179" d="M119 555q0 154 155 240q-141 102 -141 264q0 152 132 252t341 100q244 0 432 -133l-120 -191q-129 100 -302 101q-92 0 -142 -35t-50 -88q0 -74 106 -119l275 -115q293 -123 293 -348q0 -156 -150 -243q127 -100 127 -256q0 -158 -134 -261.5t-349 -103.5q-125 0 -253 44 t-216 118l121 211q160 -139 342 -139q90 0 140 33.5t50 88.5q0 78 -104 121l-271 115q-283 123 -282 344zM395 567q0 -78 107 -118l217 -93q104 27 104 111q0 78 -104 121l-223 94q-47 -12 -74 -44t-27 -71z" />
<glyph unicode="&#xa8;" d="M430 1161q0 55 40 92t99.5 37t98.5 -37t39 -92q0 -66 -39 -103.5t-98.5 -37.5t-99.5 39t-40 102zM827 1161q0 55 40 92t99.5 37t99.5 -37t40 -92q0 -63 -40 -102t-99.5 -39t-99.5 39t-40 102z" />
<glyph unicode="&#xa9;" horiz-adv-x="1607" d="M129 623q0 266 198.5 452.5t485.5 186.5q283 0 477.5 -186.5t194.5 -452.5q0 -268 -194.5 -455.5t-477.5 -187.5q-287 0 -485.5 187t-198.5 456zM311 616q0 -199 143.5 -331.5t356.5 -132.5q207 0 348 133t141 338q0 199 -140 331.5t-349 132.5q-213 0 -356.5 -133 t-143.5 -338zM459 631q0 141 105.5 237.5t252.5 96.5q170 0 283 -134l-117 -114q-63 88 -164 88q-76 0 -131 -50t-55 -124q0 -80 55 -131t131 -51q109 0 172 92l123 -103q-106 -150 -291 -149q-154 0 -259 97t-105 245z" />
<glyph unicode="&#xaa;" horiz-adv-x="991" d="M178 371v188h629v-188h-629zM178 879q0 88 82 144t221 56q39 0 133 -12v10q0 113 -161 113q-119 0 -211 -49v139q96 45 225 45q162 0 244 -71.5t82 -188.5v-373h-170v47q-78 -59 -187 -59q-115 0 -186.5 55.5t-71.5 143.5zM365 885q0 -37 29.5 -59.5t78.5 -22.5 q98 0 141 63v97q-51 8 -110 8q-63 0 -101 -23.5t-38 -62.5z" />
<glyph unicode="&#xab;" horiz-adv-x="1058" d="M66 449l253 411h271l-248 -411l248 -406h-271zM504 449l254 411h270l-248 -411l248 -406h-270z" />
<glyph unicode="&#xac;" horiz-adv-x="1132" d="M137 365v235h879v-467h-273v232h-606z" />
<glyph unicode="&#xad;" horiz-adv-x="1089" d="M209 387v246h690v-246h-690z" />
<glyph unicode="&#xae;" horiz-adv-x="1183" d="M141 897q0 180 134.5 304t322.5 124q193 0 322 -123t129 -305q0 -193 -129 -315.5t-322 -122.5q-188 0 -322.5 125t-134.5 313zM270 897q0 -137 95.5 -229.5t232.5 -92.5q145 0 233.5 89.5t88.5 228.5q0 137 -89.5 225t-232.5 88q-135 0 -231.5 -88t-96.5 -221zM430 700 v410h176q74 0 120 -35t46 -96q0 -84 -80 -121l129 -158h-129l-104 140h-49v-140h-109zM539 924h63q23 0 38 15t15 35.5t-15 35t-38 14.5h-63v-100z" />
<glyph unicode="&#xaf;" d="M453 1042v203h639v-203h-639z" />
<glyph unicode="&#xb0;" horiz-adv-x="940" d="M172 1046.5q0 116.5 86 197.5t209 81q121 0 206 -81t85 -197.5t-85 -199.5t-206 -83t-208 83t-87 199.5zM356 1047q0 -47 32 -79t77 -32t75.5 32t30.5 79q0 43 -30.5 74.5t-75.5 31.5t-77 -31.5t-32 -74.5z" />
<glyph unicode="&#xb1;" horiz-adv-x="1038" d="M135 0v170h811v-170h-811zM135 508v184h297v244h215v-244h299v-184h-299v-262h-215v262h-297z" />
<glyph unicode="&#xb4;" d="M516 993l256 332h262v-10l-274 -322h-244z" />
<glyph unicode="&#xb6;" horiz-adv-x="1366" d="M100 874q0 197 142.5 313t365.5 116h244v-1575h-193v710h-51q-219 0 -363.5 122t-144.5 314zM1012 -272v1575h192v-1575h-192z" />
<glyph unicode="&#xb7;" d="M608 618q0 63 46 106.5t114 43.5q66 0 111 -43.5t45 -106.5q0 -72 -45 -115.5t-111 -43.5q-70 0 -115 44t-45 115z" />
<glyph unicode="&#xb8;" d="M586 -264q49 -12 108 -12q94 0 94 51q0 37 -71 37q-43 0 -70 -5l-18 103q55 12 121 12q80 0 132 -37.5t52 -103.5q0 -72 -58.5 -117t-154.5 -45q-66 0 -111 10z" />
<glyph unicode="&#xba;" horiz-adv-x="978" d="M147 1001q0 135 96.5 229.5t237.5 94.5q139 0 236.5 -94t97.5 -230q0 -133 -97 -227t-236.5 -94t-237 94t-97.5 227zM178 371v188h629v-188h-629zM342 1004q0 -68 39 -109t100.5 -41t100.5 41t39 109q0 66 -40 108.5t-99.5 42.5t-99.5 -42.5t-40 -108.5z" />
<glyph unicode="&#xbb;" horiz-adv-x="1064" d="M49 43l248 406l-248 411h270l254 -411l-254 -406h-270zM494 43l247 406l-247 411h270l254 -411l-254 -406h-270z" />
<glyph unicode="&#xbf;" horiz-adv-x="995" d="M84 -63q0 49 15.5 92t56.5 91t63.5 70.5t81.5 77.5q98 88 98 162v66h246v-64q0 -76 -24.5 -132t-85.5 -116q-16 -14 -61.5 -55t-64 -59.5t-38 -50t-19.5 -60.5q0 -127 170 -127q68 0 138.5 40t125.5 99l148 -170q-80 -84 -191.5 -139t-230.5 -55q-193 0 -310.5 93 t-117.5 237zM362 729q0 72 45.5 116t113 44t112.5 -44t45 -116q0 -63 -46 -106t-111.5 -43t-112 43t-46.5 106z" />
<glyph unicode="&#xc0;" horiz-adv-x="1591" d="M27 0l624 1229h291l633 -1229h-315l-142 293h-657l-142 -293h-292zM487 1536v12h269l151 -229h-248zM565 508h451l-223 465z" />
<glyph unicode="&#xc1;" horiz-adv-x="1599" d="M27 0l624 1229h291l633 -1229h-315l-142 293h-657l-142 -293h-292zM565 508h451l-223 465zM674 1329l170 230h272v-13l-178 -217h-264z" />
<glyph unicode="&#xc2;" horiz-adv-x="1593" d="M27 0l624 1229h291l633 -1229h-315l-142 293h-657l-142 -293h-292zM453 1298l194 263h293l195 -263h-238l-104 132l-103 -132h-237zM565 508h451l-223 465z" />
<glyph unicode="&#xc3;" horiz-adv-x="1593" d="M27 0l624 1229h291l633 -1229h-315l-142 293h-657l-142 -293h-292zM444 1350v14q0 113 58.5 174t150.5 61q57 0 144.5 -30.5t111.5 -30.5q57 0 58 61v11h174v-19q0 -231 -203 -231q-57 0 -144 31.5t-106 31.5q-59 1 -59 -73h-185zM565 508h451l-223 465z" />
<glyph unicode="&#xc4;" horiz-adv-x="1597" d="M27 0l624 1229h291l633 -1229h-315l-142 293h-657l-142 -293h-292zM455 1434q0 55 40 92t99 37t98 -37t39 -92q0 -63 -39 -101.5t-98 -38.5t-99 38t-40 102zM565 508h451l-223 465zM852 1434q0 55 40 92t99.5 37t99 -37t39.5 -92q0 -63 -39.5 -101.5t-99 -38.5t-99.5 38 t-40 102z" />
<glyph unicode="&#xc5;" horiz-adv-x="1597" d="M27 0l624 1229h291l633 -1229h-315l-142 293h-657l-142 -293h-292zM565 508h451l-223 465zM590 1485q0 84 60.5 139t148.5 55q86 0 145.5 -55t59.5 -139q0 -92 -58.5 -148.5t-146.5 -56.5q-90 0 -149.5 56.5t-59.5 148.5zM731 1481q0 -31 19.5 -48.5t48 -17.5t47 17.5 t18.5 48.5q0 27 -19.5 45t-45.5 18q-29 0 -48.5 -18.5t-19.5 -44.5z" />
<glyph unicode="&#xc6;" horiz-adv-x="1867" d="M27 0l837 1229h948v-236h-585v-262h555v-223h-555v-272h583v-236h-856v291l-442 2l-195 -293h-290zM651 508h303v457z" />
<glyph unicode="&#xc7;" horiz-adv-x="1316" d="M47 625q0 268 194.5 449t479.5 181q311 0 522 -237l-190 -180q-123 162 -328 161q-166 0 -283.5 -107.5t-117.5 -266.5q0 -176 119.5 -286t283.5 -110q213 0 350 174l195 -167q-205 -262 -537 -263q-291 0 -489.5 183.5t-198.5 468.5zM530 -264q49 -12 109 -12 q94 0 94 51q0 37 -71 37q-43 0 -70 -5l-19 103q55 12 121 12q80 0 132.5 -37.5t52.5 -103.5q0 -72 -58.5 -117t-154.5 -45q-66 0 -111 10z" />
<glyph unicode="&#xc8;" horiz-adv-x="1056" d="M143 0v1229h856v-236h-583v-262h553v-223h-553v-272h581v-236h-854zM291 1546v13h268l152 -230h-248z" />
<glyph unicode="&#xc9;" horiz-adv-x="1062" d="M143 0v1229h856v-236h-583v-262h553v-223h-553v-272h581v-236h-854zM428 1329l170 230h272v-13l-178 -217h-264z" />
<glyph unicode="&#xca;" horiz-adv-x="1060" d="M143 0v1229h856v-236h-583v-262h553v-223h-553v-272h581v-236h-854zM236 1298l194 263h293l195 -263h-238l-105 132l-102 -132h-237z" />
<glyph unicode="&#xcb;" horiz-adv-x="1062" d="M143 0v1229h856v-236h-583v-262h553v-223h-553v-272h581v-236h-854zM242 1434q0 55 40 92t99 37t98 -37t39 -92q0 -63 -39 -101.5t-98 -38.5t-99 38t-40 102zM639 1434q0 55 40 92t99.5 37t99.5 -37t40 -92q0 -63 -40 -101.5t-99.5 -38.5t-99.5 38t-40 102z" />
<glyph unicode="&#xcc;" horiz-adv-x="602" d="M-2 1546v13h268l152 -230h-248zM162 0v1229h280v-1229h-280z" />
<glyph unicode="&#xcd;" horiz-adv-x="602" d="M162 0v1229h280v-1229h-280zM170 1329l170 230h272v-13l-178 -217h-264z" />
<glyph unicode="&#xce;" horiz-adv-x="602" d="M-35 1298l195 263h293l194 -263h-237l-105 132l-102 -132h-238zM162 0v1229h280v-1229h-280z" />
<glyph unicode="&#xcf;" horiz-adv-x="602" d="M-33 1434q0 55 40 92t99.5 37t98.5 -37t39 -92q0 -63 -39 -101.5t-98.5 -38.5t-99.5 38t-40 102zM162 0v1229h280v-1229h-280zM365 1434q0 55 39.5 92t99 37t99.5 -37t40 -92q0 -63 -40 -101.5t-99.5 -38.5t-99 38t-39.5 102z" />
<glyph unicode="&#xd0;" horiz-adv-x="1372" d="M47 526v203h146v500h432q334 0 517 -151.5t183 -444.5q0 -287 -187.5 -460t-510.5 -173h-434v526h-146zM465 236h160q203 0 311 103t108 288q0 176 -107.5 271t-311.5 95h-160v-264h221v-203h-221v-290z" />
<glyph unicode="&#xd1;" horiz-adv-x="1464" d="M143 0v1229h254l668 -793v793h274v-1229h-260l-667 793v-793h-269zM373 1350v14q0 113 58 174t151 61q57 0 144 -30.5t112 -30.5q57 0 57 61v11h174v-19q0 -231 -203 -231q-57 0 -144 31.5t-106 31.5q-59 1 -59 -73h-184z" />
<glyph unicode="&#xd2;" horiz-adv-x="1435" d="M57 618q0 266 194.5 451.5t467 185.5t468 -185t195.5 -452q0 -268 -195.5 -456.5t-468 -188.5t-467 188.5t-194.5 456.5zM332 618q0 -168 111.5 -280.5t275.5 -112.5q166 0 274.5 112t108.5 281q0 166 -108.5 276t-274.5 110q-164 0 -275.5 -112t-111.5 -274zM416 1546 v13h268l152 -230h-248z" />
<glyph unicode="&#xd3;" horiz-adv-x="1439" d="M57 618q0 266 194.5 451.5t467 185.5t468 -185t195.5 -452q0 -268 -195.5 -456.5t-468 -188.5t-467 188.5t-194.5 456.5zM332 618q0 -168 111.5 -280.5t275.5 -112.5q166 0 274.5 112t108.5 281q0 166 -108.5 276t-274.5 110q-164 0 -275.5 -112t-111.5 -274zM575 1329 l170 230h273v-13l-178 -217h-265z" />
<glyph unicode="&#xd4;" horiz-adv-x="1439" d="M57 618q0 266 194.5 451.5t467 185.5t468 -185t195.5 -452q0 -268 -195.5 -456.5t-468 -188.5t-467 188.5t-194.5 456.5zM332 618q0 -168 111.5 -280.5t275.5 -112.5q166 0 274.5 112t108.5 281q0 166 -108.5 276t-274.5 110q-164 0 -275.5 -112t-111.5 -274zM381 1298 l194 263h293l195 -263h-238l-104 132l-103 -132h-237z" />
<glyph unicode="&#xd5;" horiz-adv-x="1439" d="M57 618q0 266 194.5 451.5t467 185.5t468 -185t195.5 -452q0 -268 -195.5 -456.5t-468 -188.5t-467 188.5t-194.5 456.5zM332 618q0 -168 111.5 -280.5t275.5 -112.5q166 0 274.5 112t108.5 281q0 166 -108.5 276t-274.5 110q-164 0 -275.5 -112t-111.5 -274zM367 1350 v14q0 113 58 174t150 61q57 0 144.5 -30.5t111.5 -30.5q57 0 58 61v11h174v-19q0 -231 -203 -231q-57 0 -144 31.5t-106 31.5q-59 1 -59 -73h-184z" />
<glyph unicode="&#xd6;" horiz-adv-x="1439" d="M57 618q0 266 194.5 451.5t467 185.5t468 -185t195.5 -452q0 -268 -195.5 -456.5t-468 -188.5t-467 188.5t-194.5 456.5zM332 618q0 -168 111.5 -280.5t275.5 -112.5q166 0 274.5 112t108.5 281q0 166 -108.5 276t-274.5 110q-164 0 -275.5 -112t-111.5 -274zM393 1434 q0 55 40 92t99.5 37t98.5 -37t39 -92q0 -63 -39 -101.5t-98.5 -38.5t-99.5 38t-40 102zM791 1434q0 55 39.5 92t99 37t99.5 -37t40 -92q0 -63 -40 -101.5t-99.5 -38.5t-99 38t-39.5 102z" />
<glyph unicode="&#xd7;" horiz-adv-x="1148" d="M121 156l303 299l-266 274l159 154l267 -273l272 264l154 -159l-269 -264l295 -301l-159 -156l-295 299l-303 -297z" />
<glyph unicode="&#xd8;" horiz-adv-x="1433" d="M57 618q0 266 194.5 451.5t467.5 185.5q111 0 215 -34l121 204h278l-186 -321q111 -88 173 -214t62 -272q0 -268 -195.5 -456.5t-467.5 -188.5q-98 0 -207 31l-106 -184h-289l178 303q-238 195 -238 495zM332 618q0 -154 96 -266l375 643q-53 8 -84 9q-164 0 -275.5 -112 t-111.5 -274zM643 231q37 -6 76 -6q166 0 274.5 111.5t108.5 281.5q0 145 -90 252z" />
<glyph unicode="&#xd9;" horiz-adv-x="1357" d="M131 522v707h272v-709q0 -147 80 -221t201 -74q125 0 199.5 72.5t74.5 222.5v709h269v-707q0 -264 -148.5 -406.5t-394.5 -142.5q-238 0 -395.5 141.5t-157.5 407.5zM389 1544v12h268l152 -229h-248z" />
<glyph unicode="&#xda;" horiz-adv-x="1361" d="M131 522v707h272v-709q0 -147 80 -221t201 -74q125 0 199.5 72.5t74.5 222.5v709h269v-707q0 -264 -148.5 -406.5t-394.5 -142.5q-238 0 -395.5 141.5t-157.5 407.5zM543 1329l170 230h272v-13l-178 -217h-264z" />
<glyph unicode="&#xdb;" horiz-adv-x="1366" d="M131 522v707h272v-709q0 -147 80 -221t201 -74q125 0 199.5 72.5t74.5 222.5v709h269v-707q0 -264 -148.5 -406.5t-394.5 -142.5q-238 0 -395.5 141.5t-157.5 407.5zM350 1298l195 263h293l194 -263h-237l-105 132l-102 -132h-238z" />
<glyph unicode="&#xdc;" horiz-adv-x="1361" d="M131 522v707h272v-709q0 -147 80 -221t201 -74q125 0 199.5 72.5t74.5 222.5v709h269v-707q0 -264 -148.5 -406.5t-394.5 -142.5q-238 0 -395.5 141.5t-157.5 407.5zM362 1434q0 55 40 92t99.5 37t98.5 -37t39 -92q0 -63 -39 -101.5t-98.5 -38.5t-99.5 38t-40 102z M760 1434q0 55 40 92t99 37t99 -37t40 -92q0 -63 -40 -101.5t-99 -38.5t-99 38t-40 102z" />
<glyph unicode="&#xdd;" horiz-adv-x="1300" d="M25 1229h309l321 -533l328 533h293l-488 -770v-459h-278v459zM502 1329l170 230h272v-13l-178 -217h-264z" />
<glyph unicode="&#xde;" horiz-adv-x="1191" d="M143 0v1413h273v-196h211q223 0 365.5 -115t142.5 -311q0 -195 -145.5 -316t-362.5 -121h-211v-354h-273zM416 584h202q109 0 177.5 56t68.5 153q0 92 -67 143t-176 51h-205v-403z" />
<glyph unicode="&#xdf;" horiz-adv-x="1277" d="M143 0v827q0 229 154 377t385 148q223 0 347 -90.5t124 -233.5q0 -72 -38 -128t-93 -88t-109.5 -57.5t-92.5 -53t-38 -58.5q0 -51 80 -86l152 -68q215 -86 215 -245q0 -117 -100.5 -190.5t-262.5 -73.5q-231 0 -364 118q10 18 30.5 51t37 60t30.5 49q119 -92 248 -92 q59 0 96 16.5t37 46.5q0 41 -72.5 77t-161 63.5t-161 95t-72.5 164.5q0 139 164 225l110 57q90 47 91 101q0 57 -51.5 93t-145.5 36q-268 0 -268 -381v-760h-271z" />
<glyph unicode="&#xe0;" horiz-adv-x="1024" d="M61 262q0 125 116 204t312 79q55 0 187 -17v15q0 72 -55.5 114.5t-171.5 42.5q-164 0 -297 -69v194q137 63 317 64q225 0 341 -100.5t116 -264.5v-524h-240v66q-109 -84 -260 -84q-164 0 -264.5 77.5t-100.5 202.5zM119 1313v10h262l256 -332h-244zM326 270.5 q0 -53.5 42 -84t109 -30.5q138 0 199 88v135q-66 12 -156 12q-88 0 -141 -33.5t-53 -87z" />
<glyph unicode="&#xe1;" horiz-adv-x="1024" d="M57 262q0 125 116 204t312 79q55 0 187 -17v15q0 72 -55.5 114.5t-172.5 42.5q-164 0 -297 -69v194q137 63 318 64q225 0 341 -100.5t116 -264.5v-524h-240v66q-109 -84 -260 -84q-164 0 -264.5 77.5t-100.5 202.5zM322 270.5q0 -53.5 42 -84t109 -30.5q138 0 199 88v135 q-66 12 -156 12q-88 0 -141 -33.5t-53 -87zM369 993l256 332h262v-10l-275 -322h-243z" />
<glyph unicode="&#xe2;" horiz-adv-x="1024" d="M61 262q0 125 116 204t312 79q55 0 187 -17v15q0 72 -55.5 114.5t-171.5 42.5q-164 0 -297 -69v194q137 63 317 64q225 0 341 -100.5t116 -264.5v-524h-240v66q-109 -84 -260 -84q-164 0 -264.5 77.5t-100.5 202.5zM125 999l248 326h274l248 -326h-246l-139 175 l-139 -175h-246zM326 270.5q0 -53.5 42 -84t109 -30.5q138 0 199 88v135q-66 12 -156 12q-88 0 -141 -33.5t-53 -87z" />
<glyph unicode="&#xe3;" horiz-adv-x="1024" d="M63 262q0 125 116 204t313 79q55 0 186 -17v15q0 72 -55.5 114.5t-171.5 42.5q-164 0 -297 -69v194q137 63 317 64q225 0 341 -100.5t116 -264.5v-524h-240v66q-109 -84 -260 -84q-164 0 -264.5 77.5t-100.5 202.5zM174 1055q0 121 57.5 186.5t153.5 65.5q57 0 143 -32 t111 -32q59 0 59 72h172v-19q0 -229 -200 -229q-59 0 -146.5 31.5t-105.5 31.5q-58 1 -58 -75h-186zM328 270.5q0 -53.5 42 -84t109 -30.5q138 0 199 88v135q-66 12 -156 12q-88 0 -141 -33.5t-53 -87z" />
<glyph unicode="&#xe4;" horiz-adv-x="1024" d="M63 262q0 125 116 204t313 79q55 0 186 -17v15q0 72 -55.5 114.5t-171.5 42.5q-164 0 -297 -69v194q137 63 317 64q225 0 341 -100.5t116 -264.5v-524h-240v66q-109 -84 -260 -84q-164 0 -264.5 77.5t-100.5 202.5zM176 1161q0 55 40 92t99.5 37t98.5 -37t39 -92 q0 -66 -39 -103.5t-98.5 -37.5t-99.5 39t-40 102zM328 270.5q0 -53.5 42 -84t109 -30.5q138 0 199 88v135q-66 12 -156 12q-88 0 -141 -33.5t-53 -87zM573 1161q0 55 40 92t99.5 37t99.5 -37t40 -92q0 -63 -40 -102t-99.5 -39t-99.5 39t-40 102z" />
<glyph unicode="&#xe5;" horiz-adv-x="1024" d="M61 262q0 125 116 204t312 79q55 0 187 -17v15q0 72 -55.5 114.5t-171.5 42.5q-164 0 -297 -69v194q137 63 317 64q225 0 341 -100.5t116 -264.5v-524h-240v66q-109 -84 -260 -84q-164 0 -264.5 77.5t-100.5 202.5zM309 1174q0 84 60.5 139t148.5 55q86 0 145.5 -55 t59.5 -139q0 -92 -58.5 -147.5t-146.5 -55.5q-90 0 -149.5 55t-59.5 148zM326 270.5q0 -53.5 42 -84t109 -30.5q138 0 199 88v135q-66 12 -156 12q-88 0 -141 -33.5t-53 -87zM451 1169q0 -31 19 -48t48 -17t47.5 17t18.5 48q0 27 -18.5 45.5t-47.5 18.5t-48 -18.5t-19 -45.5 z" />
<glyph unicode="&#xe6;" horiz-adv-x="1654" d="M68 264q0 125 115.5 204t314.5 79q68 0 186 -15v15q0 70 -56.5 111.5t-172.5 41.5q-158 0 -297 -67v192q137 64 313 64q240 0 354 -127q123 127 312 127q213 0 341 -143.5t117 -387.5h-647q14 -84 75.5 -128t158.5 -44q154 0 245 103l132 -164q-156 -143 -381 -143 q-246 0 -383 165q-127 -166 -361 -165q-164 0 -265 77.5t-101 204.5zM328 270q0 -51 42 -81.5t111 -30.5q84 0 137.5 40t65.5 95v88q-78 14 -162 14q-96 0 -145 -33.5t-49 -91.5zM950 524h385q-8 80 -56 128t-134 48q-80 0 -132 -49t-63 -127z" />
<glyph unicode="&#xe7;" horiz-adv-x="976" d="M63 442q0 186 139.5 316.5t340.5 130.5q221 0 368 -154l-170 -174q-74 90 -194 90q-90 0 -156.5 -60.5t-66.5 -148.5q0 -98 65.5 -158.5t157.5 -60.5q129 1 203 105l182 -162q-137 -184 -389 -184q-203 0 -341.5 132t-138.5 328zM360 -264q49 -12 109 -12q94 0 94 51 q0 37 -71 37q-43 0 -70 -5l-19 103q55 12 121 12q80 0 132.5 -37.5t52.5 -103.5q0 -72 -58.5 -117t-154.5 -45q-66 0 -111 10z" />
<glyph unicode="&#xe8;" horiz-adv-x="1015" d="M55 440q0 186 130 317.5t319 131.5q213 0 341 -143.5t120 -391.5h-652q16 -80 80 -124t158 -44q150 0 240 101l137 -158q-154 -147 -377 -147q-217 0 -356.5 128t-139.5 330zM129 1315v10h262l256 -332h-244zM315 526h387q-6 76 -55 125t-135 49q-78 0 -132 -50t-65 -124 z" />
<glyph unicode="&#xe9;" horiz-adv-x="1015" d="M59 440q0 186 130 317.5t319 131.5q213 0 341 -143.5t120 -391.5h-652q16 -80 80 -124t158 -44q150 0 240 101l137 -158q-154 -147 -377 -147q-217 0 -356.5 128t-139.5 330zM319 526h388q-6 76 -55.5 125t-135.5 49q-78 0 -132 -50t-65 -124zM391 993l256 332h262v-10 l-274 -322h-244z" />
<glyph unicode="&#xea;" horiz-adv-x="1015" d="M57 440q0 186 130 317.5t319 131.5q213 0 341 -143.5t120 -391.5h-652q16 -80 80 -124t158 -44q150 0 240 101l137 -158q-154 -147 -377 -147q-217 0 -356.5 128t-139.5 330zM137 999l248 326h274l248 -326h-245l-140 175l-139 -175h-246zM317 526h388q-6 76 -55.5 125 t-135.5 49q-78 0 -132 -50t-65 -124z" />
<glyph unicode="&#xeb;" horiz-adv-x="1015" d="M59 440q0 186 130 317.5t319 131.5q213 0 341 -143.5t120 -391.5h-652q16 -80 80 -124t158 -44q150 0 240 101l137 -158q-154 -147 -377 -147q-217 0 -356.5 128t-139.5 330zM195 1161q0 55 39.5 92t99 37t98.5 -37t39 -92q0 -66 -39 -103.5t-98.5 -37.5t-99 39 t-39.5 102zM319 526h388q-6 76 -55.5 125t-135.5 49q-78 0 -132 -50t-65 -124zM592 1161q0 55 40 92t99.5 37t99 -37t39.5 -92q0 -63 -39.5 -102t-99 -39t-99.5 39t-40 102z" />
<glyph unicode="&#xec;" horiz-adv-x="534" d="M-127 1346v10h262l256 -332h-244zM145 0v870h271v-870h-271z" />
<glyph unicode="&#xed;" horiz-adv-x="538" d="M141 0v870h271v-870h-271zM152 993l256 332h262v-10l-275 -322h-243z" />
<glyph unicode="&#xee;" horiz-adv-x="536" d="M-106 999l247 326h275l248 -326h-246l-139 175l-140 -175h-245zM141 0v870h271v-870h-271z" />
<glyph unicode="&#xef;" horiz-adv-x="540" d="M-55 1161q0 55 40 92t99 37t98 -37t39 -92q0 -66 -39 -103.5t-98 -37.5t-99 39t-40 102zM143 0v870h271v-870h-271zM342 1161q0 55 40 92t99.5 37t99.5 -37t40 -92q0 -63 -40 -102t-99.5 -39t-99.5 39t-40 102z" />
<glyph unicode="&#xf0;" horiz-adv-x="1089" d="M61 401q0 184 119 300t316 116q172 0 270 -104q-6 129 -61 205l-101 -64l-86 115l70 43q-57 23 -119 22q-123 0 -227 -65l-109 188q143 98 352 98q190 0 322 -100l123 78l88 -115l-111 -71q117 -172 117 -474q0 -164 -42 -284.5t-112.5 -187t-153.5 -97.5t-177 -31 q-211 0 -344.5 121t-133.5 307zM322 403q0 -88 59 -145t149 -57q88 0 148.5 57t60.5 147.5t-59.5 144.5t-149.5 54q-94 0 -151 -54t-57 -147z" />
<glyph unicode="&#xf1;" horiz-adv-x="1142" d="M129 0v870h254v-104q137 123 305 123q158 0 252 -88t94 -260v-541h-270v481q0 80 -43 123t-115 43q-57 0 -114.5 -28.5t-92.5 -73.5v-545h-270zM217 1055q0 121 57.5 186.5t153.5 65.5q57 0 143 -32t111 -32q59 0 59 72h172v-19q0 -229 -200 -229q-59 0 -146.5 31.5 t-105.5 31.5q-58 1 -58 -75h-186z" />
<glyph unicode="&#xf2;" horiz-adv-x="1040" d="M55 436q0 190 136.5 321.5t333 131.5t332.5 -132t136 -320.5t-136 -321.5t-332.5 -133t-333 133t-136.5 321zM145 1346v10h263l256 -332h-244zM328 438q0 -94 55 -152.5t141 -58.5t141.5 58.5t55.5 152.5q0 92 -56.5 152.5t-140.5 60.5t-140 -60.5t-56 -152.5z" />
<glyph unicode="&#xf3;" horiz-adv-x="1040" d="M55 436q0 190 136.5 321.5t333 131.5t332.5 -132t136 -320.5t-136 -321.5t-332.5 -133t-333 133t-136.5 321zM328 438q0 -94 55 -152.5t141 -58.5t141.5 58.5t55.5 152.5q0 92 -56.5 152.5t-140.5 60.5t-140 -60.5t-56 -152.5zM410 993l256 332h262v-10l-275 -322h-243z " />
<glyph unicode="&#xf4;" horiz-adv-x="1040" d="M55 436q0 190 136.5 321.5t333 131.5t332.5 -132t136 -320.5t-136 -321.5t-332.5 -133t-333 133t-136.5 321zM141 999l248 326h275l247 -326h-245l-140 175l-139 -175h-246zM328 438q0 -94 55 -152.5t141 -58.5t141.5 58.5t55.5 152.5q0 92 -56.5 152.5t-140.5 60.5 t-140 -60.5t-56 -152.5z" />
<glyph unicode="&#xf5;" horiz-adv-x="1040" d="M55 436q0 190 136.5 321.5t333 131.5t332.5 -132t136 -320.5t-136 -321.5t-332.5 -133t-333 133t-136.5 321zM178 1055q0 121 57.5 186.5t153.5 65.5q57 0 143 -32t111 -32q59 0 59 72h172v-19q0 -229 -200 -229q-59 0 -146.5 31.5t-105.5 31.5q-57 1 -57 -75h-187z M328 438q0 -94 55 -152.5t141 -58.5t141.5 58.5t55.5 152.5q0 92 -56.5 152.5t-140.5 60.5t-140 -60.5t-56 -152.5z" />
<glyph unicode="&#xf6;" horiz-adv-x="1040" d="M55 436q0 190 136.5 321.5t333 131.5t332.5 -132t136 -320.5t-136 -321.5t-332.5 -133t-333 133t-136.5 321zM199 1161q0 55 40 92t99 37t98 -37t39 -92q0 -66 -39 -103.5t-98 -37.5t-99 39t-40 102zM328 438q0 -94 55 -152.5t141 -58.5t141.5 58.5t55.5 152.5 q0 92 -56.5 152.5t-140.5 60.5t-140 -60.5t-56 -152.5zM596 1161q0 55 40 92t99.5 37t99 -37t39.5 -92q0 -63 -39.5 -102t-99 -39t-99.5 39t-40 102z" />
<glyph unicode="&#xf7;" horiz-adv-x="1202" d="M176 352v240h860v-240h-860zM449 133q0 63 46 106.5t113 43.5q66 0 111 -43.5t45 -106.5q0 -72 -45 -116t-111 -44q-70 0 -114.5 44t-44.5 116zM449 809q0 63 46 106t113 43q66 0 111 -43t45 -106q0 -72 -45 -116t-111 -44q-70 0 -114.5 44t-44.5 116z" />
<glyph unicode="&#xf8;" horiz-adv-x="1040" d="M55 436q0 190 136.5 321.5t332.5 131.5q96 0 185 -35l106 182h143l-143 -243q178 -137 178 -357q0 -188 -136 -321t-333 -133q-86 0 -166 28l-110 -190h-148l146 248q-191 137 -191 368zM328 438q0 -88 49 -147l207 350q-31 10 -60 10q-84 0 -140 -60.5t-56 -152.5z M487 229q12 -2 37 -2q86 0 141.5 58.5t55.5 152.5q0 70 -37 127z" />
<glyph unicode="&#xf9;" horiz-adv-x="1136" d="M119 330v540h270v-481q0 -80 43 -123t115 -43q57 0 114.5 29t92.5 74v544h270v-870h-254v104q-137 -123 -305 -122q-158 0 -252 88t-94 260zM195 1315v10h262l256 -332h-244z" />
<glyph unicode="&#xfa;" horiz-adv-x="1142" d="M127 330v540h270v-481q0 -80 43 -123t115 -43q57 0 114.5 29t92.5 74v544h270v-870h-254v104q-137 -123 -305 -122q-158 0 -252 88t-94 260zM453 993l256 332h262v-10l-275 -322h-243z" />
<glyph unicode="&#xfb;" horiz-adv-x="1142" d="M119 330v540h270v-481q0 -80 43 -123t115 -43q57 0 114.5 29t92.5 74v544h270v-870h-254v104q-137 -123 -305 -122q-158 0 -252 88t-94 260zM190 999l248 326h275l248 -326h-246l-140 175l-139 -175h-246z" />
<glyph unicode="&#xfc;" horiz-adv-x="1142" d="M123 330v540h270v-481q0 -80 43 -123t115 -43q57 0 114.5 29t92.5 74v544h270v-870h-254v104q-137 -123 -305 -122q-158 0 -252 88t-94 260zM240 1161q0 55 39.5 92t99 37t98.5 -37t39 -92q0 -66 -39 -103.5t-98.5 -37.5t-99 39t-39.5 102zM637 1161q0 55 40 92t99.5 37 t99 -37t39.5 -92q0 -63 -39.5 -102t-99 -39t-99.5 39t-40 102z" />
<glyph unicode="&#xfd;" horiz-adv-x="1114" d="M25 870h301l235 -497l242 497h287q-109 -217 -674 -1325h-289l289 553zM424 993l256 332h262v-10l-274 -322h-244z" />
<glyph unicode="&#xfe;" horiz-adv-x="1161" d="M143 -455v1780h269v-479q89 43 202 43q199 0 340.5 -126t141.5 -321q0 -209 -138.5 -334.5t-316.5 -125.5q-129 0 -229 65v-502h-269zM412 283q59 -78 178 -78q96 0 163.5 62.5t67.5 174.5q0 102 -68.5 164t-167 62t-173.5 -45v-340z" />
<glyph unicode="&#xff;" horiz-adv-x="1112" d="M25 870h301l235 -497l242 497h287q-109 -217 -674 -1325h-289l289 553zM223 1161q0 55 40 92t99.5 37t98.5 -37t39 -92q0 -66 -39 -103.5t-98.5 -37.5t-99.5 39t-40 102zM621 1161q0 55 39.5 92t99 37t99.5 -37t40 -92q0 -63 -40 -102t-99.5 -39t-99 39t-39.5 102z" />
<glyph unicode="&#x152;" horiz-adv-x="2031" d="M45 623q0 264 194.5 448t467.5 184q240 0 409 -151v125h856v-236h-586v-262h556v-223h-556v-275h584v-233h-854v131q-178 -158 -409 -158q-272 0 -467 190.5t-195 459.5zM319 623q0 -170 112 -282t276 -112q166 0 274.5 111t108.5 283q0 164 -110 274.5t-273.5 110.5 t-275.5 -111.5t-112 -273.5z" />
<glyph unicode="&#x153;" horiz-adv-x="1693" d="M53 434q0 190 135.5 321.5t333.5 131.5q203 0 336 -150q127 152 328 152q211 0 339 -140.5t120 -390.5h-650q14 -84 80 -129t156 -45q150 0 248 103l129 -164q-154 -141 -379 -141q-240 0 -369 151q-129 -152 -338 -151q-197 0 -333 132t-136 320zM324 434 q0 -96 56 -154.5t142 -58.5t141.5 58.5t55.5 154.5q0 92 -56.5 151.5t-140.5 59.5q-86 0 -142 -59.5t-56 -151.5zM997 524h387q-6 80 -54 128t-136 48q-80 0 -133 -49t-64 -127z" />
<glyph unicode="&#x178;" horiz-adv-x="1294" d="M25 1229h309l321 -533l328 533h293l-488 -770v-459h-278v459zM322 1434q0 55 39.5 92t99 37t98.5 -37t39 -92q0 -63 -39 -101.5t-98.5 -38.5t-99 38t-39.5 102zM719 1434q0 55 40 92t99.5 37t99 -37t39.5 -92q0 -63 -39.5 -101.5t-99 -38.5t-99.5 38t-40 102z" />
<glyph unicode="&#x2c6;" d="M383 999l248 326h274l248 -326h-246l-139 175l-139 -175h-246z" />
<glyph unicode="&#x2dc;" d="M412 1055q0 121 57 186.5t154 65.5q57 0 143 -32t111 -32q59 0 59 72h172v-19q0 -229 -201 -229q-59 0 -146 31.5t-106 31.5q-57 1 -57 -75h-186z" />
<glyph unicode="&#x2000;" horiz-adv-x="839" />
<glyph unicode="&#x2001;" horiz-adv-x="1679" />
<glyph unicode="&#x2002;" horiz-adv-x="839" />
<glyph unicode="&#x2003;" horiz-adv-x="1679" />
<glyph unicode="&#x2004;" horiz-adv-x="559" />
<glyph unicode="&#x2005;" horiz-adv-x="419" />
<glyph unicode="&#x2006;" horiz-adv-x="279" />
<glyph unicode="&#x2007;" horiz-adv-x="279" />
<glyph unicode="&#x2008;" horiz-adv-x="209" />
<glyph unicode="&#x2009;" horiz-adv-x="335" />
<glyph unicode="&#x200a;" horiz-adv-x="93" />
<glyph unicode="&#x2010;" horiz-adv-x="1089" d="M209 387v246h690v-246h-690z" />
<glyph unicode="&#x2011;" horiz-adv-x="1089" d="M209 387v246h690v-246h-690z" />
<glyph unicode="&#x2012;" horiz-adv-x="1089" d="M209 387v246h690v-246h-690z" />
<glyph unicode="&#x2013;" horiz-adv-x="1060" d="M80 391v240h919v-240h-919z" />
<glyph unicode="&#x2014;" horiz-adv-x="1792" d="M113 391v240h1581v-240h-1581z" />
<glyph unicode="&#x2018;" horiz-adv-x="512" d="M4 1325h260l213 -549h-256z" />
<glyph unicode="&#x2019;" horiz-adv-x="538" d="M61 776l213 549h261l-218 -549h-256z" />
<glyph unicode="&#x201a;" horiz-adv-x="479" d="M6 -330l213 549h260l-217 -549h-256z" />
<glyph unicode="&#x201c;" horiz-adv-x="952" d="M8 1325h260l213 -549h-256zM391 1325h260l213 -549h-256z" />
<glyph unicode="&#x201d;" horiz-adv-x="983" d="M121 776l213 549h260l-217 -549h-256zM504 776l213 549h260l-217 -549h-256z" />
<glyph unicode="&#x201e;" horiz-adv-x="878" d="M16 -330l213 549h260l-217 -549h-256zM399 -330l213 549h260l-217 -549h-256z" />
<glyph unicode="&#x2022;" horiz-adv-x="983" d="M162 534.5q0 137.5 102.5 234.5t241.5 97t240.5 -97t101.5 -234.5t-101.5 -235.5t-240.5 -98q-141 0 -242.5 98t-101.5 235.5z" />
<glyph unicode="&#x2026;" horiz-adv-x="1562" d="M160 133q0 63 46 106.5t113 43.5q66 0 111 -43.5t45 -106.5q0 -72 -45 -116t-111 -44q-70 0 -114.5 44t-44.5 116zM629 133q0 63 46 106.5t113 43.5q66 0 111 -43.5t45 -106.5q0 -72 -45 -116t-111 -44q-70 0 -114.5 44t-44.5 116zM1098 133q0 63 46 106.5t113 43.5 q66 0 111 -43.5t45 -106.5q0 -72 -45 -116t-111 -44q-70 0 -114.5 44t-44.5 116z" />
<glyph unicode="&#x202f;" horiz-adv-x="335" />
<glyph unicode="&#x2039;" horiz-adv-x="694" d="M113 449l254 411h270l-248 -411l248 -406h-270z" />
<glyph unicode="&#x203a;" horiz-adv-x="663" d="M72 43l247 406l-247 411h270l254 -411l-254 -406h-270z" />
<glyph unicode="&#x205f;" horiz-adv-x="419" />
<glyph unicode="&#x20ac;" horiz-adv-x="1400" d="M113 406v149h159q-4 45 -4 69.5t4 65.5h-159v150h194q72 186 248 300.5t393 114.5q168 0 316 -69v-236q-135 76 -295 76q-111 0 -210.5 -49t-146.5 -137h531v-150h-584q-4 -20 -4 -63q0 -49 4 -72h584v-149h-531q49 -98 146.5 -147.5t210.5 -49.5q172 0 295 82v-246 q-127 -72 -316 -72q-219 0 -397 118t-246 315h-192z" />
<glyph unicode="&#x2122;" horiz-adv-x="1650" d="M143 1202v123h572v-123h-215v-473h-144v473h-213zM809 729v596h147l187 -240l192 240h140v-596h-144v381l-192 -242h-2l-185 242v-381h-143z" />
<glyph unicode="&#x25fc;" horiz-adv-x="870" d="M0 0v870h870v-870h-870z" />
</font>
</defs>
</svg>
